<?xml version="1.0" standalone="no"?>
<!DOCTYPE svg PUBLIC "-//W3C//DTD SVG 1.1//EN" "http://www.w3.org/Graphics/SVG/1.1/DTD/svg11.dtd" >
<svg xmlns="http://www.w3.org/2000/svg" xmlns:xlink="http://www.w3.org/1999/xlink" version="1.1">
<metadata>
Created by FontForge 20170731 at Thu Nov 22 01:52:39 2018
 By Aleksey,,,
</metadata>
<defs>
<font id="FrancaiseRegulardemo" horiz-adv-x="387" >
  <font-face 
    font-family="Francaise Regular demo"
    font-weight="400"
    font-stretch="normal"
    units-per-em="1000"
    panose-1="0 0 0 0 0 0 0 0 0 0"
    ascent="800"
    descent="-200"
    x-height="397"
    cap-height="692"
    bbox="-661.92 -319 1059.26 972"
    underline-thickness="50"
    underline-position="-150"
    unicode-range="U+000D-FB02"
  />
<missing-glyph horiz-adv-x="350" 
 />
    <glyph glyph-name="s_z" unicode="sz" horiz-adv-x="578" 
d="M166 -283q-36 10 -44.5 40t-0.5 65.5t27 69.5t40 52q40 35 88 54.5t94 41.5q-34 35 -37.5 66.5t35.5 67.5q11 10 34 31t44.5 45t35 46.5t5.5 34.5q-12 19 -33.5 19t-44 -11.5t-42.5 -31.5t-28 -42l-2 -5q-12 -26 -29 -55t-40 -54t-52.5 -42t-67.5 -17q-3 -42 -18.5 -66.5
t-36.5 -35t-44 -7.5t-40 17q-16 13 -23.5 34t-1.5 42t28 39t64 24q-29 64 -40 111.5t-11 81t8.5 54t18.5 31.5q17 20 42.5 28t52.5 2q35 -7 62 -32.5t38 -62.5q4 -12 -1.5 -22t-18.5 -13t-24.5 3t-14.5 17q-11 33 -28 45t-33 7t-26.5 -25.5t-8.5 -53.5q2 -32 13.5 -71
t34.5 -90q33 0 54.5 13t36.5 32.5t26 43.5t23 47l5 8q11 25 35 50t55 42t64 23t62 -6q49 -21 51 -66.5t-43 -99.5q-23 -29 -51.5 -56t-51.5 -48q-5 -3 -3 -11.5t6.5 -19t10.5 -20t8 -13.5q26 7 52 32.5t50 58t43.5 66t33.5 57.5q6 13 18 17.5t23 2t17 -10.5t0 -20
q-18 -33 -43.5 -76t-56.5 -82.5t-67.5 -70.5t-76.5 -41q-10 -37 -35 -80.5t-60 -86.5q-16 -19 -34.5 -39.5t-39 -38t-42.5 -28.5t-44 -11zM347 -32q-35 -8 -67.5 -25.5t-57.5 -42.5t-38 -56t-9 -67q6 -7 20.5 2t33 27t38 42t37 47.5t29 43.5t14.5 29zM98 86q-24 1 -38 -4.5
t-20 -14t-4.5 -17t7.5 -12.5q5 -4 13 -3.5t16 6t15 16.5t11 29z" />
    <glyph glyph-name="t_t" unicode="tt" horiz-adv-x="457" 
d="M660 621q11 -6 14 -18t-3 -23q-44 -77 -101 -109q-47 -26 -101 -26q-5 0 -10.5 0.5t-10.5 0.5q-32 3 -64.5 12.5t-66.5 23.5q-5 -15 -9.5 -30t-9.5 -29q-18 -62 -30.5 -121t-17.5 -107t-2.5 -80.5t14.5 -41.5q9 -5 26 4.5t38 27.5t44 41.5t43 46.5t35 42t21 28
q8 12 20.5 17t23.5 -2q11 -6 13.5 -16.5t-5.5 -21.5q-14 -20 -34 -46t-44 -53t-49.5 -53t-50.5 -45t-49 -29.5t-43 -7.5q-23 4 -36.5 20.5t-20.5 42.5q-33 -31 -64.5 -49.5t-57.5 -13.5q-30 5 -44 34t-15.5 74t6.5 102.5t22.5 120t32.5 125t36 118.5q-28 13 -55.5 23.5
t-55.5 18.5q-31 8 -58 4t-49 -15t-39.5 -26.5t-29 -29.5t-18 -24l-6.5 -10q-5 -11 -17 -14.5t-23 2.5q-11 5 -14.5 17t2.5 23q0 1 4.5 8.5t13 19.5t21 26t28.5 28q92 78 201 49q29 -8 57 -18.5t57 -23.5q23 67 38 105q8 23 15 41q5 11 16.5 16.5t22.5 0.5q12 -5 17 -16
t0 -23q-7 -20 -16 -44q-8 -20 -17.5 -47.5t-20.5 -58.5q20 -11 40 -20q15 -8 30 -15t29 -14q11 35 22 64t19 51q10 26 17 46q5 11 16.5 16.5t22.5 0.5q12 -5 17 -16t0 -23q-8 -22 -18 -48q-8 -23 -19.5 -52.5t-22.5 -63.5q31 -13 59.5 -21.5t56.5 -10.5q54 -5 93.5 20
t72.5 84q6 11 18 14t23 -3zM188 143q1 39 8 83.5t17.5 92t23.5 95t27 91.5q-17 8 -33.5 16.5t-33.5 16.5q-8 5 -16.5 8.5t-16.5 8.5q-12 -35 -23.5 -68.5t-21.5 -63.5q-17 -62 -29.5 -121t-18 -107t-3 -80.5t14.5 -41.5q6 -4 17.5 0.5t25.5 14.5t30 24t32 31z" />
    <glyph glyph-name="t_l" unicode="tl" horiz-adv-x="555" 
d="M619 283q11 -5 17 -16.5t-2 -22.5q-20 -29 -43 -73t-49 -84t-53.5 -66.5t-55.5 -21.5t-37 31.5t-7.5 63.5t10 79.5t17.5 80t14 64t-1 32.5q-9 -3 -23 -21.5t-31 -47t-35.5 -63.5t-36 -70t-33.5 -68t-27 -57q-6 -12 -17.5 -18t-22.5 -4.5t-19 10.5t-6 27
q-24 -17 -46 -26.5t-41 -6.5q-38 6 -54 42t-16.5 91t11 123t29.5 138t38.5 136t37.5 117q-34 17 -68.5 31.5t-72.5 24.5q-145 38 -285 -20q-26 -11 -47 -22.5t-35 -20.5q-17 -11 -29 -21q-10 -8 -22.5 -7.5t-20.5 10.5q-8 9 -7 21.5t10 20.5q1 1 10 8t25.5 18t40 24t52.5 25
q70 28 143 36q90 10 180 -14q40 -11 75.5 -25.5t70.5 -30.5q8 21 13.5 38t10.5 29q5 14 10 26q5 11 16.5 16.5t22.5 0.5q12 -5 17 -16t0 -23q-5 -13 -10 -28q-5 -13 -11.5 -31t-14.5 -39l38 -19t36 -17q6 24 10 44t10 40.5t14.5 42.5t22.5 49q76 149 196 149q52 0 89 -22
q36 -21 54 -59q11 -24 13 -50.5t-3.5 -54.5t-19 -55t-33.5 -51q-30 -34 -59.5 -58.5t-59.5 -39.5q-51 -26 -109 -26h-10q-32 1 -69 11q-6 -29 -13.5 -66t-15 -77t-15 -79.5t-14 -73.5t-11.5 -58.5t-7 -34.5q9 12 22.5 37.5t29.5 55t35.5 59.5t40.5 51t43 28t45 -9
q13 -9 16.5 -30.5t0.5 -49.5t-10 -60.5t-13.5 -64.5t-11.5 -60.5t-3 -48.5q1 -15 11.5 -7.5t25 27.5t31 47.5t30.5 52.5t23 42l9 17q5 11 15.5 17t23.5 1zM396 796q-21 -40 -31 -81t-22 -89q31 -9 61.5 -10t61 8.5t62 32.5t64.5 62q29 35 38.5 75.5t-4.5 71.5q-21 46 -88 46
q-83 0 -142 -116zM192 127q7 39 17.5 100t22 127.5t22.5 129t19 103.5q-20 9 -39.5 18.5t-40.5 20.5q-14 -32 -31 -82t-32.5 -107t-28.5 -116t-18.5 -110t-1.5 -88.5t21 -50.5q11 -7 36 10t54 45z" />
    <glyph glyph-name="t_h" unicode="th" horiz-adv-x="349" 
d="M686 887q11 -24 13 -50.5t-3.5 -54.5t-19 -55t-33.5 -51q-30 -34 -59.5 -58.5t-59.5 -39.5q-51 -26 -109 -26h-10q-19 1 -37.5 4.5t-36.5 8.5q-11 -40 -25 -91t-28 -105t-27.5 -106t-22 -93t-11.5 -67t4 -28t19.5 11t27.5 33t30 44t27.5 45t20.5 34.5l8 13.5q5 11 14 17
t20 1q9 -4 14 -15.5t-3 -22.5q-18 -30 -44 -72.5t-54.5 -81t-57.5 -64t-54 -19.5t-34 29q-22 -15 -42 -22.5t-37 -4.5q-32 5 -44 41t-10.5 91t14.5 123t30.5 138t38 136.5t37.5 117.5q-34 17 -68.5 31.5t-72.5 24.5q-145 38 -285 -20q-26 -11 -47 -22.5t-35 -20.5
q-17 -11 -29 -21q-10 -8 -22.5 -7.5t-20.5 10.5q-8 9 -7 21.5t10 20.5q1 1 10 8t25.5 18t40 24t52.5 25q70 28 143 36q90 10 180 -14q40 -11 75.5 -25.5t70.5 -30.5q8 21 13.5 38t10.5 29q5 14 10 26q5 11 16.5 16.5t22.5 0.5q12 -5 17 -16t0 -23q-5 -13 -10 -28
q-5 -13 -11.5 -31t-14.5 -39q19 -10 37 -18.5t36 -16.5q12 44 25.5 87t36.5 88q76 149 196 149q26 0 46 -5.5t39 -16.5q36 -21 54 -59zM149 97q3 31 15.5 84t30.5 118.5t39 139.5t40 146q-20 8 -39.5 17.5t-39.5 19.5q-11 -29 -21 -60.5t-21 -63.5q-12 -41 -23.5 -87
t-21.5 -92t-17.5 -88.5t-11 -76.5t-2 -57t9.5 -29q8 -5 25 3.5t37 25.5zM597 715q29 35 38.5 75.5t-4.5 71.5q-11 23 -31 34.5t-53 11.5q-83 0 -142 -116q-22 -42 -35 -83.5t-24 -86.5q31 -9 61.5 -10.5t61.5 8.5t62.5 33t65.5 62z" />
    <glyph glyph-name="t_k" unicode="tk" horiz-adv-x="496" 
d="M670 883q11 -24 13 -50.5t-3.5 -54.5t-19 -55t-33.5 -51q-30 -34 -59.5 -58.5t-59.5 -39.5q-51 -26 -109 -26h-10q-19 1 -37.5 4.5t-36.5 8.5q-10 -37 -22.5 -83t-26.5 -96h-1l-25 -88q25 41 58 64t65 30t58.5 0t38.5 -26.5t6 -50.5t-39 -70q-25 -32 -54 -54t-56.5 -36.5
t-50.5 -22.5t-37 -12q13 -27 23.5 -42.5t28 -15t46 21t78.5 67.5q22 20 41 39.5t34 35.5t23.5 26t9.5 10q7 8 19.5 9.5t21.5 -7.5q10 -8 11 -19.5t-7 -22.5q-1 -1 -10 -11t-24 -26t-35 -36.5t-43 -41.5q-34 -31 -72.5 -58.5t-74.5 -37t-66.5 7t-48.5 73.5l-22 -72
q-5 -18 -21.5 -18.5t-27.5 10.5q-30 -15 -53 -11q-32 5 -44 41t-10.5 91t14.5 123t30.5 138t38 136.5t37.5 117.5q-34 17 -68.5 31.5t-72.5 24.5q-145 38 -285 -20q-26 -11 -47 -22.5t-35 -20.5q-17 -11 -29 -21q-10 -8 -22.5 -7.5t-20.5 10.5q-8 9 -7 21.5t10 20.5
q1 1 10 8t25.5 18t40 24t52.5 25q70 28 143 36q90 10 180 -14q40 -11 75.5 -25.5t70.5 -30.5q8 21 13.5 38t10.5 29q5 14 10 26q5 11 16.5 16.5t22.5 0.5q12 -5 17 -16t0 -23q-5 -13 -10 -28q-5 -13 -11.5 -31t-14.5 -39q19 -10 37 -18.5t36 -16.5q12 44 25.5 87t36.5 88
q76 149 196 149q26 0 46 -5.5t39 -16.5q36 -21 54 -59zM228 470l30 111q-20 8 -39.5 17.5t-39.5 19.5q-11 -29 -21 -60.5t-21 -63.5q-12 -41 -23.5 -87t-21.5 -92t-17.5 -88.5t-11 -76.5t-2 -57t9.5 -29q7 -5 19.5 1t28.5 17zM386 341q-21 -1 -46 -22t-47.5 -49t-39.5 -56.5
t-22 -45.5q19 7 42 19.5t45.5 28t42 32.5t31.5 32q6 6 11 16t5.5 20t-4 17t-18.5 8zM581 711q29 35 38.5 75.5t-4.5 71.5q-11 23 -31 34.5t-53 11.5q-83 0 -142 -116q-22 -42 -35 -83.5t-24 -86.5q31 -9 61.5 -10.5t61.5 8.5t62.5 33t65.5 62z" />
    <glyph glyph-name="f_t" unicode="ft" horiz-adv-x="484" 
d="M551 269q11 -6 13.5 -16.5t-5.5 -21.5q-21 -30 -55 -70.5t-71.5 -77t-75.5 -61.5t-68 -25q-28 1 -43 18.5t-20 47t-1 69t13 84.5h-107q2 -28 9.5 -73.5t5.5 -114.5q-1 -54 -5 -99t-11 -82q-19 -99 -61 -136q-27 -24 -61 -24q-10 0 -20 3q-9 2 -20.5 8.5t-19.5 22.5
q-7 13 -10.5 39.5t4 77.5t30 133.5t67.5 209.5l12 35q-2 0 -9 8.5t-7 20.5q0 13 9.5 22t29.5 9l67 167l16 42q-40 14 -82 32t-87 41q-64 32 -124.5 64.5t-115.5 63.5q-56 31 -104.5 57t-91.5 46q-5 -8 -9.5 -16.5t-9.5 -16.5q-17 -22 -36 -37t-41 -20q-26 -8 -50.5 -1.5
t-42.5 25.5q-17 17 -22.5 39t1.5 43q15 51 58 69q44 17 120 -8l10 37q2 12 13 19t22 3q12 -2 19.5 -13t2.5 -23q-2 -11 -4.5 -22t-7.5 -22q44 -20 94.5 -47.5t108.5 -59.5q93 -51 193.5 -104.5t206.5 -92.5q2 5 4.5 11t5.5 11q5 13 12.5 28l17.5 35q29 53 59.5 98.5
t64.5 83.5q42 48 88.5 80.5t95.5 52.5q60 22 118 26.5t111 -9.5q48 -14 85 -42t60 -68q20 -37 23 -78t-11 -83q-14 -45 -46 -86t-80 -76q-118 -84 -262 -98q-33 -5 -70 -3q-21 1 -42 2.5t-42 4.5q-20 -60 -39 -123t-31 -115.5t-13.5 -88t13.5 -40.5q9 -5 26 4.5t38 27.5
t44 41.5t43 46.5t35 42t21 28q8 12 20.5 17t23.5 -2zM237 522q8 -2 15 -4.5t15 -4.5q15 -5 29.5 -8t29.5 -6q18 49 32.5 85t20.5 51q5 11 16.5 16.5t22.5 0.5q12 -5 17 -16t0 -23q-8 -22 -19.5 -54t-25.5 -71q106 -12 194.5 8.5t165.5 76.5q45 33 70.5 67.5t35.5 66.5
t6.5 60.5t-15.5 51.5q-15 27 -42.5 48.5t-65.5 32.5t-86.5 8.5t-105.5 -23.5q-49 -18 -90.5 -51t-75.5 -72.5t-61.5 -82.5t-47.5 -82q-11 -20 -19.5 -38.5t-15.5 -36.5zM253 456q-11 2 -20.5 4t-18.5 5l-76 -189h118q11 42 24.5 84t24.5 82q-13 3 -26 6.5t-26 7.5zM86 29
q2 56 0 104q-27 -76 -45.5 -139t-29.5 -112q-9 -39 -11.5 -64t-2.5 -40t1.5 -22t2.5 -8q13 -10 25 4t22 36t16 44t7 27q13 67 15 170zM-555 822q-7 -1 -12.5 -2t-10.5 -3t-11.5 -7.5t-11.5 -21.5q-2 -5 0 -11.5t7 -11.5q14 -14 35 -9q25 8 43 35l13 20q-17 5 -29 7t-23 4z
" />
    <glyph glyph-name=".notdef" horiz-adv-x="350" 
 />
    <glyph glyph-name=".null" horiz-adv-x="0" 
 />
    <glyph glyph-name="nonmarkingreturn" unicode="&#xd;" horiz-adv-x="350" 
 />
    <glyph glyph-name="NULL" horiz-adv-x="0" 
 />
    <glyph glyph-name="NULL" horiz-adv-x="0" 
 />
    <glyph glyph-name="space" unicode=" " horiz-adv-x="350" 
 />
    <glyph glyph-name="exclam" unicode="!" horiz-adv-x="342" 
d="M110 115q-4 0 -6 1q-9 2 -13 11.5t1 20.5l150 485q4 11 16.5 18t21.5 5q9 -3 16 -14t4 -22l-167 -485q-7 -20 -23 -20zM83 -22q-21 0 -35 17q-4 5 -7.5 13t-3.5 16q0 17 12 33t34 16q21 0 32 -16t11 -33q0 -8 -2.5 -16t-8.5 -13q-9 -17 -32 -17z" />
    <glyph glyph-name="quotedbl" unicode="&#x22;" horiz-adv-x="334" 
d="M108 543q-8 0 -6 8q3 10 14 12q14 2 30.5 9t27 17.5t10.5 23t-18 24.5q-5 7 2 19.5t21 19.5q19 10 26.5 4t8.5 -10q0 -24 -9.5 -45.5t-25.5 -38.5t-37 -28t-43 -15h-1zM176 537q-8 0 -6 8q3 10 14 12q14 2 30.5 9t27 17.5t10.5 23t-18 24.5q-5 7 2 19.5t21 19.5
q19 10 26.5 4t8.5 -10q0 -24 -9.5 -45.5t-25.5 -38.5t-37 -28t-43 -15h-1z" />
    <glyph glyph-name="numbersign" unicode="#" horiz-adv-x="372" 
d="M362 313q6 0 11 -4.5t5 -12.5q0 -6 -5 -11t-11 -5l-76 1l-29 -55h75q7 0 12 -5t5 -12t-5 -11.5t-12 -4.5h-93l-50 -90q-7 -12 -18 -8q-2 0 -3 0.5t-2 0.5q-14 9 -7 23l42 74l-81 1l-45 -81q-5 -12 -18 -8q-2 0 -2.5 0.5t-2.5 0.5q-6 4 -7.5 10.5t1.5 12.5l36 65l-60 1
q-14 0 -16 12q-1 1 -1 4q0 17 17 17h78l30 53l-79 1q-12 0 -16 13q0 1 -0.5 2t-0.5 2q0 7 5 12t12 5l97 -1l48 86q3 6 9.5 8t12.5 -1q14 -9 7 -23l-39 -70l81 -1l42 77q9 14 23 7q14 -9 7 -23l-34 -61zM249 281h-82l-29 -54l81 -1z" />
    <glyph glyph-name="dollar" unicode="$" horiz-adv-x="363" 
d="M339 426q5 -5 1 -12t-14 -12q-8 -5 -17 -4.5t-13 6.5q-5 6 -18 17t-31 19l-52 -175l1 -1q13 -25 24 -48t14 -44q6 -23 -2 -42q-11 -26 -39 -40q-8 -4 -16.5 -7t-16.5 -5q-6 -2 -11.5 -3t-11.5 -1l-12 -39q-2 -6 -8.5 -10t-14.5 -4h-1q-19 2 -15 14l13 44
q-15 4 -28.5 12.5t-27.5 21.5q-11 12 -17 21.5t-7 9.5q-2 6 1.5 13t12.5 11q8 5 17.5 3.5t12.5 -6.5q5 -8 17.5 -23t30.5 -25l39 129q-14 27 -27 55t-18 54q-4 30 6 55q14 30 49 51q29 17 61 20l17 55q2 6 8.5 10t14.5 3q19 0 16 -14l-17 -57q25 -6 52 -26q12 -9 19 -17.5
t8 -8.5zM153 368q2 -13 6.5 -26.5t10.5 -27.5l40 132q-14 -2 -28 -10q-6 -3 -12 -8.5t-10.5 -13.5t-7 -19t0.5 -27zM187 159q-2 8 -5 17.5t-8 20.5l-26 -88q6 0 12 2t13 5q5 2 12 10.5t2 32.5z" />
    <glyph glyph-name="percent" unicode="%" horiz-adv-x="272" 
d="M324 628q12 -4 16 -14.5t-1 -24.5l-289 -564q-13 -23 -35 -23q-7 0 -10 1q-12 3 -16 14t3 24l285 564q16 28 47 23zM181 117q24 0 41 -17t17 -41q-1 -25 -19 -42t-42 -17t-40.5 17t-15.5 42q0 24 17.5 41t41.5 17zM179 35q10 0 17 7t8 17q0 10 -7 16.5t-17 6.5
t-16.5 -6.5t-6.5 -16.5q-1 -10 5.5 -17t16.5 -7zM138 514q-24 0 -40.5 17t-16.5 41q1 24 18.5 41.5t41.5 17.5q25 0 41.5 -17.5t15.5 -41.5q0 -24 -17.5 -41t-42.5 -17zM140 596q-10 0 -16.5 -7t-7.5 -17q0 -10 6.5 -16.5t16.5 -6.5t17 6.5t7 16.5q1 10 -6 17t-17 7z" />
    <glyph glyph-name="ampersand" unicode="&#x26;" horiz-adv-x="593" 
d="M583 242q5 -7 3 -14.5t-9 -12.5q-1 -1 -17 -9t-39 -14q-17 -4 -35 -4q-17 0 -29 4t-22 11v-1q0 -1 -6.5 -9t-17.5 -21t-26 -29.5t-32 -34.5q-50 -49 -93.5 -75.5t-81.5 -28.5h-6q-45 0 -76 34q-29 29 -27 69q1 24 13.5 47t30 44t38 39t38.5 33q5 5 10.5 9t10.5 8
q-38 53 -30 115q5 31 19 59t37 51q35 38 78 46q25 6 48 0.5t41 -19.5q17 -14 27 -32.5t10 -39.5q0 -20 -8.5 -43t-26.5 -46q-12 -17 -22 -28t-11 -11q-8 -6 -17.5 -5.5t-16.5 7.5q-6 8 -6 17.5t8 16.5q5 5 14 15t17 22.5t14 26.5t6 27q0 20 -18 37q-24 18 -53 8t-51 -32
q-16 -17 -27 -38t-14 -44t3.5 -47.5t25.5 -47.5l6 -6v-9q0 -13 -10 -23.5t-33 -29.5q-14 -12 -31.5 -27.5t-33.5 -33t-26.5 -35t-11.5 -33.5q-2 -20 14 -35q18 -20 44 -18q29 2 65 25t79 65q17 16 31 32t24.5 28.5t16 20.5l5.5 8l4 4q-32 26 -57 23q-14 -3 -22 -11
q-4 -4 -7 -9q-5 -7 -12.5 -9.5t-15.5 1.5q-7 5 -9.5 12.5t2.5 15.5l4 5.5t11 12.5t18 13.5t26 8.5q52 6 109 -52l1 -1h1q12 -15 30 -16.5t35 3t29.5 11l12.5 6.5q7 5 15 3t12 -10z" />
    <glyph glyph-name="quotesingle" unicode="'" horiz-adv-x="219" 
d="M170 543q-8 0 -6 8q3 10 14 12q14 2 30.5 9t27 17.5t10.5 23t-18 24.5q-5 7 2 19.5t21 19.5q19 10 26.5 4t8.5 -10q0 -24 -9.5 -45.5t-25.5 -38.5t-37 -28t-43 -15h-1z" />
    <glyph glyph-name="parenleft" unicode="(" horiz-adv-x="304" 
d="M116 -29q-8 0 -15 3.5t-11 11.5q-1 1 -16.5 31t-32.5 78q-10 29 -16.5 57t-11.5 54q-9 68 0 127q13 74 50 151q28 57 71 114q37 48 64.5 73.5t29.5 26.5q10 8 22 7t20 -11t7 -22t-11 -20q0 -1 -26 -24.5t-59 -67.5q-15 -20 -31.5 -45t-31.5 -55t-27 -64.5t-18 -72.5
q-9 -54 0.5 -108.5t24.5 -98.5t29.5 -71.5t14.5 -28.5q6 -11 3 -23t-14 -18q-7 -4 -15 -4z" />
    <glyph glyph-name="parenright" unicode=")" horiz-adv-x="275" 
d="M9 -36q-16 0 -25 14q-7 10 -4.5 22t13.5 19q13 9 28 21q13 11 30 26t36 35q17 18 36 41.5t37 51.5t33.5 61t26.5 70q15 53 11.5 108.5t-14 100.5t-22 74t-11.5 30q-5 11 -0.5 22.5t15.5 16.5t23 1t17 -15q1 -2 13.5 -33.5t23.5 -81.5q7 -29 10.5 -57.5t5.5 -55.5
q1 -35 -2.5 -66.5t-11.5 -60.5q-21 -72 -65 -144q-35 -54 -84 -106q-41 -43 -71.5 -65.5t-32.5 -23.5q-8 -5 -16 -5z" />
    <glyph glyph-name="asterisk" unicode="*" horiz-adv-x="435" 
d="M351 406q10 -8 11.5 -20t-6.5 -22t-20 -12t-22 6l-68 53v-64q0 -12 -8.5 -21t-21.5 -9q-12 0 -21 8.5t-9 21.5v77l-69 -49q-10 -8 -22 -6t-20 13q-7 10 -5 22t12 19l78 56l-71 54q-10 8 -11.5 20t6.5 23q8 10 20 11.5t22 -6.5l60 -47v98q-1 12 8 21t21 9q13 0 22 -8.5
t9 -21.5v-93l69 49q10 8 22 6t20 -13q7 -10 5 -22t-13 -20l-89 -63l91 -70v0z" />
    <glyph glyph-name="plus" unicode="+" horiz-adv-x="547" 
d="M437 319q12 0 19 -8.5t4 -21.5q-3 -12 -14.5 -21t-23.5 -9h-112l-28 -109q-3 -12 -13.5 -21t-23.5 -9q-12 0 -19 9t-4 21l28 109h-113q-12 0 -18 9t-3 21q3 13 13.5 21.5t22.5 8.5h113l30 116q3 13 14.5 21.5t23.5 8.5q13 0 19 -8.5t3 -21.5l-30 -116h112v0z" />
    <glyph glyph-name="comma" unicode="," horiz-adv-x="90" 
d="M-74 -116q-10 0 -8 10q5 13 19 16q19 2 40.5 11.5t35 22.5t14 29t-23.5 31q-7 9 3 25.5t28 24.5q12 7 21 7.5t14 -2t8 -6.5t3 -7q0 -31 -12.5 -58.5t-33.5 -49t-48.5 -35.5t-57.5 -19h-2z" />
    <glyph glyph-name="hyphen" unicode="-" horiz-adv-x="523" 
d="M450 252h-285q-13 0 -21.5 9t-8.5 21q0 13 8.5 21.5t21.5 8.5h285q12 0 21 -8.5t9 -21.5q0 -12 -9 -21t-21 -9z" />
    <glyph glyph-name="period" unicode="." horiz-adv-x="135" 
d="M47 -7q-10 0 -18 4t-15 10q-10 12 -10 29t11.5 32t31.5 15t30.5 -15t10.5 -32q0 -8 -2 -16t-8 -13q-12 -14 -31 -14z" />
    <glyph glyph-name="slash" unicode="/" horiz-adv-x="572" 
d="M186 -1q-7 0 -10 1q-13 3 -17.5 14t2.5 24l271 564q7 13 19.5 19t26.5 4q11 -4 16 -14.5t-1 -24.5l-273 -564q-12 -23 -34 -23z" />
    <glyph glyph-name="zero" unicode="0" horiz-adv-x="334" 
d="M126 0q-33 2 -53.5 20.5t-31 45.5t-14 57.5t-3.5 55.5q0 34 7.5 75t21.5 82t35 79.5t48 66.5t61 42.5t73 9.5q29 -4 47.5 -21t28.5 -42t13.5 -55t2 -60t-5.5 -57.5t-9 -46.5q-11 -41 -28.5 -85t-44.5 -81t-63.5 -61t-84.5 -25zM257 480q-24 0 -43 -9t-35 -23t-27.5 -31.5
t-20.5 -33.5q-22 -43 -34.5 -97t-12.5 -108q0 -63 18 -88.5t43.5 -23t54 28.5t50.5 65q24 48 38 105t14 109q0 19 -2.5 38t-7.5 34t-14 24.5t-21 9.5z" />
    <glyph glyph-name="one" unicode="1" horiz-adv-x="164" 
d="M192 559q12 -4 18 -14.5t2 -22.5l-152 -500q-3 -10 -11 -15.5t-18 -5.5q-5 0 -8 1q-12 4 -18 15t-2 22l120 395l-73 -57q-9 -6 -19 -6q-14 0 -23 11q-8 10 -6.5 22t11.5 20l140 111l2 4q3 12 14 18t23 2z" />
    <glyph glyph-name="two" unicode="2" horiz-adv-x="393" 
d="M312 91q9 -8 7.5 -20t-10.5 -22q-14 -16 -36.5 -32t-48.5 -16h-1q-17 1 -30.5 9.5t-25.5 18.5q-14 11 -30 21.5t-42 12.5q-19 1 -41.5 -5t-39.5 -14q-9 -6 -20.5 -14t-22.5 -8q-14 0 -19 9.5t-3 23.5q3 16 16 24t29 15q26 18 72.5 50t96.5 72q62 49 101 86.5t61.5 65.5
t31 46.5t10.5 29.5q2 9 -1 21t-21 23q-12 5 -27.5 3t-31 -8.5t-31.5 -16t-30 -19.5q-17 -12 -31.5 -24.5t-25 -22.5t-17 -16.5l-6.5 -6.5q-10 -10 -22.5 -12t-21.5 5q-8 8 -7.5 19.5t10.5 22.5q1 1 8 8.5t19.5 19t29 25.5t36.5 28q46 34 88 49q58 20 97 1h2l1 -1
q32 -21 39 -47.5t4 -47.5q-11 -60 -85 -142q-28 -30 -65 -63t-83 -69q-18 -14 -35 -27t-34 -25q32 -5 52.5 -18t34.5 -25q7 -6 13.5 -11.5t11.5 -5.5q2 0 9.5 4.5t20.5 18.5q10 11 23 13t21 -6z" />
    <glyph glyph-name="three" unicode="3" horiz-adv-x="328" 
d="M247 546q23 4 48.5 -0.5t46.5 -18t33.5 -35t9.5 -51.5q-6 -60 -91 -131q-12 -11 -23 -19t-21 -16q24 -25 37.5 -57t12.5 -67q-1 -43 -22 -77.5t-57 -54.5q-18 -10 -34 -14t-30 -4t-25.5 3t-20.5 7q-53 24 -89 101q-12 28 -18 48t-6 22q-3 12 3.5 22.5t18.5 13.5
t22.5 -3.5t13.5 -18.5q3 -11 9.5 -30t16.5 -38.5t23.5 -37t30.5 -24.5q24 -12 56 5q23 12 35 33.5t13 47.5q1 31 -15 58t-44 44q-11 6 -14.5 18t3.5 23q8 15 25 15q9 6 26 18t35 28q28 23 46 49t21 46.5t-12 31.5t-54 4q-23 -4 -62.5 -25t-96.5 -77q-8 -8 -20.5 -8t-21.5 8
q-9 9 -8.5 21.5t8.5 21.5q106 105 191 118z" />
    <glyph glyph-name="four" unicode="4" horiz-adv-x="329" 
d="M360 533q12 -4 17.5 -14.5t2.5 -22.5l-83 -262h33q13 0 21.5 -9t8.5 -21q0 -13 -8.5 -21.5t-21.5 -8.5h-52l-48 -154q-3 -10 -11 -15.5t-17 -5.5q-6 0 -9 1q-12 4 -18 15t-2 23l43 136h-186q-12 0 -21 8.5t-9 21.5q0 2 1 5t6 13.5t16 30.5t30.5 55.5t49 89t72.5 131.5
q6 11 18 14.5t23 -2.5t14.5 -18t-2.5 -23l-149 -266h155l88 280q4 12 15 17.5t23 1.5z" />
    <glyph glyph-name="five" unicode="5" horiz-adv-x="275" 
d="M342 553q13 0 21.5 -8.5t8.5 -21.5q0 -12 -8.5 -21t-21.5 -9h-185l-51 -109q29 8 59.5 6.5t59.5 -23.5q21 -17 31.5 -45.5t12 -62.5t-5 -69.5t-19.5 -67.5q-21 -57 -58 -91q-20 -19 -42 -23.5t-46 -4.5q-19 0 -39.5 8.5t-39 23.5t-32.5 34t-20 40q-5 18 0.5 29t15.5 14
t21.5 -2t17.5 -19q5 -11 12 -22.5t16 -21.5t19.5 -16.5t23.5 -7.5q20 -2 36.5 7.5t28.5 23t20 28t11 22.5q11 28 16 56.5t4.5 52.5t-6.5 42t-16 25q-16 12 -32 12.5t-32.5 -4.5t-34.5 -14.5t-37 -18.5q-5 2 -12.5 6t-13.5 9t-9.5 11t1.5 12q36 80 57.5 124.5t34 65.5
t18.5 25.5t11 4.5h204v0z" />
    <glyph glyph-name="six" unicode="6" horiz-adv-x="328" 
d="M152 0q-14 0 -29 3q-66 12 -96 64q-27 43 -25 110q2 54 21.5 118t53.5 124q8 15 23 38t34 45t41 38.5t46 19.5q37 5 58 -5.5t32 -22.5q15 -18 20 -40.5t4.5 -43.5t-3.5 -36.5t-4 -18.5q-3 -12 -13.5 -18.5t-22.5 -2.5q-12 3 -18.5 13.5t-3.5 22.5q2 7 4 19t2 24.5
t-2.5 23.5t-8.5 18q-2 2 -9 6t-27 2q-13 -2 -40 -27t-60 -84q-23 -42 -40 -88q41 27 79 36q38 10 63.5 2.5t39.5 -18.5q43 -32 49 -99q5 -59 -20 -116q-22 -52 -66 -82q-38 -25 -82 -25zM66 211q-2 -9 -2.5 -18t-1.5 -18q-1 -37 7.5 -59t20.5 -33.5t24.5 -15.5t19.5 -5
q25 -5 44 2t32.5 19t22 25.5t12.5 23.5q9 20 13 41.5t2.5 41t-8 35t-17.5 24.5q-19 13 -52 6q-49 -12 -113 -66q-1 -1 -2 -1.5t-2 -1.5z" />
    <glyph glyph-name="seven" unicode="7" horiz-adv-x="234" 
d="M271 553q12 0 19.5 -7.5t11.5 -17t4 -19t-3 -12.5l-238 -479q-8 -16 -27 -16q-7 0 -13 3q-11 5 -15 17t1 23l223 448h-190q-12 0 -21 8.5t-9 21.5q0 12 9 21t21 9h227v0z" />
    <glyph glyph-name="eight" unicode="8" horiz-adv-x="272" 
d="M213 287q17 -15 33 -41q15 -26 21.5 -57t2.5 -61q-6 -55 -46 -89q-43 -37 -114 -37q-69 0 -102 33q-30 30 -25 83q3 29 18 62t39 61q17 20 35 34t36 23q-26 23 -39.5 61.5t-8.5 76.5q6 49 42 80q38 34 103 34q60 0 92 -30q28 -28 23 -75q-3 -27 -16.5 -55.5t-35.5 -54.5
q-26 -32 -58 -48zM142 473q-16 -13 -19 -37q-2 -17 2.5 -36t12.5 -35q10 -16 19.5 -23t16.5 -7q12 0 26.5 10.5t28 26t23 35t11.5 37.5q1 20 -9 32q-16 14 -53 14q-20 0 -35 -4t-24 -13zM188 82q19 17 22 46q3 20 -2 42.5t-16 41.5q-10 17 -21 26.5t-22 9.5h-1
q-13 -1 -30 -12t-34 -30q-17 -20 -28.5 -43.5t-13.5 -43.5q-1 -5 -0.5 -14.5t7 -19t22.5 -16.5t46 -7q46 0 71 20z" />
    <glyph glyph-name="nine" unicode="9" horiz-adv-x="375" 
d="M138 2q-27 0 -44 9t-26 20q-16 17 -21.5 39.5t-5.5 43.5t3 37t4 19q3 12 14 18.5t23 3.5q12 -4 18 -14.5t3 -22.5q-2 -8 -3.5 -19.5t-1.5 -23.5t3 -23t9 -18q2 -2 9 -6t27 -2q12 2 39 27.5t59 85.5q11 20 19.5 39.5t16.5 39.5q-29 -13 -54 -18t-45 -5q-33 0 -55 10.5
t-34 21.5q-39 36 -44 97q-2 27 3.5 55t17.5 53q25 49 67 75q49 29 109 18q65 -11 98 -62q26 -45 25 -110q-1 -54 -20 -118t-51 -125q-8 -15 -22.5 -38t-33.5 -45.5t-41 -39.5t-46 -20q-5 -1 -9.5 -1.5t-9.5 -0.5zM218 505q-21 0 -36.5 -7t-26.5 -17t-18 -20.5t-11 -17.5
q-18 -37 -15.5 -75.5t24.5 -58.5q21 -20 57 -17q47 3 113 42v1q6 28 6 56q1 37 -8 59t-21 33.5t-24.5 15t-19.5 4.5q-5 1 -10 1.5t-10 0.5z" />
    <glyph glyph-name="colon" unicode=":" horiz-adv-x="179" 
d="M139 291q-14 0 -22 9t-8 21t8 22.5t22 10.5t21.5 -10.5t7.5 -22.5q0 -13 -8.5 -21.5t-20.5 -8.5zM89 51q-14 0 -22 9t-8 21t8 22.5t22 10.5t21.5 -10.5t7.5 -22.5q0 -13 -8.5 -21.5t-20.5 -8.5z" />
    <glyph glyph-name="semicolon" unicode=";" horiz-adv-x="180" 
d="M21 -25q-8 0 -6 8q3 10 14 12q14 2 30.5 9t27 17.5t10.5 23t-18 24.5q-5 7 2 19.5t21 19.5q19 10 26.5 4t8.5 -10q0 -24 -9.5 -45.5t-25.5 -38.5t-37 -28t-43 -15h-1zM149 276q-13 0 -23 10q-7 9 -7 20q0 12 8 22.5t22 10.5t21.5 -10.5t7.5 -22.5q0 -13 -7 -20
q-8 -10 -22 -10z" />
    <glyph glyph-name="less" unicode="&#x3c;" horiz-adv-x="350" 
d="M258 25q-7 0 -14 5q-18 11 -37 23q-17 11 -37.5 23.5t-42.5 26.5q-26 17 -46.5 30.5t-35.5 24.5q-29 20 -38.5 31t-10.5 22q-1 12 5 20.5t14 15.5q6 5 13.5 11t18.5 13q16 12 37.5 27.5t50.5 34.5q24 16 47 30.5t41 26t29 18.5l11 7q10 7 21 4t17 -13t3.5 -20.5
t-12.5 -16.5q-17 -11 -36 -23q-17 -11 -37.5 -24.5t-42.5 -27.5q-50 -32 -76 -51t-38 -29q11 -9 35 -25.5t69 -45.5q21 -13 40 -25t34 -21t24 -14.5l9 -5.5q10 -7 12.5 -17.5t-3.5 -20.5q-9 -14 -24 -14z" />
    <glyph glyph-name="equal" unicode="=" horiz-adv-x="531" 
d="M438 282h-285q-13 0 -21.5 9t-8.5 21q0 13 8.5 21.5t21.5 8.5h285q12 0 21 -8.5t9 -21.5q0 -12 -9 -21t-21 -9zM396 163h-285q-12 0 -21 8.5t-9 21.5t9 21.5t21 8.5h285q13 0 21.5 -8.5t8.5 -21.5t-8.5 -21.5t-21.5 -8.5z" />
    <glyph glyph-name="greater" unicode="&#x3e;" horiz-adv-x="341" 
d="M101 393q8 0 12 -6q15 -11 33 -23q15 -11 34 -24.5t39 -27.5q23 -17 41 -31.5t32 -25.5q25 -21 33.5 -32t6.5 -22q-2 -12 -9 -20.5t-16 -15.5q-7 -5 -15.5 -10.5t-20.5 -12.5q-17 -12 -41.5 -27t-56.5 -33q-26 -15 -51 -29.5t-44.5 -25.5t-32 -17.5l-12.5 -6.5
q-11 -7 -21 -3.5t-14 13.5q-5 10 -0.5 20.5t15.5 16.5q19 11 39 22q17 10 39.5 23t47.5 27q54 31 83.5 49.5t42.5 27.5q-10 10 -31 27t-60 47q-19 13 -36 25.5t-30.5 22t-22 15l-8.5 5.5q-8 7 -9.5 17.5t6.5 20.5q10 14 27 14z" />
    <glyph glyph-name="question" unicode="?" horiz-adv-x="411" 
d="M46 104q-4 0 -7 1q-11 3 -15 14t0 22q16 53 39.5 95.5t49.5 78t53 64t51 54.5q24 24 42 43t29.5 36t16 34t1.5 35q-8 17 -16.5 22t-14.5 6q-16 2 -40.5 -12t-53.5 -41q-26 -22 -42 -41t-17 -19q-7 -10 -18 -11.5t-19 6.5t-8.5 20t7.5 21q2 1 19.5 22t44.5 47
q80 72 136 66q17 -2 37.5 -13.5t34.5 -46.5l1 -3v-3q7 -31 0.5 -60t-24.5 -58q-16 -24 -37 -46t-44 -47q-25 -24 -50 -51t-48.5 -58.5t-44 -69.5t-35.5 -85q-8 -22 -28 -22zM27 -8q-17 0 -28 14q-3 4 -6 10.5t-3 12.5q0 14 10 27t27 13t26 -13t9 -27q0 -6 -2 -12.5t-7 -10.5
q-8 -14 -26 -14z" />
    <glyph glyph-name="at" unicode="@" horiz-adv-x="742" 
d="M134 322q0 54 20.5 101t55.5 82t81.5 55t99.5 20t100 -20t82 -55t55 -82t20 -101q0 -53 -20 -99.5t-55 -81.5t-82 -55t-100 -20t-99.5 20t-81.5 55t-55.5 81.5t-20.5 99.5zM173 322q0 -46 17.5 -86t48 -70t71 -47t86.5 -17q45 0 85 17t70 47t47 70t17 86t-17 86.5
t-47 70.5t-70 47t-85 17q-46 0 -86.5 -17t-71 -47t-48 -70.5t-17.5 -86.5zM536 386q7 -3 10 -10.5t0 -14.5q-1 -2 -9.5 -22t-24.5 -49q-11 -19 -21 -33t-19 -24q-28 -31 -55 -31q-17 0 -28 14q-7 10 -7 31q-13 -17 -28.5 -31.5t-34.5 -14.5q-7 0 -10 1q-29 6 -40 38
q-7 23 -4 57q3 26 13 55.5t25 54t34.5 41t40.5 16.5q3 0 5.5 -0.5t5.5 -0.5q26 -8 35 -37q0 -1 1 -1t1 -1q2 7 4.5 13t4.5 10t3 8q3 8 10.5 11t13.5 0q8 -3 11.5 -10t0.5 -14l-3.5 -8t-8.5 -21.5t-10.5 -30.5t-11.5 -35q-9 -28 -13.5 -47t-6.5 -31.5t-1.5 -19t1.5 -9.5
q1 -5 7.5 -1t15.5 14t19 24.5t19 31.5q7 11 13 22.5t11 21.5q5 11 9 22q6 16 22 11zM358 282q12 23 20.5 48t11.5 48q1 15 -0.5 30.5t-9.5 17.5h-2q-7 0 -17 -9t-24 -32q-13 -20 -21.5 -45t-10.5 -48q-1 -5 -1.5 -13t0.5 -16t4 -15t11 -9q5 0 15 10t24 33z" />
    <glyph glyph-name="A" unicode="A" horiz-adv-x="486" 
d="M599 682q9 -6 8 -24t-8 -44.5t-18.5 -59.5t-25 -68.5t-26.5 -71.5t-22 -69h4q13 0 21.5 -9t8.5 -22q0 -12 -8.5 -21t-21.5 -9h-21q-15 -52 -27.5 -98t-21.5 -81t-14 -56t-5 -22q-4 -12 -14.5 -18t-22.5 -2q-12 3 -18 14t-3 23q0 1 4.5 20t13 51.5t20 76t25.5 92.5h-201
q-41 -60 -79.5 -117.5t-69 -103.5t-49.5 -74t-19 -29q-10 -15 -26 -15q-8 0 -15 4q-11 6 -14 18t3 23l16.5 25t44.5 66.5t63 94t73 108.5h-110q-12 0 -21 9t-9 21q0 13 9 22t21 9h150q54 75 106 139.5t94 105.5q28 28 55 49q-36 0 -68 -5.5t-59 -17.5q-17 -8 -28.5 -16.5
t-19.5 -15.5q-9 -8 -15 -16q-5 -1 -11 -1q-5 0 -11.5 1.5t-13.5 6.5q-9 7 -13 16q-2 4 -2 8q-3 12 17 27.5t53.5 30.5t77 27t88 17t85.5 1.5t70 -20.5zM444 345q12 39 24.5 78.5t24.5 75.5t22.5 67t16.5 53q-15 -6 -39 -23t-57 -49t-75 -81.5t-93 -120.5h176z" />
    <glyph glyph-name="B" unicode="B" horiz-adv-x="551" 
d="M543 510q-23 -106 -122 -169q19 -8 35 -18q66 -47 52 -135q-17 -105 -99 -151q-59 -33 -146 -33q-55 0 -119 12q-30 6 -56.5 13.5t-46 13.5t-31.5 10.5t-13 5.5q-11 5 -16.5 16.5t-0.5 23.5t17 17t24 0l18.5 -7t48 -15.5t67.5 -16.5t77.5 -11t77.5 2t69 22q56 33 68 108
q7 50 -27 75q-21 14 -52 18.5t-66 -0.5q-11 -2 -19 -3.5t-16 -3.5q-13 -4 -26 -9t-24 -12l-45 -155q-3 -11 -11.5 -16.5t-18.5 -5.5q-6 0 -9 1q-13 3 -19 14.5t-2 23.5l133 461q5 13 15.5 19t22.5 3q13 -4 19 -15t3 -23l-66 -229q3 1 6.5 1.5t8.5 0.5q8 3 16.5 4.5t17.5 3.5
q14 4 28 9t29 11q117 50 137 151q12 59 -33 92q-34 26 -84.5 25.5t-97.5 -26.5q-33 -18 -63.5 -43.5t-53.5 -49t-37.5 -40.5l-14.5 -17q-8 -10 -20.5 -11.5t-22.5 6.5q-11 8 -12 20.5t7 22.5q1 1 16.5 20t41 44.5t59 53.5t70.5 48q63 35 133 33t116 -37q36 -26 51 -66t6 -87
z" />
    <glyph glyph-name="C" unicode="C" horiz-adv-x="357" 
d="M373 234q8 10 18 14t19 2.5t15.5 -7.5t6.5 -15q-17 -36 -52.5 -75.5t-80.5 -72.5t-96.5 -54.5t-99.5 -21.5q-50 0 -77 32t-35 84t1.5 118t32 134t57 131.5t76.5 111.5t90 73.5t99 16.5q31 -5 51 -23t28 -43.5t4 -55.5t-21 -59q-10 -11 -26 -19t-30.5 -9.5t-24.5 5
t-9 23.5q10 12 22.5 30.5t18.5 37.5t2.5 33.5t-24.5 17.5q-42 6 -78.5 -15.5t-67.5 -59.5t-56.5 -88t-43.5 -101t-29.5 -97.5t-15.5 -78.5q-2 -17 -2 -40.5t5.5 -45.5t18.5 -37.5t39 -15.5q35 0 75.5 16t77.5 40.5t67 54.5t45 59z" />
    <glyph glyph-name="D" unicode="D" horiz-adv-x="475" 
d="M115 104q-5 0 -8 1q-12 3 -17.5 14.5t-1.5 22.5l118 426q4 11 14 18t22 2q11 -4 16.5 -14t3.5 -23l-120 -424q-6 -23 -27 -23zM478 609q19 -39 23.5 -87t-4.5 -100t-30.5 -105.5t-55.5 -101.5q-36 -51 -81.5 -92t-99.5 -68q-48 -25 -100.5 -37t-109.5 -12q-29 0 -59 3
q-12 2 -19.5 11t-5.5 21t11 19.5t21 5.5q82 -9 147 7.5t113.5 46t82.5 64.5t54 64q28 42 47 88t27.5 90t5 84.5t-18.5 70.5q-30 62 -99 65q-23 1 -51.5 -5.5t-62 -26.5t-72.5 -56.5t-82 -95.5l-4.5 -7.5t-3.5 -4.5q-8 -8 -20.5 -8t-20.5 8t-8.5 20t7.5 20q1 2 2 3.5t3 3.5
q11 15 38 49.5t67 70.5q108 91 211 87q26 -2 48 -8t41 -20q37 -24 59 -67z" />
    <glyph glyph-name="E" unicode="E" 
d="M100 3q-54 0 -92 41q-36 38 -33 85q1 29 16 57t37 53.5t47 47.5t46 40q6 5 12.5 10.5t12.5 10.5q-45 64 -36 140q11 77 68 134q20 22 45 36.5t50 19.5q30 7 58 0.5t50 -24.5q21 -17 33 -39t12 -48q2 -52 -42 -108q-15 -22 -27 -35t-13 -13q-9 -8 -21.5 -7t-20.5 9
q-8 9 -7 21.5t9 20.5q7 6 17.5 18t21 27t17.5 32t7 33q0 25 -22 45q-15 11 -31.5 13t-33 -3t-33 -15.5t-29.5 -23.5q-19 -20 -32.5 -45.5t-17 -54t4.5 -58t31 -57.5l7 -8v-10q0 -16 -12 -29t-41 -36q-17 -15 -38.5 -33.5t-40 -39.5t-32 -42.5t-14.5 -41.5q-1 -24 17 -42
q23 -25 54 -23q35 2 79 30.5t96 79.5q21 20 38 39t29.5 34.5t19.5 25l7 9.5q8 10 20 12t21 -6q10 -8 12 -19.5t-6 -21.5q0 -1 -8 -11t-21 -25.5t-31.5 -36t-39.5 -41.5q-121 -121 -212 -127h-8z" />
    <glyph glyph-name="F" unicode="F" horiz-adv-x="352" 
d="M527 708q11 -8 13 -20.5t-5 -23.5q-23 -30 -68 -46t-116 -18q-28 -1 -56.5 -0.5t-56.5 2.5l-55 -256q34 -2 57 0t37 5.5t21 7.5t9 6q9 9 22 9t23 -9q9 -10 9.5 -23t-9.5 -23q-37 -37 -140 -37q-11 0 -21.5 0.5t-21.5 1.5l-55 -258q-2 -11 -10.5 -17t-19.5 -6q-6 0 -9 1
q-12 3 -19 14t-5 24l54 247q-31 4 -50 8t-21 5q-13 2 -20.5 13t-5.5 23q2 13 12.5 20.5t23.5 4.5q1 0 22.5 -4t52.5 -8l56 258q-17 1 -30 3q-22 2 -39 3.5t-28 1.5q-26 0 -46 -14.5t-34 -31.5t-21.5 -31.5t-7.5 -15.5q-9 -17 -30 -17q-6 0 -12 3q-13 5 -17.5 17t0.5 26
q0 2 11 22t31.5 43.5t51.5 42.5t72 19q12 0 30.5 -2t42.5 -4q42 -4 94.5 -8.5t103.5 -2.5q33 1 57 5t39.5 10t24.5 13t14 13q9 10 22 11.5t23 -7.5z" />
    <glyph glyph-name="G" unicode="G" horiz-adv-x="439" 
d="M267 274q-11 0 -16 9.5t-5 20.5t5 20.5t16 9.5h185q10 0 15.5 -9.5t5.5 -20.5t-5.5 -20.5t-15.5 -9.5h-35q-15 -57 -33 -124.5t-53 -158.5q-24 -60 -46.5 -107t-42.5 -82q-30 -51 -58 -75t-56 -24q-33 0 -53.5 22.5t-20.5 59.5q0 32 15.5 66.5t42.5 61.5q15 16 32.5 28
t37.5 21q19 8 38.5 12.5t41.5 6.5q1 4 6 14t11 24l13.5 31.5t14.5 35.5q-53 -45 -98 -58.5t-80.5 -3.5t-60.5 40.5t-38.5 74t-14 96.5t12.5 109q9 34 18.5 64t22 57t28 53t35.5 52q57 73 119.5 104.5t125.5 18.5q27 -6 39.5 -19.5t17.5 -26.5q18 -46 -28 -126
q-14 -27 -28 -45.5t-14 -20.5q-8 -10 -20 -11.5t-22 6.5q-11 8 -12.5 20.5t6.5 21.5q0 2 12.5 18.5t25.5 39.5q22 40 23 57t0 19q0 2 -2.5 4t-10.5 4q-30 6 -57.5 -2.5t-51.5 -25t-43 -36.5t-32 -37q-18 -24 -32 -46.5t-25 -47t-19.5 -51.5t-16.5 -59q-8 -35 -12 -79t4 -83
t31.5 -66t68.5 -27q22 0 44.5 11t42.5 28.5t37 40t29 45.5l24 75h-89zM190 -168q11 17 21.5 38t21.5 46q-27 -7 -46.5 -19.5t-31.5 -25.5q-23 -23 -32 -46.5t-9 -39.5q0 -17 5 -19.5t9 -2.5q2 0 8 3t14 11q19 19 40 55z" />
    <glyph glyph-name="H" unicode="H" horiz-adv-x="459" 
d="M469 342q13 0 21.5 -9t8.5 -21q0 -13 -8.5 -21.5t-21.5 -8.5h-108q-5 -24 -8.5 -46t-5.5 -42q-9 -95 17 -144q23 -39 70 -45q12 -2 20 -11.5t6 -21.5q-2 -11 -10.5 -18.5t-19.5 -7.5h-4q-40 5 -69 25q-29 19 -45 50q-48 85 -12 261h-140l-2 -6l-2 -6q-16 -51 -33 -98
t-30.5 -83t-22 -58l-8.5 -22q-8 -18 -28 -18q-8 0 -11 2q-12 5 -17 16.5t0 22.5l8.5 21t21.5 55.5t29 79.5t32 94h-24q-12 0 -21 8.5t-9 21.5q0 12 9 21t21 9h42q22 72 33 124t15 86.5t2.5 53t-4.5 24.5q-2 6 -5 6q-8 3 -20.5 2t-31.5 -15q-14 -11 -28.5 -28.5t-28.5 -41.5
q-13 -21 -23.5 -42.5t-18 -38.5t-11.5 -28l-4 -11q-4 -11 -15 -17t-23 -1q-11 4 -17 15t-1 23q0 1 4.5 13t12.5 30.5t19.5 41.5t25.5 46q35 58 72 86q33 26 61 28t47 -5q9 -3 20 -11.5t19 -26.5q22 -47 1 -160q-3 -15 -7 -33.5t-9.5 -39l-11 -41t-10.5 -39.5h135q4 14 8 29
t9 30q15 48 32 97.5t32 89t25 65.5t11 28q5 11 16.5 15t22.5 -1t15.5 -16.5t-0.5 -23.5l-10 -25t-24.5 -64t-31.5 -87.5t-31 -94.5q-6 -23 -12 -42h94v0z" />
    <glyph glyph-name="I" unicode="I" horiz-adv-x="337" 
d="M88 -5q-7 0 -11 3q-11 5 -15 17t1 23l10.5 30t26.5 75.5t34 101t35 108.5q23 71 33.5 122.5t12 85.5t-4 52t-14.5 22q-3 1 -6.5 1t-10.5 -2q-5 -2 -13 -8t-18.5 -18t-23.5 -31t-28 -47q-17 -35 -28 -62t-12 -27q-5 -12 -16 -18t-22 -1q-11 4 -16 15t0 24q0 2 11.5 30.5
t31.5 66.5q57 106 112 132q35 15 66 2q11 -6 24 -19.5t21 -41.5q5 -17 6 -39t-1 -48q-5 -40 -16.5 -92.5t-31.5 -116.5q-17 -54 -35.5 -110t-34.5 -102t-26.5 -76t-11.5 -32q-9 -20 -29 -20z" />
    <glyph glyph-name="J" unicode="J" horiz-adv-x="293" 
d="M8 -189q-55 0 -81 48q-12 19 -16.5 44t-2 52.5t11 55.5t23.5 54q19 31 48 56t64 43t73.5 28t77.5 11l4 13q17 61 28 117.5t13 102.5q2 50 -4.5 74.5t-14.5 29.5q-18 11 -34 5q-19 -7 -40 -32t-41 -65q-16 -34 -26 -60q-5 -14 -10 -27q-4 -12 -15 -18t-23 -2q-11 4 -17 15
t-2 23q0 2 10.5 30t28.5 65q53 106 114 127q45 17 88 -11q29 -18 40 -66q9 -36 6 -91q-2 -49 -13.5 -109t-30.5 -125q-22 -74 -49.5 -140.5t-57.5 -118.5q-77 -129 -152 -129zM-5 35q-19 -46 -24 -85.5t7 -60.5q10 -18 30 -18q18 0 43 23q14 14 28.5 32.5t29.5 44.5
q20 35 39.5 78t36.5 92q-30 -4 -60.5 -13.5t-56.5 -24t-45.5 -32t-27.5 -36.5z" />
    <glyph glyph-name="K" unicode="K" horiz-adv-x="429" 
d="M479 -16q2 -12 -5.5 -22t-20.5 -12q-8 -1 -16.5 -1.5t-17.5 -0.5q-68 0 -119.5 29.5t-89.5 76.5t-65 105.5t-46 115.5q-12 -50 -24.5 -95.5t-22.5 -81t-17 -56.5l-7 -21q-2 -10 -10 -15.5t-18 -5.5q-2 0 -4.5 0.5t-4.5 0.5q-12 4 -18 15t-2 23l7.5 23.5t18.5 62t24 87.5
t26 102q15 61 24 111.5t14 90.5q7 55 3.5 76t-5.5 25q-22 2 -52.5 -23.5t-65.5 -74.5q-15 -22 -28 -43t-22.5 -38t-15 -28l-5.5 -11q-5 -11 -17 -15t-23 1t-15 17t1 23q0 1 6 12.5t15.5 29.5t23 40.5t30.5 45.5q40 56 78 88q54 44 103 35q8 -1 18.5 -6.5t19.5 -19.5
q23 -39 10 -151q-3 -25 -8 -53t-11 -60l319 267q9 8 21.5 7t20.5 -11q8 -9 7 -21.5t-11 -20.5l-338 -282q7 -20 19 -53t29.5 -70.5t41 -74.5t54.5 -65.5t70 -43.5t87 -8q12 2 22 -5.5t12 -20.5z" />
    <glyph glyph-name="L" unicode="L" horiz-adv-x="398" 
d="M420 118q11 -4 17 -15t2 -23q-18 -52 -100 -72q-44 -9 -104 -9h-19.5t-19.5 1q-36 1 -69.5 5t-60 7.5t-43 6.5t-17.5 3q-12 2 -19 12.5t-5 22.5q3 13 13 19.5t23 4.5q4 -1 9 -2t11.5 -2t14.5 -2q3 9 14.5 38.5t26.5 71t31 89.5t29 94q19 69 27.5 119t9 83t-5.5 50.5
t-16 21.5q-3 1 -7 1.5t-11 -2.5q-5 -2 -12.5 -8t-17.5 -17t-22 -29.5t-26 -46.5q-9 -17 -16 -32.5t-12 -27.5q-6 -14 -10 -26t-15 -17.5t-23 -1.5t-17.5 15t-0.5 23q0 2 10.5 30t29.5 64q52 103 107 129q35 14 67 1q12 -5 26.5 -18.5t22.5 -40.5q10 -33 9 -83
q-5 -81 -39 -204q-12 -41 -26 -84.5t-28 -83t-26 -70.5t-18 -46q20 -2 41.5 -4t43.5 -3q40 -2 71.5 0t55.5 7q17 4 34 11.5t22 20.5q4 12 15 18t23 1z" />
    <glyph glyph-name="M" unicode="M" horiz-adv-x="826" 
d="M860 536q-11 -42 -26.5 -90t-31.5 -98t-30.5 -99t-24.5 -93q-5 -22 -8 -46.5t1.5 -47t19 -40t43.5 -23.5q12 -2 18.5 -12.5t3.5 -22.5q-2 -11 -10 -17.5t-19 -6.5q-28 0 -57 20t-43 46q-20 35 -18.5 77.5t10.5 86.5q10 45 25 94t31 99t31.5 98t26.5 90q9 35 8 50t-4 20
q-1 1 -3 2.5t-9 3.5q-3 0 -12 -2t-26.5 -15.5t-44 -43t-64.5 -84.5q-25 -36 -49.5 -75.5t-48 -79.5t-45.5 -78.5t-40 -71.5q-17 -30 -31 -55t-25 -43q-6 -11 -10.5 -18t-8.5 -12q-2 -3 -5.5 -7t-8.5 -8t-12 -5.5t-15 0.5q-11 2 -17.5 10.5t-5.5 19.5q0 7 1 11l7.5 22.5
t19.5 59t27 84t30 98.5q17 60 30 109t21 87q8 36 10.5 58t3.5 33q-8 -5 -19 -14t-25 -24q-20 -21 -43.5 -51.5t-49.5 -69.5q-50 -74 -97.5 -156t-87.5 -153q-19 -33 -34.5 -60.5t-27.5 -47.5q-15 -24 -22 -33q-4 -5 -12 -14t-22 -9q-2 0 -3.5 0.5t-3.5 0.5q-14 3 -20 16
q-6 10 -4.5 23.5t10.5 42.5q5 18 13 41.5t18 52.5l43.5 130.5t40.5 137.5q13 51 18 84t5.5 53t-2 29t-4.5 12q-1 2 -3 2h-1h-1q-20 5 -51 -15.5t-67 -62.5q-16 -18 -30 -36t-24 -32t-16 -23l-6 -9q-6 -11 -18 -14t-23 4t-13.5 18.5t4.5 22.5q0 1 6.5 11t17 25t25.5 33.5
t32 38.5q42 48 78 72q53 35 96 26q28 -4 45 -29q17 -28 15 -82t-25 -143q-11 -44 -25 -89l-28 -90q35 63 74 129t80 126q64 96 112 142t86 51q24 2 36 -15q5 -6 8.5 -16t4.5 -25.5t-2 -39.5t-10 -58q-8 -39 -21 -90t-31 -114q-2 -9 -5 -18.5t-5 -17.5q31 55 66 113t70 109
q67 97 117 137.5t92 32.5q23 -5 35 -15.5t17 -20.5q11 -20 11.5 -47t-9.5 -67z" />
    <glyph glyph-name="N" unicode="N" horiz-adv-x="481" 
d="M474 -71q-2 0 -3.5 0.5t-3.5 0.5q-67 15 -94 66q-16 31 -18 77q0 42 7 84t18.5 83t25.5 81t29 78q6 17 17 44.5t20.5 57t14 56.5t-2.5 43q-1 1 -3 2.5t-9 3.5q-3 1 -12 -1t-26.5 -16t-44.5 -43.5t-65 -84.5q-24 -36 -49 -75.5t-48 -79.5t-45 -78.5t-40 -71.5
q-17 -30 -31 -55t-25 -43l-10.5 -17.5t-9.5 -12.5q-3 -5 -11.5 -13t-21.5 -8q-5 0 -7 1q-14 3 -21 15q-6 11 -4 24.5t11 41.5q5 19 13 42.5t18 51.5q20 60 43.5 131t40.5 138q13 51 18 84t5.5 52.5t-2 28.5t-4.5 12q-1 2 -1.5 2t-1.5 1h-1h-2q-19 5 -50 -16t-67 -63
q-16 -18 -30 -35.5t-24 -32t-16 -23.5l-6 -9q-6 -11 -18 -13.5t-23 4.5q-11 6 -13.5 18t3.5 23q1 1 7.5 10.5t17 24.5t25 34t31.5 39q21 23 41 41t38 31q53 35 96 26q30 -5 45 -30q17 -28 15 -81.5t-25 -142.5q-11 -42 -24 -86t-27 -86q32 57 68 116.5t73 113.5
q67 97 116.5 137.5t91.5 32.5q23 -5 35 -15.5t18 -20.5q13 -25 11 -59t-11.5 -69t-22.5 -68t-22 -55q-12 -32 -29.5 -80t-31 -99t-17.5 -98t13 -77q15 -28 54 -35q12 -3 19 -13.5t4 -22.5q-2 -11 -10 -17.5t-19 -6.5z" />
    <glyph glyph-name="O" unicode="O" horiz-adv-x="366" 
d="M410 284q5 4 11 5q5 1 11.5 -0.5t14.5 -8.5q8 -8 10.5 -13.5t2.5 -10.5t-3 -10q-1 -1 -13.5 -14t-35 -28.5t-55 -28t-73.5 -12.5h-3q-38 -71 -84 -113q-59 -54 -124 -54h-8q-66 3 -100 67q-26 52 -23 134q2 72 24 153t58 153l2 2q1 3 2 5.5t3 5.5q48 87 104.5 133
t116.5 46h8q33 -3 56 -22q20 -17 34 -48q23 -52 20 -132q-2 -63 -18 -133.5t-42 -134.5q33 6 64 25q20 12 30 23t11 11h-1zM248 635q-42 0 -86 -38.5t-82 -109.5q5 -17 17.5 -52t32.5 -75q15 -29 30 -52.5t31 -40.5q25 -27 51 -38q29 63 45.5 132.5t18.5 132.5q2 69 -15 107
q-9 22 -19.5 27.5t-18.5 6.5h-5zM153 95q16 15 32 35t30 45q-76 34 -139 159q-10 20 -18 38.5t-14 35.5q-21 -54 -33 -108.5t-14 -104.5q0 -19 1.5 -42.5t8.5 -44.5t20.5 -36t36.5 -16h5q42 0 84 39z" />
    <glyph glyph-name="P" unicode="P" horiz-adv-x="440" 
d="M485 586q19 -45 8 -102q-24 -128 -116 -190q-47 -32 -97 -42t-88 -10q-27 0 -44.5 2.5t-19.5 2.5q-1 0 -1.5 0.5t-1.5 0.5l-69 -237q-7 -22 -29 -22q-5 0 -8 1q-12 4 -18 14.5t-2 22.5l157 544q3 12 14 18t23 2q12 -3 18 -14t2 -23l-72 -248q6 -1 27 -3t50 0t62.5 10.5
t63.5 29.5q72 51 90 152q4 23 2 41.5t-8.5 32.5t-16 24t-19.5 17q-20 15 -46.5 22.5t-55.5 7.5t-59.5 -8t-58.5 -23q-39 -21 -75 -51.5t-64 -58.5t-45 -48l-17 -20q-8 -10 -20 -11.5t-22 6.5t-11.5 20t6.5 22q1 2 19.5 23.5t48.5 51.5t69 62.5t82 56.5q36 19 74.5 29t76 9.5
t72 -11t62.5 -30.5q40 -29 57 -73z" />
    <glyph glyph-name="Q" unicode="Q" horiz-adv-x="467" 
d="M465 128q11 -5 15 -17t-1 -23q-1 -1 -11.5 -20.5t-28.5 -42.5q-50 -64 -103 -64q-6 0 -9 1q-45 4 -78 56q-1 2 -1.5 2.5t-1.5 2.5q-38 -21 -78 -21h-8q-67 5 -99 68q-27 50 -24 133q1 37 7.5 78t18 82.5t27.5 82t36 76.5q48 87 104.5 133t116.5 46h8q33 -3 56 -22
q22 -19 35 -48q22 -52 19 -133q-1 -38 -7.5 -79t-17 -82t-25.5 -80.5t-33 -75.5q-39 -77 -87 -122q11 -20 20.5 -28.5t17.5 -9.5q12 -2 27 9t32 31q8 10 13.5 19t10.5 17q5 9 9 17q5 11 17 15t23 -1zM168 62q26 0 52 15q-3 8 -6 16.5t-6 17.5q-8 24 -13 46.5t-8.5 40
t-5.5 28.5t-2 12q-2 13 5.5 22.5t20.5 11.5q12 2 22 -5.5t12 -19.5l1.5 -10.5t5 -27t8.5 -37.5t12 -43q1 -3 1.5 -5.5t1.5 -5.5q16 18 31 40.5t29 49.5q33 66 53.5 144t22.5 148q2 69 -15 107q-9 22 -19.5 27.5t-18.5 6.5h-5q-42 0 -86 -38.5t-82 -109.5q-18 -33 -33 -70
t-25.5 -75t-16.5 -75.5t-7 -71.5q0 -19 1.5 -42.5t8 -44.5t20 -36t36.5 -16h5z" />
    <glyph glyph-name="R" unicode="R" horiz-adv-x="416" 
d="M409 10q11 5 22.5 -0.5t15.5 -17.5q5 -12 -0.5 -23t-17.5 -15q-65 -24 -111 -10.5t-80 50.5t-59.5 92t-50.5 115l-55 -179q-6 -22 -29 -22q-5 0 -8 1q-12 4 -18 14.5t-2 22.5l157 534q3 12 14 18t23 2t18 -14.5t2 -22.5l-71 -247q7 0 20.5 1t31 3t38.5 6.5t42 12.5
q137 47 160 165q5 23 3 41t-8.5 32t-16 24t-18.5 17q-21 15 -47.5 23t-55.5 8t-60 -8t-59 -23q-39 -21 -75 -51.5t-64 -58.5t-45 -48l-17 -20q-8 -10 -20 -11.5t-22 6.5t-11.5 20t6.5 22q1 2 19.5 23.5t48.5 51.5t69 62.5t82 56.5q73 40 153 38q78 -2 134 -42q39 -30 56 -73
q18 -46 7 -102q-15 -75 -66 -128t-135 -82q-41 -14 -76.5 -19t-57.5 -7q16 -47 32 -97t41 -87.5t63 -54.5t98 1z" />
    <glyph glyph-name="S" unicode="S" horiz-adv-x="326" 
d="M13 212q-2 12 4.5 23t18.5 14q12 4 23 -2t13 -18q3 -19 8.5 -50t16.5 -58.5t28 -44.5t43 -8q21 9 27 39t4 66.5t-8 73.5t-9 61q-6 38 -13 79t-9 82.5t3.5 81t23.5 73.5q22 46 56.5 64.5t70.5 15t69.5 -28t53.5 -64.5q12 -23 17.5 -40.5t6.5 -18.5q4 -11 -2.5 -22.5
t-19.5 -16.5q-11 -5 -21.5 0.5t-14.5 17.5q-3 9 -9 25t-15.5 33t-22.5 31.5t-28 21.5q-37 14 -58.5 0t-32 -44t-12 -71t1 -81t7.5 -74t7 -49q5 -34 12.5 -80.5t6 -92t-17.5 -83.5t-59 -55q-30 -12 -54.5 -8t-43.5 19t-32.5 38.5t-22.5 50t-13 53t-4 47.5z" />
    <glyph glyph-name="T" unicode="T" horiz-adv-x="184" 
d="M614 705q13 0 22 -8.5t9 -21.5q0 -12 -9 -21t-22 -9h-373l-171 -620q-7 -22 -29 -22q-2 0 -4.5 0.5t-4.5 0.5q-11 4 -17.5 15t-2.5 23l167 603h-92q-25 0 -45 -13.5t-34 -29.5t-22 -29.5l-8 -13.5q-8 -18 -27 -18q-7 0 -13 3q-11 5 -15 17t1 23q1 2 11.5 21t31 41.5
t51 40.5t69.5 18h527v0z" />
    <glyph glyph-name="U" unicode="U" horiz-adv-x="487" 
d="M417 404q-15 -54 -25 -100.5t-13 -86.5q-9 -93 17 -136q19 -33 62 -36q12 -2 20 -11t7 -22q-1 -11 -9.5 -19t-20.5 -8h-2q-36 3 -63.5 19.5t-44.5 45.5q-30 47 -28 130q-5 -8 -10 -14.5t-10 -14.5q-22 -32 -42.5 -57t-40.5 -42q-50 -46 -93 -46h-10h-1l-1 1q-41 8 -61 42
q-14 25 -16.5 61t8.5 90q8 42 22 88.5t28 93.5q15 48 28.5 93t18.5 80q3 17 3.5 30t-1.5 22q-2 8 -4 9.5t-3 2.5q-17 6 -37 -2q-24 -11 -52 -43t-56 -82q-22 -41 -35 -71.5t-13 -31.5q-5 -11 -16 -16.5t-23 -0.5q-11 5 -16.5 16t-0.5 23q1 2 14.5 34.5t37.5 75.5
q68 120 136 150q42 19 83 4q12 -5 25 -17.5t18 -38.5q6 -30 -1 -73q-6 -39 -19.5 -85t-29.5 -97q-14 -46 -27 -91t-21 -85q-10 -50 -7.5 -74.5t8.5 -33.5q2 -5 6 -8.5t14 -5.5q5 -1 17.5 4t35.5 26q34 31 75 90q17 25 33 49.5t27 44.5q13 23 24 43q1 3 4 6q10 43 24 93
q14 48 29 90.5t27.5 75t21 52t9.5 21.5q5 11 16.5 15.5t22.5 -0.5t15.5 -17t-0.5 -23l-8 -19t-20.5 -51t-27.5 -74t-28 -88z" />
    <glyph glyph-name="V" unicode="V" horiz-adv-x="487" 
d="M227 4h-1q-32 0 -53 26q-15 20 -19 52t3 83q5 40 15 85.5t21 91.5q11 52 22 103t15 92q3 40 -1.5 58.5t-10.5 20.5q-16 7 -37 -2q-24 -11 -51.5 -43t-56.5 -82q-11 -20 -20 -38.5t-15 -32.5q-7 -17 -13 -31q-5 -12 -16 -17t-23 -1q-11 5 -16.5 16.5t-0.5 22.5
q1 2 14.5 34.5t37.5 75.5q68 122 136 151q44 19 83 3q12 -5 25.5 -17.5t20.5 -41.5q7 -31 3 -81q-4 -45 -15 -97t-23 -106q-11 -45 -20 -89.5t-14 -81.5q-3 -25 -3.5 -41.5t0.5 -27t3 -15.5t4 -7t5 -3q2 1 7 5.5t14.5 15t23.5 29t34 47.5q26 39 56.5 90.5t65.5 116.5
q30 55 57 111t48 101t33.5 73.5l12.5 28.5q5 11 17 15t23 -1t15 -17t-1 -23q0 -1 -13.5 -31t-35.5 -77t-51 -105.5t-60 -115.5q-37 -68 -69 -121.5t-58 -92.5q-17 -24 -31 -42t-26 -32q-17 -19 -32 -27t-29 -8z" />
    <glyph glyph-name="W" unicode="W" horiz-adv-x="541" 
d="M339 -21q-35 4 -47.5 26t-13.5 51t6 59t12 50q12 48 29 102t35 109q13 41 24.5 78t19.5 68q2 8 3.5 14.5t3.5 11.5q-8 -11 -18 -24.5t-21 -30.5q-27 -41 -58 -90.5t-62 -100.5q-34 -55 -67 -108t-62 -95q-29 -43 -51 -67q-11 -12 -23.5 -21.5t-26.5 -9.5q-7 0 -10 1
q-16 3 -24 19q-6 10 -5.5 26t6.5 42.5t18.5 65t32.5 94.5q22 62 43.5 127.5t34.5 122.5q7 31 9 52.5t1.5 34.5t-3 19.5t-5.5 8.5q-2 0 -9 -3.5t-19.5 -14t-32 -31t-46.5 -54.5q-16 -21 -30.5 -40.5t-25 -35t-17 -25.5l-6.5 -10q-7 -11 -19 -13.5t-23 4.5t-13.5 18.5
t4.5 22.5q1 1 8.5 12.5t19.5 29t28 39t34 44.5q44 54 77 83q5 4 14.5 11.5t21.5 13.5t26.5 8.5t28.5 -3.5q15 -5 29.5 -22t17.5 -54q2 -21 -1 -47.5t-10 -59.5q-14 -60 -36 -127.5t-44 -130.5q-12 -34 -22 -64.5t-18 -56.5q6 9 13 19t15 22q26 38 55.5 86.5t59.5 97.5
q35 57 69 111.5t63 96.5q17 24 30 41.5t24 29.5q12 14 27 25t33 7q16 -3 26 -19q8 -14 6.5 -38.5t-13.5 -70.5q-9 -33 -21.5 -73.5t-26.5 -84.5q-17 -54 -34 -107.5t-29 -100.5q-14 -56 -15 -80t1 -31q36 17 66.5 51.5t56.5 76.5t46.5 85t37.5 76q30 61 56.5 120.5t46 107
t31.5 76.5t12 30q5 11 16 16.5t23 0.5q11 -4 16.5 -15.5t0.5 -22.5q0 -1 -12 -30.5t-32 -77.5t-46.5 -108.5t-57.5 -122.5q-25 -50 -50.5 -101.5t-56.5 -96t-68.5 -78t-86.5 -47.5z" />
    <glyph glyph-name="X" unicode="X" horiz-adv-x="447" 
d="M551 513q11 -5 15 -17t-1 -23q-1 -2 -8 -16.5t-19.5 -38t-28.5 -52.5t-35 -60q-36 -60 -63.5 -95.5t-48.5 -54.5t-36 -24.5t-26 -5.5q-41 0 -100 63q-12 13 -24 28t-26 33l-161 -321q-8 -17 -27 -17q-7 0 -13 3q-11 6 -15 17.5t1 22.5l175 350q-1 2 -2 3t-2 3
q-22 32 -41.5 63t-34 55t-23 39.5t-9.5 16.5q-6 11 -3 23t14 18t23 3t18 -14l7.5 -12.5t19.5 -33t28.5 -47.5t35.5 -55l156 312q6 11 17.5 15t22.5 -2q11 -5 15 -17t-1 -23l-171 -342q17 -24 33.5 -44t30.5 -36q15 -16 25 -24.5t17 -13t10.5 -5.5l3.5 -1q1 0 12.5 6.5
t36.5 37.5q17 20 35.5 47t39.5 62q18 30 34 58.5t27.5 51t18.5 36.5l7 14q5 11 17 15t23 -1z" />
    <glyph glyph-name="Y" unicode="Y" horiz-adv-x="368" 
d="M444 689q12 -2 18.5 -12.5t3.5 -23.5q0 2 -7 -24t-18 -68.5t-24.5 -96t-27.5 -106t-26 -98.5t-20 -73q-29 -102 -55.5 -182.5t-49.5 -138.5q-14 -36 -26.5 -63t-24.5 -47q-11 -19 -27 -36t-39 -17h-2q-23 0 -41 12t-29 34q-18 34 -14 78.5t29 81.5t65 57q20 10 42 14
t46 3q27 78 57 180q-24 -30 -46.5 -53.5t-42.5 -40.5q-54 -45 -96 -45q-6 0 -10 1h-1h-1q-40 7 -60 42q-15 26 -14.5 62t10 79.5t26.5 92t35 99.5q17 50 32 94.5t23 80.5q3 17 4.5 30t-0.5 22q-2 7 -3.5 8.5t-2.5 1.5q-16 7 -37 -2q-24 -11 -51.5 -42.5t-55.5 -82.5
q-23 -40 -36 -70.5t-13 -31.5q-5 -11 -16 -16.5t-23 -0.5q-11 5 -16.5 16t-0.5 22q0 1 4 10.5t10.5 24.5t16 34.5t21.5 40.5q68 122 136 151q42 20 83 3q12 -5 25 -17.5t18 -38.5q5 -31 -4 -74q-8 -39 -24 -85.5t-34 -97.5q-17 -45 -32 -90t-25 -86q-12 -50 -10.5 -74
t6.5 -33q2 -4 6 -7.5t13 -5.5q5 0 18.5 5t39.5 26q19 16 40.5 38.5t44.5 51.5q32 40 56.5 76t34.5 53q18 67 34 127t27 105.5t17.5 72.5t6.5 28q3 12 13.5 18.5t23.5 3.5zM192 -86q2 3 4 9q-33 -3 -52 -17.5t-30 -29.5q-17 -26 -19 -54.5t7 -45.5q4 -8 8 -10.5t7 -2.5
q3 2 10 11t19 31q10 20 21.5 47t24.5 62z" />
    <glyph glyph-name="Z" unicode="Z" 
d="M-88 -211q11 77 34.5 127t61.5 79q35 26 74 35t77 14q12 2 23.5 3t22.5 3q20 29 34.5 66t14.5 72q-1 21 -9.5 32t-20.5 17t-26.5 8t-27.5 4.5t-23 6.5t-14 14q-8 17 1.5 32.5t18.5 26.5q40 47 83 88t80 89q24 31 36.5 61.5t10.5 50.5t-20 25t-55 -14q-46 -23 -106 -80
q-26 -26 -49.5 -51t-40.5 -46q-20 -25 -38 -47q-8 -11 -20 -12.5t-22 6.5t-12 20t6 22q1 1 12 15t29 35.5t42.5 48t51.5 52.5q22 21 53 46.5t65 43t68 21.5t62 -18q30 -22 35.5 -50.5t-2.5 -58.5t-25 -57.5t-33 -48.5q-35 -47 -75 -85t-76 -80q45 -10 66 -32.5t28 -44.5
q16 -49 -8 -119q-6 -17 -13 -32q27 15 52 41.5t47 71.5q5 11 17 15t23 -1t15 -17t-1 -23q-51 -103 -131 -144q-16 -8 -32 -13.5t-33 -9.5q-2 -4 -4.5 -7t-4.5 -7q-19 -29 -42 -58.5t-47 -57.5t-49 -52.5t-49 -43.5q-15 -13 -29 -22t-25 -15q-18 -9 -34.5 -8.5t-27.5 8.5
t-16.5 22t-2.5 33zM162 -16q-35 -5 -65 -11.5t-54 -26t-41.5 -55.5t-28.5 -99q14 7 47 34q26 22 53 50.5t53 60.5q9 11 18.5 23t17.5 24z" />
    <glyph glyph-name="bracketleft" unicode="[" horiz-adv-x="222" 
d="M339 680q12 0 20.5 -8.5t8.5 -22.5q0 -13 -8.5 -22t-20.5 -9h-83l-178 -567h61q13 0 21 -8.5t8 -22.5q0 -13 -8 -22t-21 -9h-102q-21 0 -27 21q-5 10 -2 24l197 617q1 6 5 11q8 18 27 18h102v0z" />
    <glyph glyph-name="backslash" unicode="\" horiz-adv-x="507" 
d="M149 613q2 2 3.5 4t3.5 4q11 8 22.5 5.5t17.5 -15.5l271 -543q13 -28 -10 -51q-10 -8 -21.5 -5.5t-18.5 14.5l-271 546q-11 22 3 41z" />
    <glyph glyph-name="bracketright" unicode="]" horiz-adv-x="325" 
d="M31 0q-12 0 -20.5 8.5t-8.5 22.5q0 13 8.5 22t20.5 9h83l174 569l-61 -1q-13 0 -21.5 8.5t-8.5 22.5q0 13 8 22t21 9l102 1q21 0 27 -21q2 -5 3 -10.5t-1 -13.5l-192 -618q-1 -6 -5 -11q-8 -18 -27 -18l-102 -1v0z" />
    <glyph glyph-name="asciicircum" unicode="^" horiz-adv-x="221" 
d="M174 705q-13 0 -19 10q-10 17 -20.5 34.5t-18.5 29.5q-9 -12 -22 -30t-25 -36q-6 -7 -15 -8.5t-17 3.5q-7 5 -8.5 14t3.5 17q1 1 10 13.5t21 29.5q7 9 12.5 17t10.5 13q9 11 15 15.5t14 6.5q12 2 19.5 -6t13.5 -16q7 -9 20 -31q10 -16 17.5 -29.5t8.5 -14.5q5 -8 2 -16.5
t-11 -13.5q-4 -2 -11 -2z" />
    <glyph glyph-name="underscore" unicode="_" horiz-adv-x="569" 
d="M512 2h-475q-13 0 -21.5 9t-8.5 21q0 13 8.5 21.5t21.5 8.5h475q12 0 21 -8.5t9 -21.5q0 -12 -9 -21t-21 -9z" />
    <glyph glyph-name="grave" unicode="`" horiz-adv-x="229" 
d="M204 697q-11 0 -17 8l-95 91q-5 7 0 17t11 15t17 8t18 -4l77 -103q7 -7 6.5 -15t-6.5 -13q-4 -4 -11 -4z" />
    <glyph glyph-name="a" unicode="a" horiz-adv-x="375" 
d="M439 294q12 -5 16.5 -17t-0.5 -23l-69 -113q-35 -58 -67 -90q-47 -48 -88 -48q-24 0 -38 20q-5 8 -9 20.5t-4 35.5q-19 -29 -44 -52t-56 -23q-5 0 -15 2q-46 11 -63 60q-13 35 -7 90q5 41 21 87.5t40 86.5t54 66t64 26q9 0 18 -3q37 -9 54 -48q3 11 6.5 22t6.5 22
q4 12 15 16t21.5 1.5t17.5 -10t4 -19.5l-2.5 -8.5t-5.5 -19.5t-6.5 -24t-6.5 -22q-17 -54 -28 -97.5t-19 -78.5q-7 -39 -8.5 -59t0.5 -29q6 3 14.5 9t20 18t26.5 31.5t33 48.5q28 45 46.5 75.5t18.5 31.5q5 11 16.5 15.5t22.5 -0.5zM194 285q1 12 1.5 25t-1.5 23.5t-6 18
t-11 9.5q-1 1 -3 1q-11 0 -29 -14.5t-39 -51.5q-20 -33 -33.5 -72.5t-17.5 -74.5q-1 -7 -1.5 -20t1 -26.5t7 -24.5t17.5 -14h1q7 0 24.5 15.5t37.5 53.5q20 35 33.5 76t18.5 76z" />
    <glyph glyph-name="b" unicode="b" horiz-adv-x="290" 
d="M366 300q12 -6 16.5 -18t-0.5 -23q0 -1 -5.5 -9t-14 -20t-19 -27t-20.5 -28q-61 -77 -117 -78q-8 -17 -18.5 -35t-25 -32.5t-33 -22.5t-40.5 -3q-47 11 -69 60q-7 16 -11 34t-3 45t7.5 65.5t19.5 95.5t32.5 134.5t46.5 183.5q3 12 13.5 17.5t23.5 1.5q11 -5 17.5 -16
t4.5 -23l-48 -189q17 7 31 7q27 0 45.5 -14t29.5 -35t15.5 -46.5t4.5 -48.5q-1 -25 -4.5 -51t-11.5 -52q21 16 41 42q9 12 18 25t17 24q9 13 17 26q6 11 17.5 14t22.5 -4zM98 62q6 0 19 12t27 40q-25 16 -42.5 40t-31.5 50q-2 -10 -4 -32t-0.5 -45t8 -42t23.5 -23h1z
M188 283q0 4 -0.5 16.5t-3.5 26t-8.5 24t-15.5 10.5q-12 0 -21.5 -8t-17.5 -19t-14 -23l-10 -20q4 -12 10.5 -28.5t15.5 -34t20 -33.5t24 -26q10 29 15.5 59t5.5 56z" />
    <glyph glyph-name="c" unicode="c" horiz-adv-x="292" 
d="M94 1q-11 0 -21 3h-1q-27 9 -46 37q-14 23 -18 55q-5 29 -3 63t11 69q4 20 12 42t18 43t20.5 39.5t21.5 31.5q28 35 54 50t48 15t39.5 -12.5t28 -33.5t12.5 -48.5t-6 -56.5q-3 -11 -14.5 -17.5t-23.5 -2.5q-11 4 -17.5 14.5t-2.5 22.5q9 31 5.5 47.5t-14.5 20t-28 -5.5
t-35 -30q-8 -11 -17 -26.5t-17 -33.5t-15 -37t-11 -36q-7 -29 -8.5 -55.5t0.5 -47t8 -33.5t15 -16q17 -4 45 13.5t61 52.5q15 16 36.5 42t42 51.5t35 44.5l14.5 19q7 11 18.5 13t22.5 -5t13.5 -19t-5.5 -23q0 -1 -15 -20.5t-36 -45.5t-43.5 -53.5t-38.5 -44.5
q-39 -41 -75 -63q-38 -23 -70 -23z" />
    <glyph glyph-name="d" unicode="d" horiz-adv-x="375" 
d="M437 294q12 -5 16.5 -17t-0.5 -23q-1 -2 -20.5 -33.5t-48.5 -79.5q-35 -58 -67 -90q-47 -48 -88 -48q-24 0 -38 20q-5 8 -9 20.5t-4 35.5q-19 -29 -44 -52t-56 -23q-5 0 -15 2q-46 11 -63 60q-13 35 -7 90q5 41 21 87.5t40 86.5t54 66t64 26q9 0 18 -3q37 -9 54 -48
q13 42 25 80.5t21 68t14 47t5 18.5q5 11 16 16.5t23 0.5q12 -4 17.5 -15.5t0.5 -22.5l-6.5 -20t-16.5 -52.5t-23 -75t-26 -87.5q-17 -54 -28 -97.5t-19 -78.5q-7 -39 -8.5 -59t0.5 -29q6 3 14.5 9t20 18t26.5 31.5t33 48.5q28 45 46.5 75.5t18.5 31.5q5 11 16.5 15.5
t22.5 -0.5zM140 133q20 35 33.5 76t18.5 76q1 12 1.5 25t-1.5 23.5t-6 18t-11 9.5q-1 1 -3 1q-11 0 -29 -14.5t-39 -51.5q-20 -33 -33.5 -72.5t-17.5 -74.5q-1 -7 -1.5 -20t1 -26.5t7 -24.5t17.5 -14h1q7 0 24.5 15.5t37.5 53.5z" />
    <glyph glyph-name="e" unicode="e" horiz-adv-x="283" 
d="M143 422q36 20 68 14.5t49.5 -27.5t16.5 -55.5t-31 -69.5q-26 -33 -54.5 -57t-55 -40.5t-49 -26.5t-36.5 -15q-1 -11 -2 -24t0 -25.5t5.5 -22t14.5 -12.5q2 0 10 1t24.5 10t42.5 29t64 57q22 21 42 42t35 38t24.5 27.5l9.5 10.5q8 10 20.5 12t20.5 -6q10 -8 11 -19.5
t-7 -22.5q-2 -1 -11.5 -11.5t-25.5 -28t-36.5 -39t-43.5 -44.5q-60 -58 -106.5 -83t-79.5 -25t-52 22t-25.5 57t0.5 79.5t27 90t52.5 89t77.5 75.5zM196 380q-21 -3 -41.5 -22.5t-38.5 -46t-31 -53.5t-19 -44q39 16 74 44.5t61 60.5q6 7 11 17.5t6 20t-3.5 16.5t-18.5 7z
" />
    <glyph glyph-name="f" unicode="f" horiz-adv-x="252" 
d="M266 276q12 0 21 -9t9 -22q0 -12 -9 -20.5t-21 -8.5h-158q2 -28 9.5 -73.5t5.5 -114.5q-1 -54 -5 -99t-11 -82q-19 -99 -61 -136q-27 -24 -61 -24q-10 0 -20 3q-9 2 -20.5 8.5t-19.5 22.5q-7 13 -10.5 39.5t4 77.5t30 133.5t67.5 209.5q3 7 4 11t2 6.5t2 6t4 11.5
q-2 0 -9 8.5t-7 20.5q0 13 9.5 22t29.5 9q18 49 39 103l38.5 99t29 75l11.5 30q5 11 17 16t23 0t16 -17t0 -23l-11 -28l-27.5 -70t-35.5 -91.5t-36 -93.5h151zM63 29q2 56 0 104q-27 -76 -45.5 -139t-29.5 -112q-9 -39 -11.5 -64t-2.5 -40t1.5 -22t2.5 -8q16 -3 28 8
q9 8 20.5 30.5t21.5 72.5q13 67 15 170z" />
    <glyph glyph-name="g" unicode="g" horiz-adv-x="307" 
d="M301 437q13 -3 19 -14t4 -23l-138 -548q-4 -14 -10.5 -28.5t-15 -26.5t-20 -20t-26.5 -9q-24 0 -41 10t-33 27q-17 20 -34.5 51t-37.5 74q-5 12 -1 23.5t15 16.5q12 5 23 0.5t16 -15.5q21 -45 37 -70.5t26.5 -38.5t16 -16t6.5 -3q6 9 9 14t5.5 13t5 20.5t8 36t14 60.5
t23.5 93q-18 -24 -41 -42t-49 -18q-10 0 -15 2q-46 11 -63 59q-13 36 -7 91q5 40 21 86.5t39.5 86.5t54 66t63.5 26h9.5t9.5 -2q20 -5 34.5 -19.5t21.5 -36.5q1 4 3.5 11t4.5 14.5t4.5 15t3.5 11.5q2 12 12.5 18.5t22.5 3.5zM144 133q20 35 33.5 75.5t17.5 76.5q3 24 0.5 48
t-16.5 28h-4q-10 0 -28 -14.5t-40 -50.5q-20 -33 -33 -72.5t-17 -74.5q-1 -7 -2 -20t1 -26.5t7.5 -24.5t17.5 -14h1q7 0 24 15.5t38 53.5z" />
    <glyph glyph-name="h" unicode="h" horiz-adv-x="363" 
d="M-14 40q1 10 5.5 39t12 70t17 90.5t19 100t19 98.5t17 86.5t12.5 63.5t6 29q3 13 13.5 19t21.5 3q12 -3 19 -13.5t5 -22.5q-3 -14 -9.5 -47t-15.5 -75.5t-19 -89.5t-19 -89.5t-16.5 -76t-10.5 -47.5q9 12 22.5 37.5t29.5 55t35.5 59.5t40.5 51t43 28t45 -9
q13 -9 16.5 -30.5t0.5 -49.5t-10 -60.5t-13.5 -64.5t-11.5 -60.5t-3 -48.5q1 -15 11.5 -7.5t25 27.5t31 47.5t30.5 52.5t23 42l9 17q5 11 15.5 17t23.5 1q11 -5 17 -16.5t-2 -22.5q-20 -29 -43 -73t-49 -84t-53.5 -66.5t-55.5 -21.5t-37 31.5t-7.5 63.5t10 79.5t17.5 80
t14 64t-1 32.5q-9 -3 -23 -21.5t-31 -47t-35.5 -63.5t-36 -70t-33.5 -68t-27 -57q-6 -12 -17.5 -17.5t-23 -4t-19 11t-5.5 27.5z" />
    <glyph glyph-name="i" unicode="i" horiz-adv-x="158" 
d="M145 459l-56 21q3 10 7 18q2 7 4.5 13t2.5 7q5 11 16 16.5t23 0.5q11 -5 16.5 -16t0.5 -23zM197 261q9 12 20 14t19.5 -3.5t12 -15.5t-3.5 -22q-18 -32 -44 -72.5t-56 -76.5t-62 -59.5t-60 -19.5q-20 3 -27.5 25.5t-5.5 56.5t10.5 75.5t19.5 82.5t22.5 77.5t19.5 60.5
q5 15 16.5 20t22.5 2.5t18 -11.5t3 -22q-7 -26 -20 -68.5t-25.5 -86t-22 -81.5t-9.5 -55q0 -15 11.5 -8t28 26.5t36 46.5t36 52t28 43t12.5 19z" />
    <glyph glyph-name="j" unicode="j" horiz-adv-x="117" 
d="M-162 -224q-34 40 -73 125q-5 12 -0.5 23.5t15.5 16.5t22.5 0.5t16.5 -15.5q21 -45 36.5 -70.5t26.5 -38.5t16.5 -16t6.5 -3q8 12 12.5 19.5t9.5 24.5t13 49t23.5 92t40 155t62.5 237q3 12 13.5 18.5t22.5 3.5t18.5 -14t3.5 -23l-141 -537q-4 -14 -10 -28.5t-15 -26.5
t-20.5 -20t-26.5 -9q-23 0 -40.5 10t-32.5 27zM146 443l-56 21q3 10 7 18q2 7 4.5 13t2.5 7q5 11 16 16.5t23 0.5q11 -5 16.5 -16t0.5 -23z" />
    <glyph glyph-name="k" unicode="k" horiz-adv-x="335" 
d="M403 279q10 -8 11.5 -19.5t-6.5 -22.5q-1 -1 -9.5 -11.5t-23 -27t-34 -37.5t-41.5 -43q-22 -21 -46 -42t-48.5 -36t-49 -22.5t-46 -3t-40 23.5t-31.5 57l-20 -73q-3 -13 -13.5 -17t-21.5 -1t-18 13t-3 24l141 577q3 14 14 19.5t21.5 4t18.5 -10t5 -22.5l-75 -306
q24 41 56 65t63.5 32.5t58 2t40 -25.5t8.5 -50t-37 -71q-24 -32 -52.5 -55t-55.5 -39t-50 -25t-36 -13q14 -26 25 -41.5t28.5 -14t45.5 23t76 69.5q21 21 39.5 41t32.5 36t22.5 26.5t9.5 10.5q7 9 19 10.5t22 -6.5zM232 354q-21 -2 -45 -23.5t-46 -50t-38 -58t-20 -46.5
q19 7 41.5 20.5t44.5 29.5t40.5 33.5t30.5 33.5q6 7 10.5 17t5 20t-4.5 17t-19 7z" />
    <glyph glyph-name="l" unicode="l" horiz-adv-x="197" 
d="M256 276q11 -5 16 -16.5t-3 -22.5q-21 -29 -50.5 -71.5t-62.5 -80.5t-66 -62.5t-61 -18.5q-39 8 -45.5 47.5t9.5 114.5t50.5 187t78.5 265q5 13 18 18.5t25.5 3t21 -11.5t4.5 -24q-6 -20 -20 -66t-31 -103.5t-34.5 -119.5t-30 -113.5t-16.5 -85.5t6 -37q8 -2 22 11
t31 32.5t35 43.5t32 44.5t23 34l9 13.5q5 11 16 17t23 1z" />
    <glyph glyph-name="m" unicode="m" horiz-adv-x="585" 
d="M651 299q12 -5 17 -16t0 -23q-8 -17 -19.5 -43t-26 -55.5t-32 -59t-37 -52.5t-42 -35.5t-47.5 -8.5q-27 4 -36 26t-7 53t10.5 68t16.5 72t12 64t-3 44q-11 -9 -26.5 -26.5t-31.5 -37.5t-30 -39.5t-23 -34.5q-19 -31 -35.5 -60.5t-29.5 -52.5t-20.5 -37l-7.5 -14
q-6 -11 -17.5 -14.5t-21.5 2.5q-10 5 -14 14.5t-1 19.5q0 8 4.5 27.5t11 43l13 47t10.5 40.5q7 33 10.5 53.5t4.5 34t0.5 22.5t-0.5 18q-19 -12 -40 -41.5t-43 -67.5t-43.5 -78.5t-42 -73.5t-39 -54t-33.5 -19h-1q-18 0 -25.5 12t-9 29t1 35t4.5 30q4 26 11.5 58t15.5 73
q30 137 33 140q3 12 13 18.5t22 3.5t20 -13.5t5 -22.5q0 -1 -7.5 -31.5t-21.5 -94.5q-9 -38 -15.5 -66.5t-10.5 -49.5q10 13 25 40t33.5 59.5t39.5 67t42.5 62t43 44t40.5 13.5q25 -4 35 -24.5t10.5 -46.5t-4 -53.5t-7.5 -46.5q8 11 22 31t31 41.5t36.5 42t39 31t37.5 8.5
t34 -24q19 -30 16 -68.5t-14 -79.5t-23.5 -81.5t-13.5 -74.5q10 -11 24.5 0.5t30.5 35t32 54.5t28.5 58.5t20 47t7.5 20.5q5 11 16 16t22 0z" />
    <glyph glyph-name="n" unicode="n" horiz-adv-x="375" 
d="M-40 41q3 13 10 41.5t16 64t19 74t19 71.5t15 56.5t8 29.5q5 14 18.5 18.5t27.5 1.5t23 -12t5 -22q-6 -21 -13.5 -46t-15 -51.5t-14.5 -52t-13 -46.5q8 13 22.5 38.5t33.5 55.5t41 59t45.5 49.5t46.5 27.5t45 -8q14 -10 15.5 -31t-4 -49.5t-16 -61t-21.5 -64t-19 -60
t-9 -48.5q0 -15 11 -7.5t27.5 27.5t36.5 47.5t36.5 52.5t27.5 42l11 17q6 11 17 17t23 1q11 -5 15.5 -16.5t-4.5 -22.5q-15 -20 -32 -45.5t-36 -53t-39 -53t-40.5 -45t-40 -30t-38.5 -7.5q-27 5 -33 30.5t-1 61.5t18 77t25.5 77t20.5 62t3 32q-9 -3 -25.5 -20.5t-36 -45
t-42 -61t-44 -67.5t-40.5 -66t-32 -56q-7 -11 -21 -16.5t-27 -4t-21 10.5t-4 27z" />
    <glyph glyph-name="o" unicode="o" horiz-adv-x="322" 
d="M396 283q11 -8 12.5 -19.5t-5.5 -22.5q-12 -23 -33.5 -49t-48 -48t-54.5 -35.5t-52 -10.5q-10 -17 -24 -34t-30.5 -30.5t-35 -22t-37.5 -8.5q-29 0 -47 15.5t-28 39.5t-12.5 51.5t0.5 51.5q3 23 10.5 53.5t20 62.5t29.5 62t39 52.5t48 34.5t57 8q38 -11 52 -44.5
t13.5 -75t-10 -84t-19.5 -71.5q18 3 38 20.5t36.5 38t27 37t11.5 17.5q7 11 19 14.5t23 -3.5zM185 373q-11 0 -22.5 -8.5t-22 -20.5t-18.5 -24.5t-12 -21.5q2 -12 9 -27.5t17 -31.5t22 -30t24 -24q2 6 7 21.5t9 35t7 41t2.5 40.5t-5.5 32.5t-17 17.5zM88 65q7 0 21.5 13
t33.5 42q-24 17 -40.5 36t-27.5 46q-3 -11 -7.5 -32.5t-5.5 -43t4 -39.5t22 -22z" />
    <glyph glyph-name="p" unicode="p" horiz-adv-x="316" 
d="M379 265q11 -7 13 -18.5t-5 -22.5q-11 -22 -31.5 -51t-46 -54.5t-53 -42t-53.5 -13.5q-10 -17 -22 -34t-26 -30.5t-30 -22t-34 -8.5q-20 0 -38.5 11t-29.5 29l-50 -200q-7 -23 -29 -23q-5 0 -8 1q-12 3 -18 13.5t-3 22.5l143 574q3 12 14 18.5t23 3.5t18.5 -13.5
t3.5 -22.5l-9 -33q17 17 36.5 27t39.5 10q25 0 46 -16.5t29 -43.5q11 -36 5 -84q-6 -49 -26 -103q13 3 30.5 21t33 38.5t26.5 37.5t13 19q7 11 17 14t21 -4zM90 28q7 0 20.5 11.5t32.5 40.5q-24 17 -38.5 40t-27.5 49q-7 -28 -12 -56q-1 -7 -1.5 -20t1.5 -26.5t7.5 -24.5
t17.5 -14zM204 249q1 5 1.5 17.5t-1 26t-6 23.5t-14.5 10q-9 0 -20.5 -8.5t-22 -20t-18.5 -23t-9 -18.5q2 -12 7 -29t12 -34.5t16.5 -33t21.5 -25.5q13 29 21.5 59t11.5 56z" />
    <glyph glyph-name="q" unicode="q" horiz-adv-x="296" 
d="M357 55q11 -5 16.5 -16t0.5 -23l-8.5 -14.5t-20 -34.5t-24.5 -43t-23 -40q-9 -16 -22 -35.5t-29.5 -37t-36.5 -29t-43 -11.5q-27 0 -39.5 17.5t-15.5 43t0 53t7 48.5q4 23 10.5 49t14.5 55q-17 -17 -38.5 -27.5t-45.5 -5.5q-47 12 -63 60q-8 24 -6.5 61t10.5 78.5t26 82
t40.5 72t53.5 49t66 11.5q26 -7 41 -27.5t20 -46.5q8 21 13 33t5 13q5 11 16 16t23 0q11 -5 16 -16.5t0 -22.5l-8.5 -21.5t-21.5 -56.5t-29 -80.5t-32 -94.5q-8 -23 -20 -61t-22.5 -79.5t-16 -80t0.5 -61.5q19 5 41.5 32t43.5 60t37.5 65t23.5 49q5 12 16 17t23 0zM138 131
q20 35 33 76t18 76q0 4 1 16.5t-0.5 26t-6 24t-14.5 10.5q-11 0 -29 -14.5t-39 -51.5q-20 -32 -33 -71.5t-18 -74.5q-1 -7 -1.5 -20t1.5 -26.5t7.5 -24.5t16.5 -14h1q8 0 25 15t38 53z" />
    <glyph glyph-name="r" unicode="r" horiz-adv-x="328" 
d="M1 -1q-14 2 -24 14t-7 29q5 45 16 94t20 92q8 35 14.5 66t12.5 55q6 28 13 53q3 12 13.5 18t22.5 2t18.5 -15t3.5 -22q-3 -13 -4.5 -20.5t-4.5 -20.5q19 26 41 44t48 23q67 12 133 -58q10 -9 10.5 -21.5t-9.5 -20.5q-8 -8 -20.5 -7.5t-21.5 9.5q-44 45 -77 39
q-7 -2 -18 -6.5t-24 -15t-27 -28t-27 -43.5q-28 -57 -41 -117.5t-24 -114.5q-6 -28 -37 -28z" />
    <glyph glyph-name="s" unicode="s" horiz-adv-x="252" 
d="M76 139q-29 64 -40 111.5t-11 81t8.5 54t18.5 31.5q17 20 42.5 28t52.5 2q35 -7 62 -32.5t38 -62.5q4 -12 -1.5 -22t-18.5 -13t-24.5 3t-14.5 17q-11 33 -28 45t-33 7t-26.5 -25.5t-8.5 -53.5q2 -32 13.5 -71t34.5 -90q33 0 52.5 5.5t32 16t21.5 27.5t21 40q5 11 17.5 15
t23.5 -1q12 -5 16.5 -16.5t-0.5 -22.5q-12 -26 -27 -47.5t-35.5 -38t-48 -26t-65.5 -9.5q-3 -42 -18.5 -66.5t-36.5 -35t-44 -7.5t-40 17q-16 13 -23.5 34t-1.5 42t28 39t64 24zM98 86q-24 1 -38 -4.5t-20 -14t-4.5 -17t7.5 -12.5q5 -4 13 -3.5t16 6t15 16.5t11 29z" />
    <glyph glyph-name="t" unicode="t" horiz-adv-x="258" 
d="M319 273q11 -6 13.5 -16.5t-5.5 -21.5q-21 -30 -55 -71.5t-72 -78.5t-75.5 -62t-67.5 -22q-27 3 -40 25t-16 55.5t1.5 74t12.5 80t16.5 72.5t14.5 53h-35q-13 0 -21.5 9t-8.5 21q0 13 8.5 21.5t21.5 8.5h59q20 59 33.5 98t13.5 40q5 11 16.5 16.5t22.5 0.5q12 -5 17 -16
t0 -23l-11 -33q-5 -16 -13 -37t-16 -46h76q13 0 21.5 -8.5t8.5 -21.5q0 -12 -8.5 -21t-21.5 -9h-95q-5 -16 -12.5 -41.5t-15 -56t-14 -62t-10 -58.5t-2.5 -47.5t8 -27.5q9 -5 26 4.5t38 27.5t44 41.5t43 46.5t35 42t21 28q8 12 20.5 17t23.5 -2z" />
    <glyph glyph-name="u" unicode="u" horiz-adv-x="363" 
d="M378 252q7 16 17.5 19t19 -2t12 -15.5t-3.5 -22.5q-18 -31 -39.5 -73.5t-46 -80t-51.5 -61.5t-55 -19q-27 5 -34.5 31t-3.5 63q-14 -17 -26.5 -30.5t-24.5 -23.5q-38 -32 -67 -32q-10 0 -19 3q-26 9 -38 35q-28 56 11 205q7 26 14 50.5t13 43.5t10 30.5t4 12.5
q4 12 15.5 17.5t22.5 0.5q12 -5 17.5 -16t0.5 -22l-3.5 -11.5t-9 -30t-12.5 -42.5t-14 -49q-19 -70 -21.5 -107t5.5 -50t24.5 -6.5t36 23t40 38t36.5 39.5q7 22 17.5 57t20.5 68t17.5 57.5t7.5 25.5q5 11 16 16.5t23 0.5q11 -5 16.5 -16.5t0.5 -22.5l-3.5 -11.5t-9.5 -29.5
t-13 -41.5t-14 -47.5q-11 -44 -22.5 -84.5t-11.5 -67.5q0 -15 10 -7.5t23.5 27.5t30 47.5t30 52.5t22.5 42z" />
    <glyph glyph-name="v" unicode="v" horiz-adv-x="298" 
d="M409 404q13 0 20.5 -9.5t5.5 -21.5q-1 -13 -9.5 -21.5t-21.5 -8.5l-95 1q-6 -12 -11.5 -25t-12 -29.5t-16 -37t-24.5 -47.5q-24 -42 -46 -75.5t-42 -57.5q-29 -37 -53 -54t-47 -17q-26 0 -41 21q-5 7 -10 20.5t-5.5 38.5t4 63t17.5 95q14 60 23 94.5t10 36.5
q4 12 15 18.5t22 2.5q13 -3 18.5 -12.5t0.5 -23.5q0 -1 -8 -35.5t-22 -93.5q-10 -45 -14.5 -75t-5.5 -49t0 -28.5t3 -12.5q3 2 12.5 9.5t25 26t38.5 52t54 87.5q21 35 34 62.5t21 46.5t11 30t4 13q10 18 30 18l115 -2v0z" />
    <glyph glyph-name="w" unicode="w" horiz-adv-x="480" 
d="M560 400q13 0 21.5 -8.5t8.5 -21.5q0 -12 -8.5 -21t-21.5 -9l-68 -1q-3 -11 -11.5 -31t-19 -44t-22 -49t-20.5 -46q-41 -88 -81.5 -129.5t-84.5 -41.5q-28 0 -46 24q-7 10 -12.5 28t-3.5 59q-35 -55 -67 -81t-62 -26t-45 24q-12 16 -15 42t-0.5 55.5t9 58.5t13.5 51
q8 28 16.5 55t15.5 48l11.5 34.5t4.5 14.5q5 12 17 17t23 0q12 -5 16 -13t0 -25q-3 -10 -10 -31.5t-16 -48.5t-17.5 -58t-14.5 -61.5t-8 -57t3 -45.5q11 -4 27 10.5t33.5 39t36 56t33.5 62t26 56.5t14 40q4 14 6.5 22t2.5 9q4 11 15 17t23 2t18 -15t1 -23l-3.5 -11.5t-9 -30
t-11.5 -43t-12 -50.5q-9 -41 -12 -68.5t-3 -44t2 -24.5t3 -11q17 1 33.5 17.5t31 38t26 45t18.5 38.5q13 28 26.5 60t24.5 59t18.5 45l7.5 18q0 2 1 3q3 8 10.5 14t17.5 6l90 1v0z" />
    <glyph glyph-name="x" unicode="x" horiz-adv-x="375" 
d="M437 281q11 -5 15.5 -16.5t-0.5 -23.5q-1 -2 -13 -29t-38 -74q-32 -56 -60 -90q-38 -49 -74 -58q-4 -2 -8 -2h-8q-30 0 -54 20.5t-46 47.5l-98 -193q-8 -17 -27 -17q-8 0 -13 4q-11 5 -15 17t2 23l112 223l-15 27t-21.5 38t-21.5 39t-16 28q-7 11 -1 23t17 17
q12 5 23.5 0t16.5 -16q0 -1 14.5 -26.5t36.5 -64.5l103 204q5 11 17 15t23 -2q11 -5 15 -17t-2 -23l-120 -238q3 -5 13 -18t22.5 -26.5t24.5 -23.5t18 -8q2 0 8 5t16.5 19t26.5 38.5t38 63.5q26 45 37.5 71t11.5 27q5 11 16.5 16t23.5 0z" />
    <glyph glyph-name="y" unicode="y" horiz-adv-x="294" 
d="M320 359q-1 -3 -2 -8.5t-5 -23t-12 -51t-23.5 -94t-39 -152t-58.5 -223.5q-3 -12 -8.5 -26.5t-14.5 -27t-21 -21t-28 -9.5q-21 0 -39 8.5t-35 28.5q-34 40 -73 125q-5 12 -0.5 23.5t15.5 16.5t23 0.5t17 -15.5q20 -45 36 -70.5t26.5 -38.5t16.5 -16t7 -3q8 8 12.5 18
t7.5 21l71 272v1q-16 -20 -30.5 -35.5t-27.5 -26.5q-38 -32 -68 -32q-18 0 -33 10.5t-24 27.5q-27 56 12 205q7 26 15.5 51.5t16.5 45.5t14 33l6 13q5 13 16 17t21.5 0t16.5 -13.5t2 -23.5l-5.5 -12.5t-13 -32t-16.5 -44.5t-15 -50q-3 -12 -9 -35t-9.5 -48.5t-3.5 -48.5
t9 -35q1 0 7 2.5t17 11.5t28 26.5t40 48.5q14 18 26 36.5t21 32.5q11 17 20 32q1 0 1 1q8 29 17 54.5t18 53.5q3 12 14 18.5t23 3.5q18 -5 21 -22z" />
    <glyph glyph-name="z" unicode="z" horiz-adv-x="334" 
d="M-78 -283q-36 10 -44.5 40t-0.5 65.5t27 69.5t40 52q40 35 88 54.5t94 41.5q-34 35 -37.5 66.5t35.5 67.5q11 10 34 31t44.5 45t35 46.5t5.5 34.5q-13 20 -35 18.5t-45.5 -15.5t-44.5 -37t-30 -45q-5 -12 -18.5 -12.5t-20.5 3.5q-8 4 -14 12t-1 22q6 19 29.5 46t56 49
t69 32.5t68.5 -2.5q49 -21 51 -66.5t-43 -99.5q-23 -29 -51.5 -56t-51.5 -48q-5 -3 -3 -11.5t6.5 -19t10.5 -20t8 -13.5q26 7 52 32.5t50 58t43.5 66t33.5 57.5q6 13 18 17.5t23 2t17 -10.5t0 -20q-18 -33 -43.5 -76t-56.5 -82.5t-67.5 -70.5t-76.5 -41q-10 -37 -35 -80.5
t-60 -86.5q-16 -19 -34.5 -39.5t-39 -38t-42.5 -28.5t-44 -11zM103 -32q-35 -8 -67.5 -25.5t-57.5 -42.5t-38 -56t-9 -67q6 -7 20.5 2t33 27t38 42t37 47.5t29.5 43.5t14 29z" />
    <glyph glyph-name="braceleft" unicode="{" horiz-adv-x="243" 
d="M346 702q12 0 20.5 -8.5t8.5 -22.5q1 -13 -7.5 -22t-20.5 -9l-83 -1l-64 -208l-85 -72l33 -99l-58 -189l61 1q13 0 21 -8.5t8 -22.5q0 -13 -8 -22t-21 -9l-102 -1q-21 0 -27 21q-5 10 -2 24l67 215l-30 105l85 71l70 227q1 6 5 11q8 18 27 18l102 1v0z" />
    <glyph glyph-name="bar" unicode="|" horiz-adv-x="268" 
d="M131 699q3 1 5 2t5 1q13 3 21.5 -5t8.5 -23l3 -625q-1 -14 -9 -25.5t-22 -15.5q-12 -2 -21 6t-10 22l-1 627q0 24 20 36z" />
    <glyph glyph-name="braceright" unicode="}" horiz-adv-x="281" 
d="M38 3q-12 0 -20.5 8.5t-8.5 22.5q0 13 8.5 22t20.5 9h83l63 209l85 71l-32 100l58 189l-61 -1q-13 0 -21.5 8.5t-8.5 22.5q0 13 8 22t21 9l102 1q21 0 27 -21q2 -5 3 -10.5t-1 -13.5l-67 -216l31 -104l-86 -72l-70 -226q-1 -6 -5 -11q-8 -18 -27 -18l-102 -1v0z" />
    <glyph glyph-name="asciitilde" unicode="~" horiz-adv-x="623" 
d="M83 207l12.5 13.5t34.5 29.5t49.5 29.5t57.5 13.5t57 -12.5t52 -27.5l47.5 -28.5t43.5 -15.5t46.5 10.5t47.5 28.5q26 18 52 42l5 -5q2 -2 3.5 -6t1.5 -9t-1.5 -8t-3.5 -6q-3 -4 -5 -6q-23 -24 -49 -42q-22 -16 -48 -28.5t-51 -12.5t-50 13.5t-49.5 29.5t-49 29t-48.5 12
q-19 -1 -45 -14t-51 -29q-29 -18 -59 -42q-5 6 -8 13q-2 6 -1 13t9 15z" />
    <glyph glyph-name="exclamdown" unicode="&#xa1;" horiz-adv-x="345" 
d="M246 557q4 0 6 -1q9 -2 13 -11.5t-1 -20.5l-150 -485q-4 -11 -16.5 -18t-21.5 -5q-9 3 -16 14t-4 22l167 485q7 20 23 20zM278 661q14 0 23 -11q2 -3 4.5 -8.5t2.5 -10.5q0 -11 -8 -21.5t-22 -10.5t-21 10.5t-7 21.5q0 13 7 19q6 11 21 11z" />
    <glyph glyph-name="cent" unicode="&#xa2;" horiz-adv-x="448" 
d="M187 699q3 1 5 2t5 1q13 3 21.5 -5t8.5 -23l1 -230q28 10 50.5 1t37 -31t18.5 -52.5t-5 -63.5q-3 -11 -14.5 -17.5t-23.5 -2.5q-11 4 -17.5 14.5t-2.5 22.5q14 49 -1 62t-42 -4l2 -274q7 6 14.5 13.5l15.5 15.5q15 16 36.5 42t42 51.5t35 44.5l14.5 19q7 11 18.5 13
t22.5 -5t13.5 -19t-5.5 -23q0 -1 -15 -20.5t-36 -45.5t-43.5 -53.5t-38.5 -44.5q-39 -41 -75 -63q-10 -7 -16 -9q-8 -6 -14 -7h-3q-18 -7 -37 -7q-11 0 -21 3h-1q-27 9 -46 37q-14 23 -18 55q-5 29 -3 63t11 69q4 20 12 42t18 43t20.5 39.5t21.5 31.5l14 16v263q0 24 20 36z
M139 214q-7 -29 -8.5 -55.5t0.5 -47t8 -33.5t15 -16q6 -2 14 0l-1 231q-9 -19 -16 -39.5t-12 -39.5z" />
    <glyph glyph-name="sterling" unicode="&#xa3;" horiz-adv-x="398" 
d="M200 312q-11 -38 -24 -75.5t-25 -71t-21.5 -59.5t-15.5 -39q20 -2 41.5 -4t43.5 -3q40 -2 71.5 0t55.5 7q17 4 34 11.5t22 20.5q4 12 15 18t23 1q11 -4 17 -15t2 -23q-18 -52 -100 -72q-44 -9 -104 -9h-19.5t-19.5 1q-36 1 -69.5 5t-60 7.5t-43 6.5t-17.5 3
q-12 2 -19 12.5t-5 22.5q3 13 13 19.5t23 4.5q4 -1 9 -2t11.5 -2t14.5 -2q3 7 11.5 30t20.5 55.5t26 71.5t26 80h-60q-13 0 -21.5 9t-8.5 21q0 13 8.5 21.5t21.5 8.5h78q-1 -2 -1 -4l-8 -28t-9 -28h63zM200 312l12 39l6 21h-63q19 68 27 117.5t8.5 82t-5.5 49.5t-16 21
q-3 1 -7 1.5t-11 -2.5q-5 -2 -12.5 -8t-17.5 -17t-22 -29.5t-26 -46.5q-9 -17 -16 -32.5t-12 -27.5q-6 -14 -10 -26t-15 -17.5t-23 -1.5t-17.5 15t-0.5 23q0 2 10.5 30t29.5 64q52 103 107 129q35 14 67 1q12 -5 26.5 -18.5t22.5 -40.5q10 -33 9 -83q-5 -75 -33 -183h94
q12 0 21 -8.5t9 -21.5q0 -12 -9 -21t-21 -9h-112z" />
    <glyph glyph-name="yen" unicode="&#xa5;" horiz-adv-x="368" 
d="M-81 135q-21 0 -31 12.5t-10 27.5t10 27.5t31 12.5h94q3 13 6.5 26t8.5 27h-99q-21 0 -31 12.5t-10 27.5t10 27.5t31 12.5h126l19 52q17 50 32 94.5t23 80.5q3 17 4.5 30t-0.5 22q-2 7 -3.5 8.5t-2.5 1.5q-16 7 -37 -2q-24 -11 -51.5 -42.5t-55.5 -82.5
q-23 -40 -36 -70.5t-13 -31.5q-5 -11 -16 -16.5t-23 -0.5q-11 5 -16.5 16t-0.5 22q0 1 4 10.5t10.5 24.5t16 34.5t21.5 40.5q68 122 136 151q42 20 83 3q12 -5 25 -17.5t18 -38.5q5 -31 -4 -74q-8 -39 -24 -85.5t-34 -97.5l-12 -32h208q18 65 32.5 122.5t25.5 101t17 69
t6 26.5q3 12 13.5 18.5t23.5 3.5q12 -2 18.5 -12.5t3.5 -23.5q0 2 -7.5 -25.5t-19 -72t-25.5 -99.5t-28 -108h87q21 0 31 -12.5t10 -27.5t-10 -27.5t-31 -12.5h-108l-14 -53h138q21 0 31 -12.5t10 -27.5t-10 -27.5t-31 -12.5h-161q-25 -84 -47.5 -151t-42.5 -118
q-14 -36 -26.5 -63t-24.5 -47q-11 -19 -27 -36t-39 -17h-2q-23 0 -41 12t-29 34q-18 34 -14 78.5t29 81.5t65 57q20 10 42 14t46 3q11 33 23 71t25 81h-14q-36 -41 -66 -66q-54 -45 -96 -45q-6 0 -10 1h-2q-40 7 -60 42q-15 25 -15 68h-83zM91 268q-5 -14 -8.5 -27t-7.5 -26
h164q11 14 20.5 27t18.5 26h-187zM192 -86q2 3 4 9q-33 -3 -52 -17.5t-30 -29.5q-17 -26 -19 -54.5t7 -45.5q4 -8 8 -10.5t7 -2.5q3 2 10 11t19 31q10 20 21.5 47t24.5 62zM146 115q5 5 10.5 9.5t11.5 10.5h-106q0 -28 7 -38q2 -4 6 -7.5t13 -5.5q5 0 18.5 5t39.5 26z" />
    <glyph glyph-name="section" unicode="&#xa7;" horiz-adv-x="705" 
d="M443 262q13 -19 31 -42t35 -48.5t31 -53t20.5 -55t2 -53.5t-24.5 -50q-23 -28 -48.5 -35t-51.5 -1q14 -27 24.5 -56t13.5 -57t-4.5 -53.5t-29.5 -46.5q-24 -23 -48 -28t-47 2.5t-44 24t-39 38t-31.5 44.5t-21.5 43q-7 11 -5 23t13 20q10 8 22 6.5t19 -11.5
q10 -17 26.5 -44t36.5 -48.5t42 -31t43 8.5q16 16 10.5 45.5t-20.5 63.5t-34 66t-31 53q-20 33 -41 69t-38.5 73.5t-27 76.5t-4.5 77q3 39 19.5 66t40.5 42q-14 27 -21.5 54.5t-7.5 56.5q-2 51 19 83.5t55 46.5t75 8t78 -32q21 -14 34 -27t15 -13q8 -8 7.5 -21.5t-9.5 -23.5
q-8 -9 -19.5 -9.5t-20.5 8.5q-7 7 -20 18t-29 21.5t-34 17.5t-35 6q-36 -12 -48.5 -36t-10 -54.5t17.5 -64.5t35.5 -65.5t42 -58.5t37.5 -43zM343 92q13 -17 32 -40.5t41 -41t43.5 -23t39.5 14.5q14 18 5 47t-28 60.5t-41.5 61t-36.5 49.5q-22 28 -46 59t-44 63
q-24 -12 -28 -40.5t4 -64t25 -74t34 -71.5z" />
    <glyph glyph-name="copyright" unicode="&#xa9;" horiz-adv-x="833" 
d="M391 166q-46 0 -88 17.5t-74 49.5t-49.5 73.5t-17.5 88.5q0 46 17.5 87.5t49.5 73.5q32 33 74 50t88 17t87.5 -17t74.5 -50q32 -32 49.5 -73.5t17.5 -87.5q0 -47 -17.5 -88.5t-49.5 -73.5q-33 -32 -74.5 -49.5t-87.5 -17.5zM391 583q-39 0 -73.5 -15t-60 -40.5
t-40.5 -59.5t-15 -73t15 -73.5t40.5 -60t60 -40.5t73.5 -15t73.5 15t60 40.5t40.5 60t15 73.5t-15 73t-40.5 59.5t-60 40.5t-73.5 15zM450 346q6 9 14.5 7t8.5 -10q-7 -15 -21 -31t-32.5 -29.5t-39.5 -22t-41 -8.5q-27 0 -38 22.5t-9 56t14.5 72t33 70.5t46 51.5t53.5 14.5
q12 -2 20.5 -9.5t11.5 -18t1.5 -22.5t-8.5 -24q-4 -5 -10.5 -8t-12.5 -3.5t-10 2t-4 9.5q4 4 9.5 12t8 15.5t1 13.5t-10.5 7q-26 4 -47 -16.5t-36 -50.5t-24.5 -62t-11.5 -51q0 -7 -0.5 -16.5t2 -18.5t7.5 -15.5t16 -6.5q14 0 30.5 6.5t31.5 17t27.5 22.5t19.5 24z" />
    <glyph glyph-name="ordfeminine" unicode="&#xaa;" 
d="M486 536q9 -4 12 -12.5t0 -16.5l-50 -82q-26 -43 -49 -66q-33 -34 -64 -34q-18 0 -27 14q-4 6 -7 15t-3 26q-14 -21 -32 -38t-40 -17q-5 0 -11 2q-34 8 -46 43q-10 25 -5 66q3 30 15 63.5t29 62.5t39.5 48t46.5 19q5 0 13 -2q27 -8 39 -35q2 8 5 16t5 16q3 9 11 11.5
t15.5 1t12.5 -7t3 -14.5l-1.5 -6t-4 -14.5t-5.5 -17.5t-5 -16q-12 -38 -20 -70t-14 -57q-5 -29 -6 -43.5t1 -20.5q8 4 25 19.5t43 57.5q20 32 33.5 54.5t13.5 23.5q4 8 12 11.5t16 -0.5zM308 529q2 18 0.5 36t-12.5 20h-2q-8 0 -21 -10.5t-28 -37.5q-14 -24 -24.5 -52
t-13.5 -54q0 -5 -0.5 -14.5t0.5 -19t5 -18t13 -10.5h1q5 0 17.5 11.5t27.5 38.5q14 26 24 55t13 55z" />
    <glyph glyph-name="guillemotleft" unicode="&#xab;" horiz-adv-x="674" 
d="M518 25q-7 0 -14 5q-18 11 -37 23q-17 11 -37.5 23.5t-42.5 26.5q-26 17 -46.5 30.5t-35.5 24.5q-29 20 -38.5 31t-10.5 22q-1 12 5 20.5t14 15.5q6 5 13.5 11t18.5 13q16 12 37.5 27.5t50.5 34.5q24 16 47 30.5t41 26t29 18.5l11 7q10 7 21 4t17 -13t3.5 -20.5
t-12.5 -16.5q-17 -11 -36 -23q-17 -11 -37.5 -24.5t-42.5 -27.5q-50 -32 -76 -51t-38 -29q11 -9 35 -25.5t69 -45.5q21 -13 40 -25t34 -21t24 -14.5l9 -5.5q10 -7 12.5 -17.5t-3.5 -20.5q-9 -14 -24 -14zM388 25q-7 0 -14 5q-18 11 -37 23q-17 11 -37.5 23.5t-42.5 26.5
q-26 17 -46.5 30.5t-35.5 24.5q-29 20 -38.5 31t-10.5 22q-1 12 5 20.5t14 15.5q6 5 13.5 11t18.5 13q16 12 37.5 27.5t50.5 34.5q24 16 47 30.5t41 26t29 18.5l11 7q10 7 21 4t17 -13t3.5 -20.5t-12.5 -16.5q-17 -11 -36 -23q-17 -11 -37.5 -24.5t-42.5 -27.5
q-50 -32 -76 -51t-38 -29q11 -9 35 -25.5t69 -45.5q21 -13 40 -25t34 -21t24 -14.5l9 -5.5q10 -7 12.5 -17.5t-3.5 -20.5q-9 -14 -24 -14z" />
    <glyph glyph-name="registered" unicode="&#xae;" horiz-adv-x="741" 
d="M153 384q0 48 18 90.5t49 73.5t73.5 49t90.5 18t90.5 -18t73.5 -49t49 -73.5t18 -90.5t-18 -90.5t-49 -73.5t-73.5 -49t-90.5 -18t-90.5 18t-73.5 49t-49 73.5t-18 90.5zM175 384q0 -44 16.5 -82t44.5 -66t66 -44.5t82 -16.5t83 16.5t68 44.5t45.5 66t16.5 82t-16.5 83
t-45.5 68t-68 45.5t-83 16.5t-82 -16.5t-66 -45.5t-44.5 -68t-16.5 -83zM472 232q5 3 10.5 0.5t7.5 -9.5q3 -5 0 -11t-9 -8q-32 -11 -55 -4.5t-40 25t-30 46t-25 57.5l-28 -91q-2 -9 -13 -9h-5q-12 5 -11 18l79 267q2 7 7.5 9.5t11.5 0.5q13 -3 10 -19l-35 -122q7 0 25.5 2
t40.5 9q68 23 80 83q5 23 -3 36t-18 20q-21 16 -51 16t-59 -16q-20 -11 -38 -26t-32 -29t-22.5 -24.5l-8.5 -10.5q-11 -9 -21 -1q-5 4 -5.5 9.5t2.5 10.5q1 1 10.5 12t24.5 26.5t34.5 31.5t40.5 28q18 9 37.5 14t39.5 4q19 0 35.5 -5.5t30.5 -14.5q11 -7 17.5 -16.5
t10.5 -20.5q8 -23 4 -51q-7 -38 -33 -64t-68 -40q-20 -8 -38 -10t-29 -4q8 -23 16 -48t20.5 -43.5t32 -27.5t49.5 0z" />
    <glyph glyph-name="plusminus" unicode="&#xb1;" horiz-adv-x="547" 
d="M437 319q12 0 19 -8.5t4 -21.5q-3 -12 -14.5 -21t-23.5 -9h-112l-28 -109q-3 -12 -13.5 -21t-23.5 -9q-12 0 -19 9t-4 21l28 109h-113q-12 0 -18 9t-3 21q3 13 13.5 21.5t22.5 8.5h113l30 116q3 13 14.5 21.5t23.5 8.5q13 0 19 -8.5t3 -21.5l-30 -116h112zM107 43
q-11 0 -16 6t-5 13.5t5 14t16 6.5h308q10 0 15.5 -6.5t5.5 -14t-5.5 -13.5t-15.5 -6h-308z" />
    <glyph glyph-name="twosuperior" unicode="&#xb2;" horiz-adv-x="393" 
d="M345 411q5 -4 4.5 -10t-5.5 -11q-8 -8 -19 -16.5t-25 -8.5q-9 1 -16 5t-13 9q-8 6 -16 11t-21 7q-10 0 -21.5 -3t-20.5 -7q-5 -3 -10.5 -7t-10.5 -4q-15 0 -12 17q2 8 8.5 12t14.5 8q14 9 37.5 25.5t49.5 36.5q32 25 52 44.5t31.5 34t16 24t4.5 14.5q2 5 0.5 11t-10.5 12
q-14 5 -31 -2.5t-31 -18.5q-17 -12 -29 -23.5t-12 -12.5q-5 -5 -11.5 -6t-11.5 2q-9 9 2 22q1 1 14 14.5t33 27.5q12 8 23 14.5t22 10.5q31 9 50 0h1h1q17 -11 20.5 -24.5t1.5 -24.5q-6 -30 -43 -72q-15 -16 -34.5 -33t-42.5 -36q-9 -8 -18 -14t-17 -12q16 -3 26.5 -9.5
t17.5 -12.5q4 -4 7.5 -7t5.5 -3q3 0 16 13q5 5 11 6t11 -3z" />
    <glyph glyph-name="threesuperior" unicode="&#xb3;" horiz-adv-x="328" 
d="M243 652q12 2 25.5 -0.5t24.5 -9.5t17.5 -18.5t5.5 -26.5q-3 -33 -48 -69q-7 -6 -12.5 -10t-10.5 -9q26 -28 26 -66q-2 -47 -42 -69q-19 -10 -33 -10q-8 0 -14 2t-11 4q-29 13 -47 53q-6 15 -9 25.5t-3 11.5q-2 6 1.5 11.5t9.5 7.5t11.5 -1.5t7.5 -10.5q1 -6 4.5 -16
t9 -20.5t13 -19t16.5 -12.5q13 -7 29 2q25 14 25 43q0 17 -8.5 31t-22.5 22q-6 4 -8 10.5t3 12.5q4 8 12 8q5 3 14 9t19 15q15 12 24.5 25.5t11 24.5t-6.5 17t-29 2q-12 -2 -33 -13t-51 -41q-4 -5 -10.5 -5t-11.5 5q-10 11 0 23q28 27 53 43t48 19z" />
    <glyph glyph-name="acute" unicode="&#xb4;" horiz-adv-x="331" 
d="M159 537q-7 0 -11 4q-6 5 -6.5 13t6.5 15l77 103q7 7 18 4t17 -8t11 -15t0 -17l-95 -91q-6 -8 -17 -8z" />
    <glyph glyph-name="paragraph" unicode="&#xb6;" horiz-adv-x="652" 
d="M566 825q13 0 21.5 -9t8.5 -21q0 -13 -8.5 -21.5t-21.5 -8.5h-107v-721q0 -13 -9 -21.5t-21 -8.5q-13 0 -21.5 8.5t-8.5 21.5v721h-102v-721q0 -13 -9 -21.5t-21 -8.5q-13 0 -21.5 8.5t-8.5 21.5v395h-3q-40 0 -75 15t-61 41t-41 61t-15 75t15 75t41 61t61 41t75 15h3v2
h329v0z" />
    <glyph glyph-name="cedilla" unicode="&#xb8;" horiz-adv-x="627" 
d="M275 -137q-8 0 -6 8q3 10 14 12q14 2 30.5 9t27 17.5t10.5 23t-18 24.5q-5 7 2 19.5t21 19.5q19 10 26.5 4t8.5 -10q0 -24 -9.5 -45.5t-25.5 -38.5t-37 -28t-43 -15h-1z" />
    <glyph glyph-name="onesuperior" unicode="&#xb9;" horiz-adv-x="164" 
d="M192 559q12 -4 18 -14.5t2 -22.5l-152 -500q-3 -10 -11 -15.5t-18 -5.5q-5 0 -8 1q-12 4 -18 15t-2 22l120 395l-73 -57q-9 -6 -19 -6q-14 0 -23 11q-8 10 -6.5 22t11.5 20l140 111l2 4q3 12 14 18t23 2z" />
    <glyph glyph-name="ordmasculine" unicode="&#xba;" horiz-adv-x="304" 
d="M378 283q11 -8 12.5 -19.5t-5.5 -22.5q-12 -23 -33.5 -49t-48 -48t-54.5 -35.5t-52 -10.5q-10 -17 -24 -34t-30.5 -30.5t-35 -22t-37.5 -8.5q-29 0 -47 15.5t-28 39.5t-12.5 51.5t0.5 51.5q3 23 10.5 53.5t20 62.5t29.5 62t39 52.5t48 34.5t57 8q38 -11 52 -44.5
t13.5 -75t-10 -84t-19.5 -71.5q18 3 38 20.5t36.5 38t27 37t11.5 17.5q7 11 19 14.5t23 -3.5zM167 373q-11 0 -22.5 -8.5t-22 -20.5t-18.5 -24.5t-12 -21.5q2 -12 9 -27.5t17 -31.5t22 -30t24 -24q2 6 7 21.5t9 35t7 41t2.5 40.5t-5.5 32.5t-17 17.5zM70 65q7 0 21.5 13
t33.5 42q-24 17 -40.5 36t-27.5 46q-3 -11 -7.5 -32.5t-5.5 -43t4 -39.5t22 -22z" />
    <glyph glyph-name="guillemotright" unicode="&#xbb;" horiz-adv-x="557" 
d="M111 393q8 0 12 -6q15 -11 33 -23q15 -11 34 -24.5t39 -27.5l73 -57q25 -21 33.5 -32t6.5 -22q-2 -12 -9 -20.5t-16 -15.5q-7 -5 -15.5 -10.5t-20.5 -12.5q-17 -12 -41.5 -27t-56.5 -33q-26 -15 -51 -29.5t-44.5 -25.5t-32 -17.5l-12.5 -6.5q-11 -7 -21 -3.5t-14 13.5
q-5 10 -0.5 20.5t15.5 16.5q19 11 39 22q17 10 39.5 23t47.5 27q54 31 83.5 49.5t42.5 27.5q-10 10 -31 27t-60 47q-19 13 -36 25.5t-30.5 22t-22 15l-8.5 5.5q-8 7 -9.5 17.5t6.5 20.5q10 14 27 14zM251 393q8 0 12 -6q15 -11 33 -23q15 -11 34 -24.5t39 -27.5l73 -57
q25 -21 33.5 -32t6.5 -22q-2 -12 -9 -20.5t-16 -15.5q-7 -5 -15.5 -10.5t-20.5 -12.5q-17 -12 -41.5 -27t-56.5 -33q-26 -15 -51 -29.5t-44.5 -25.5t-32 -17.5l-12.5 -6.5q-11 -7 -21 -3.5t-14 13.5q-5 10 -0.5 20.5t15.5 16.5q19 11 39 22q17 10 39.5 23t47.5 27
q54 31 83.5 49.5t42.5 27.5q-10 10 -31 27t-60 47q-19 13 -36 25.5t-30.5 22t-22 15l-8.5 5.5q-8 7 -9.5 17.5t6.5 20.5q10 14 27 14z" />
    <glyph glyph-name="onequarter" unicode="&#xbc;" horiz-adv-x="483" 
d="M410 309q11 -6 6 -20l-54 -138h14q6 0 9 -5t2 -11q-4 -16 -15 -16h-22l-31 -81q-5 -12 -14 -12q-3 0 -4 1q-11 6 -6 20l29 72h-80q-5 0 -9 4.5t-2 11.5q0 1 2 5t11 20.5t28.5 50.5t55.5 95q3 6 9 8t10 -1q5 -3 5 -9.5t-3 -12.5l-82 -140h66l57 148q5 14 18 10zM372 644
q4 10 13 6t5 -14l-255 -613q-4 -10 -13 -6t-5 14zM217 646q6 -2 9 -8t1 -13l-79 -282q-5 -11 -16 -11h-4q-6 2 -9 8.5t-1 12.5l63 223l-39 -32q-4 -4 -10 -4q-8 0 -12 6q-9 14 3 24l73 63l1 2q5 16 20 11z" />
    <glyph glyph-name="onehalf" unicode="&#xbd;" horiz-adv-x="657" 
d="M515 66q10 -12 -2 -24q-8 -8 -19.5 -17t-25.5 -9h-2q-10 1 -16.5 5.5t-14.5 10.5t-16 11t-23 7q-10 0 -22 -3t-21 -7q-5 -3 -11.5 -8t-13.5 -5t-10 5.5t-2 13.5q2 8 9 12.5t16 8.5q15 10 40 27.5t53 39.5q34 26 55 46.5t33.5 35.5t17 25.5t5.5 16.5q1 5 -0.5 11.5
t-11.5 12.5q-14 5 -32.5 -3.5t-32.5 -19.5q-10 -7 -18 -13.5t-14 -11.5q-7 -6 -13 -12q-5 -6 -11.5 -7.5t-11.5 3.5q-4 4 -4 10.5t5 11.5l15 15t36 30q13 9 25 16t23 11q16 5 29 5t25 -5h1q18 -12 22 -26.5t2 -26.5q-6 -31 -47 -78q-32 -33 -81 -71l-38 -29q17 -2 28.5 -9
t19.5 -15t13 -8t17 13q5 5 12.5 6.5t11.5 -2.5zM332 671q8 -2 11.5 -9t1.5 -15l-97 -319q-5 -14 -19 -14q-3 0 -5 1q-8 2 -11.5 9t-1.5 15l77 252l-47 -36q-5 -4 -12 -4q-9 0 -15 7q-5 6 -4 14t8 13l89 70l1 3q2 8 9 11.5t15 1.5zM539 666q3 4 7 5t7.5 -1t5 -6t-1.5 -8
l-360 -645q-3 -5 -7 -5.5t-7.5 1.5t-5 5.5t1.5 8.5z" />
    <glyph glyph-name="threequarters" unicode="&#xbe;" horiz-adv-x="690" 
d="M263 663q13 2 28.5 -1t27.5 -10.5t19.5 -20t5.5 -29.5q-3 -35 -53 -76q-17 -13 -26 -20q14 -14 22 -33t7 -39q-2 -52 -46 -77q-20 -10 -38 -10q-8 0 -15 2t-12 4q-32 14 -53 58q-7 17 -10.5 28.5t-3.5 12.5q-2 7 2 13t12 8q16 3 21 -13q1 -6 5 -17t10 -22.5t14 -21.5
t18 -14q12 -7 32 3q14 7 21 19.5t8 27.5q1 17 -8.5 33t-26.5 26q-6 3 -8.5 10.5t2.5 13.5q6 8 14 8q5 4 15 10.5t21 15.5q16 13 27 28.5t13 27.5t-7 18.5t-32 2.5q-14 -2 -37 -14.5t-57 -45.5q-5 -5 -12 -5t-12 5q-6 5 -5.5 12.5t5.5 12.5q63 62 112 69zM188 6q-5 0 -7 1
q-10 2 -13 10t2 17l315 605q5 10 13.5 14.5t19.5 2.5q8 -3 11.5 -10.5t-1.5 -17.5l-316 -606q-8 -16 -24 -16zM576 297q16 -5 11 -22l-48 -158h19q8 0 13 -5t5 -13t-5 -13t-13 -5h-30l-28 -92q-2 -6 -7 -9.5t-10 -3.5q-3 0 -5 1q-8 2 -11 8t0 14l25 82h-109q-8 0 -13 5
t-5 13q0 1 2 6t11.5 23.5t30.5 57.5t59 109q3 7 10 9t14 -2q6 -4 8 -11t-2 -14l-87 -160h91l52 169q2 8 8.5 10.5t13.5 0.5z" />
    <glyph glyph-name="questiondown" unicode="&#xbf;" horiz-adv-x="484" 
d="M384 576q4 0 7 -1q11 -3 15 -14t0 -22q-17 -53 -40 -95.5t-49 -78t-53 -64.5t-51 -54q-24 -24 -42 -43t-29.5 -36.5t-16 -34t-1.5 -34.5q8 -17 16.5 -22t14.5 -6q16 -2 40.5 12t53.5 41q26 22 42 41t17 19q7 10 18 11.5t19 -6.5t8.5 -20t-7.5 -21q-2 -1 -19.5 -22
t-44.5 -47q-80 -72 -136 -66q-17 2 -37.5 13.5t-34.5 46.5l-1 3v3q-7 31 -0.5 60t24.5 58q16 24 37 46t44 47q25 24 50 51t48.5 58.5t44 69.5t35.5 85q8 22 28 22zM408 703q14 0 23 -11q2 -3 4.5 -8.5t2.5 -10.5q0 -11 -8 -21.5t-22 -10.5t-21 10.5t-7 21.5q0 13 7 19
q6 11 21 11z" />
    <glyph glyph-name="Agrave" unicode="&#xc0;" horiz-adv-x="521" 
d="M599 682q-29 17 -70 20.5t-85.5 -1.5t-88 -17t-77 -27t-53.5 -30.5t-17 -27.5q0 -4 2 -8q4 -9 13 -16q7 -5 13.5 -6.5t11.5 -1.5q6 0 11 1q6 8 15 16q8 7 19.5 15.5t28.5 16.5q27 12 59 17.5t68 5.5q-27 -21 -55 -49q-42 -41 -94 -105.5t-106 -139.5h-150q-12 0 -21 -9
t-9 -22q0 -12 9 -21t21 -9h110q-38 -56 -73 -108.5t-63 -94t-44.5 -66.5l-16.5 -25q-6 -11 -3 -23t14 -18q7 -4 15 -4q16 0 26 15q0 1 19 29t49.5 74t69 103.5t79.5 117.5h201q-14 -49 -25.5 -92.5t-20 -76t-13 -51.5t-4.5 -20q-3 -12 3 -23t18 -14q12 -4 22.5 2t14.5 18
q0 1 5 22t14 56t21.5 81t27.5 98h31q13 0 21.5 9t8.5 21q0 13 -8.5 22t-21.5 9h-14q9 33 22 69t26.5 71.5t25 68.5t18.5 59.5t8 44.5t-8 24zM444 345h-176q51 71 93 120.5t75 81.5t57 49t39 23q-6 -22 -16.5 -53t-22.5 -67t-24.5 -75.5t-24.5 -78.5zM483 720q-10 0 -14 7
l-80 76q-5 6 -0.5 14t9.5 13q5 4 14.5 6.5t15.5 -3.5l64 -86q6 -6 5.5 -13t-5.5 -11q-3 -3 -9 -3z" />
    <glyph glyph-name="Aacute" unicode="&#xc1;" horiz-adv-x="520" 
d="M599 682q-29 17 -70 20.5t-85.5 -1.5t-88 -17t-77 -27t-53.5 -30.5t-17 -27.5q0 -4 2 -8q4 -9 13 -16q7 -5 13.5 -6.5t11.5 -1.5q6 0 11 1q6 8 15 16q8 7 19.5 15.5t28.5 16.5q27 12 59 17.5t68 5.5q-27 -21 -55 -49q-42 -41 -94 -105.5t-106 -139.5h-150q-12 0 -21 -9
t-9 -22q0 -12 9 -21t21 -9h110q-38 -56 -73 -108.5t-63 -94t-44.5 -66.5l-16.5 -25q-6 -11 -3 -23t14 -18q7 -4 15 -4q16 0 26 15q0 1 19 29t49.5 74t69 103.5t79.5 117.5h201q-14 -49 -25.5 -92.5t-20 -76t-13 -51.5t-4.5 -20q-3 -12 3 -23t18 -14q12 -4 22.5 2t14.5 18
q0 1 5 22t14 56t21.5 81t27.5 98h31q13 0 21.5 9t8.5 21q0 13 -8.5 22t-21.5 9h-14q9 33 22 69t26.5 71.5t25 68.5t18.5 59.5t8 44.5t-8 24zM444 345h-176q51 71 93 120.5t75 81.5t57 49t39 23q-6 -22 -16.5 -53t-22.5 -67t-24.5 -75.5t-24.5 -78.5zM543 815q-4 -10 -13 -13
l-118 -58q-8 -3 -16 5t-11 16q-2 8 -1 19t10 15l123 38q8 4 16 1t10 -11q3 -6 0 -12z" />
    <glyph glyph-name="Acircumflex" unicode="&#xc2;" horiz-adv-x="486" 
d="M484 839q7 1 13 -6l84 -78q5 -6 2 -16.5t-8 -17.5q-5 -5 -13 -9t-13 1l-64 84l-71 -86q-6 -5 -14 0.5t-13 11.5q-3 6 -5 17t3 16l89 78q1 1 2 1t1 1zM599 682q-29 17 -70 20.5t-85.5 -1.5t-88 -17t-77 -27t-53.5 -30.5t-17 -27.5q0 -4 2 -8q4 -9 13 -16q7 -5 13.5 -6.5
t11.5 -1.5q6 0 11 1q6 8 15 16q8 7 19.5 15.5t28.5 16.5q27 12 59 17.5t68 5.5q-27 -21 -55 -49q-42 -41 -94 -105.5t-106 -139.5h-150q-12 0 -21 -9t-9 -22q0 -12 9 -21t21 -9h110q-38 -56 -73 -108.5t-63 -94t-44.5 -66.5l-16.5 -25q-6 -11 -3 -23t14 -18q7 -4 15 -4
q16 0 26 15q0 1 19 29t49.5 74t69 103.5t79.5 117.5h201q-14 -49 -25.5 -92.5t-20 -76t-13 -51.5t-4.5 -20q-3 -12 3 -23t18 -14q12 -4 22.5 2t14.5 18q0 1 5 22t14 56t21.5 81t27.5 98h21q13 0 21.5 9t8.5 21q0 13 -8.5 22t-21.5 9h-4q9 33 22 69t26.5 71.5t25 68.5
t18.5 59.5t8 44.5t-8 24zM444 345h-176q51 71 93 120.5t75 81.5t57 49t39 23q-6 -22 -16.5 -53t-22.5 -67t-24.5 -75.5t-24.5 -78.5z" />
    <glyph glyph-name="Atilde" unicode="&#xc3;" horiz-adv-x="486" 
d="M303 783q13 15 27 26q12 10 27.5 18.5t32.5 8.5t32 -7.5t29 -17t26.5 -18t24.5 -9.5q12 -2 26.5 6t26.5 18q14 11 29 26l3 -3l2 -4t1 -5t-1 -5l-2 -4q-2 -2 -3 -4q-13 -15 -27 -26q-12 -10 -27 -17.5t-29 -7.5t-28 8.5t-28 18t-28 17.5t-27 8q-11 -1 -25.5 -9t-28.5 -18
q-16 -11 -33 -26q-4 4 -5 8q-3 8 5 18zM599 682q-29 17 -70 20.5t-85.5 -1.5t-88 -17t-77 -27t-53.5 -30.5t-17 -27.5q0 -4 2 -8q4 -9 13 -16q7 -5 13.5 -6.5t11.5 -1.5q6 0 11 1q6 8 15 16q8 7 19.5 15.5t28.5 16.5q27 12 59 17.5t68 5.5q-27 -21 -55 -49
q-42 -41 -94 -105.5t-106 -139.5h-150q-12 0 -21 -9t-9 -22q0 -12 9 -21t21 -9h110q-38 -56 -73 -108.5t-63 -94t-44.5 -66.5l-16.5 -25q-6 -11 -3 -23t14 -18q7 -4 15 -4q16 0 26 15q0 1 19 29t49.5 74t69 103.5t79.5 117.5h201q-14 -49 -25.5 -92.5t-20 -76t-13 -51.5
t-4.5 -20q-3 -12 3 -23t18 -14q12 -4 22.5 2t14.5 18q0 1 5 22t14 56t21.5 81t27.5 98h31q13 0 21.5 9t8.5 21q0 13 -8.5 22t-21.5 9h-14q9 33 22 69t26.5 71.5t25 68.5t18.5 59.5t8 44.5t-8 24zM444 345h-176q51 71 93 120.5t75 81.5t57 49t39 23q-6 -22 -16.5 -53
t-22.5 -67t-24.5 -75.5t-24.5 -78.5z" />
    <glyph glyph-name="Adieresis" unicode="&#xc4;" horiz-adv-x="486" 
d="M599 682q9 -6 8 -24t-8 -44.5t-18.5 -59.5t-25 -68.5t-26.5 -71.5t-22 -69h14q13 0 21.5 -9t8.5 -22q0 -12 -8.5 -21t-21.5 -9h-31q-15 -52 -27.5 -98t-21.5 -81t-14 -56t-5 -22q-4 -12 -14.5 -18t-22.5 -2q-12 3 -18 14t-3 23q0 1 4.5 20t13 51.5t20 76t25.5 92.5h-201
q-41 -60 -79.5 -117.5t-69 -103.5t-49.5 -74t-19 -29q-10 -15 -26 -15q-8 0 -15 4q-11 6 -14 18t3 23l16.5 25t44.5 66.5t63 94t73 108.5h-110q-12 0 -21 9t-9 21q0 13 9 22t21 9h150q54 75 106 139.5t94 105.5q28 28 55 49q-36 0 -68 -5.5t-59 -17.5q-17 -8 -28.5 -16.5
t-19.5 -15.5q-9 -8 -15 -16q-5 -1 -11 -1q-5 0 -11.5 1.5t-13.5 6.5q-9 7 -13 16q-2 4 -2 8q-3 12 17 27.5t53.5 30.5t77 27t88 17t85.5 1.5t70 -20.5zM444 345q12 39 24.5 78.5t24.5 75.5t22.5 67t16.5 53q-15 -6 -39 -23t-57 -49t-75 -81.5t-93 -120.5h176zM585 793
q0 -21 -12.5 -31t-27.5 -10t-27.5 10t-12.5 31v2q0 21 12.5 31t27.5 10t27.5 -10t12.5 -31v-2zM481 795q0 -21 -12.5 -31t-27.5 -10t-27.5 10t-12.5 31v2q0 21 12.5 31t27.5 10t27.5 -10t12.5 -31v-2z" />
    <glyph glyph-name="Aring" unicode="&#xc5;" horiz-adv-x="486" 
d="M424 734q0 22 15 37.5t37 15.5t37.5 -15.5t15.5 -37.5q0 -16 -10 -31q47 -3 80 -21q9 -6 8 -24t-8 -44.5t-18.5 -59.5t-25 -68.5t-26.5 -71.5t-22 -69h14q13 0 21.5 -9t8.5 -22q0 -12 -8.5 -21t-21.5 -9h-31q-15 -52 -27.5 -98t-21.5 -81t-14 -56t-5 -22
q-4 -12 -14.5 -18t-22.5 -2q-12 3 -18 14t-3 23q0 1 4.5 20t13 51.5t20 76t25.5 92.5h-201q-41 -60 -79.5 -117.5t-69 -103.5t-49.5 -74t-19 -29q-10 -15 -26 -15q-8 0 -15 4q-11 6 -14 18t3 23l16.5 25t44.5 66.5t63 94t73 108.5h-110q-12 0 -21 9t-9 21q0 13 9 22t21 9
h150q54 75 106 139.5t94 105.5q28 28 55 49q-36 0 -68 -5.5t-59 -17.5q-17 -8 -28.5 -16.5t-19.5 -15.5q-9 -8 -15 -16q-5 -1 -11 -1q-5 0 -11.5 1.5t-13.5 6.5q-9 7 -13 16q-2 4 -2 8q-3 12 16 27t51.5 29.5t74.5 26.5t86 18q-12 13 -12 34zM444 345q12 39 24.5 78.5
t24.5 75.5t22.5 67t16.5 53q-15 -6 -39 -23t-57 -49t-75 -81.5t-93 -120.5h176zM448 735q0 -13 8.5 -21.5t21.5 -8.5q12 0 20.5 8.5t8.5 21.5q0 12 -8.5 21t-20.5 9q-13 0 -21.5 -9t-8.5 -21z" />
    <glyph glyph-name="AE" unicode="&#xc6;" horiz-adv-x="883" 
d="M516 3q-26 0 -49 9.5t-42 29.5q-1 -4 -1.5 -6.5t-0.5 -4.5q-1 -3 -1 -4q-4 -12 -14.5 -18t-22.5 -2q-12 3 -18 14t-3 23q0 1 4.5 20t13 51.5t20 76t25.5 92.5h-201q-41 -60 -79.5 -117.5t-69 -103.5t-49.5 -74t-19 -29q-10 -15 -26 -15q-8 0 -15 4q-11 6 -14 18t3 23
l16.5 25t44.5 66.5t63 94t73 108.5h-110q-12 0 -21 9t-9 21q0 13 9 22t21 9h150q54 75 106 139.5t94 105.5q28 28 55 49q-36 0 -68 -5.5t-59 -17.5q-17 -8 -28.5 -16.5t-19.5 -15.5q-9 -8 -15 -16q-5 -1 -11 -1q-5 0 -11.5 1.5t-13.5 6.5q-9 7 -13 16q-2 4 -2 8
q-3 12 17 27.5t53.5 30.5t77 27t88 17t85.5 1.5t70 -20.5q13 -10 5 -50q19 17 41 29t44 17q30 7 58 0.5t50 -24.5q21 -17 33 -39t12 -48q2 -52 -42 -108q-15 -22 -27 -35t-13 -13q-9 -8 -21.5 -7t-20.5 9q-8 9 -7 21.5t9 20.5q7 6 17.5 18t21 27t17.5 32t7 33q0 25 -22 45
q-15 11 -31.5 13t-33 -3t-33 -15.5t-29.5 -23.5q-19 -20 -32.5 -45.5t-17 -54t4.5 -58t31 -57.5l7 -8v-10q0 -16 -12 -29t-41 -36q-17 -15 -38.5 -33.5t-40 -39.5t-32 -42.5t-14.5 -41.5q-1 -24 17 -42q23 -25 54 -23q35 2 79 30.5t96 79.5q21 20 38 39t29.5 34.5t19.5 25
l7 9.5q8 10 20 12t21 -6q10 -8 12 -19.5t-6 -21.5q0 -1 -8 -11t-21 -25.5t-31.5 -36t-39.5 -41.5q-121 -121 -212 -127h-8zM444 345q12 39 24.5 78.5t24.5 75.5t22.5 67t16.5 53q-15 -6 -39 -23t-57 -49t-75 -81.5t-93 -120.5h176zM507 345h44q4 0 6 -1q1 2 5 4
q-23 32 -32 68q-13 -36 -23 -71z" />
    <glyph glyph-name="Ccedilla" unicode="&#xc7;" horiz-adv-x="357" 
d="M111 -86q-9 4 -6.5 14t10.5 9q6 -1 13 3t12.5 10t9.5 13.5t4 13.5q0 11 -7 19t-17 10l-35 -1q-68 3 -94 67q-21 50 -13 133q5 39 18.5 93.5t35 113t52 115.5t68.5 99.5t84.5 65t100.5 13.5q31 -5 51 -23t28 -43.5t4 -55.5t-21 -59q-10 -11 -26 -19t-30.5 -9.5t-24.5 5
t-9 23.5q10 12 22.5 30.5t18.5 37.5t2.5 33.5t-24.5 17.5q-42 6 -78.5 -15.5t-67.5 -59.5t-56.5 -88t-43.5 -101t-29.5 -97.5t-15.5 -78.5q-2 -19 -2 -42.5t5 -44.5t17.5 -35.5t35.5 -15.5q2 -1 5 -1q35 0 75 24.5t76.5 59.5t66 73.5t44.5 67.5q8 10 18 14t19 2.5t15.5 -7.5
t6.5 -15q-15 -31 -43 -71.5t-64 -79.5t-78 -71t-85 -47q17 -15 17 -38q0 -11 -6 -22t-15 -20t-20 -14.5t-22 -5.5h-2v0z" />
    <glyph glyph-name="Egrave" unicode="&#xc8;" 
d="M100 3q-54 0 -92 41q-36 38 -33 85q1 29 16 57t37 53.5t47 47.5t46 40q6 5 12.5 10.5t12.5 10.5q-45 64 -36 140q11 77 68 134q20 22 45 36.5t50 19.5q30 7 58 0.5t50 -24.5q21 -17 33 -39t12 -48q2 -52 -42 -108q-15 -22 -27 -35t-13 -13q-9 -8 -21.5 -7t-20.5 9
q-8 9 -7 21.5t9 20.5q7 6 17.5 18t21 27t17.5 32t7 33q0 25 -22 45q-15 11 -31.5 13t-33 -3t-33 -15.5t-29.5 -23.5q-19 -20 -32.5 -45.5t-17 -54t4.5 -58t31 -57.5l7 -8v-10q0 -16 -12 -29t-41 -36q-17 -15 -38.5 -33.5t-40 -39.5t-32 -42.5t-14.5 -41.5q-1 -24 17 -42
q23 -25 54 -23q35 2 79 30.5t96 79.5q21 20 38 39t29.5 34.5t19.5 25l7 9.5q8 10 20 12t21 -6q10 -8 12 -19.5t-6 -21.5q0 -1 -8 -11t-21 -25.5t-31.5 -36t-39.5 -41.5q-121 -121 -212 -127h-8zM303 697q-11 0 -17 8l-95 91q-5 7 0 17t11 15t17 8t18 -4l77 -103
q7 -7 6.5 -15t-6.5 -13q-4 -4 -11 -4z" />
    <glyph glyph-name="Eacute" unicode="&#xc9;" 
d="M100 3q-54 0 -92 41q-36 38 -33 85q1 29 16 57t37 53.5t47 47.5t46 40q6 5 12.5 10.5t12.5 10.5q-45 64 -36 140q11 77 68 134q20 22 45 36.5t50 19.5q30 7 58 0.5t50 -24.5q21 -17 33 -39t12 -48q2 -52 -42 -108q-15 -22 -27 -35t-13 -13q-9 -8 -21.5 -7t-20.5 9
q-8 9 -7 21.5t9 20.5q7 6 17.5 18t21 27t17.5 32t7 33q0 25 -22 45q-15 11 -31.5 13t-33 -3t-33 -15.5t-29.5 -23.5q-19 -20 -32.5 -45.5t-17 -54t4.5 -58t31 -57.5l7 -8v-10q0 -16 -12 -29t-41 -36q-17 -15 -38.5 -33.5t-40 -39.5t-32 -42.5t-14.5 -41.5q-1 -24 17 -42
q23 -25 54 -23q35 2 79 30.5t96 79.5q21 20 38 39t29.5 34.5t19.5 25l7 9.5q8 10 20 12t21 -6q10 -8 12 -19.5t-6 -21.5q0 -1 -8 -11t-21 -25.5t-31.5 -36t-39.5 -41.5q-121 -121 -212 -127h-8zM274 697q-7 0 -11 4q-6 5 -6.5 13t6.5 15l77 103q7 7 18 4t17 -8t11 -15t0 -17
l-95 -91q-6 -8 -17 -8z" />
    <glyph glyph-name="Ecircumflex" unicode="&#xca;" 
d="M100 3q-54 0 -92 41q-36 38 -33 85q1 29 16 57t37 53.5t47 47.5t46 40q6 5 12.5 10.5t12.5 10.5q-45 64 -36 140q11 77 68 134q20 22 45 36.5t50 19.5q30 7 58 0.5t50 -24.5q21 -17 33 -39t12 -48q2 -52 -42 -108q-15 -22 -27 -35t-13 -13q-9 -8 -21.5 -7t-20.5 9
q-8 9 -7 21.5t9 20.5q7 6 17.5 18t21 27t17.5 32t7 33q0 25 -22 45q-15 11 -31.5 13t-33 -3t-33 -15.5t-29.5 -23.5q-19 -20 -32.5 -45.5t-17 -54t4.5 -58t31 -57.5l7 -8v-10q0 -16 -12 -29t-41 -36q-17 -15 -38.5 -33.5t-40 -39.5t-32 -42.5t-14.5 -41.5q-1 -24 17 -42
q23 -25 54 -23q35 2 79 30.5t96 79.5q21 20 38 39t29.5 34.5t19.5 25l7 9.5q8 10 20 12t21 -6q10 -8 12 -19.5t-6 -21.5q0 -1 -8 -11t-21 -25.5t-31.5 -36t-39.5 -41.5q-121 -121 -212 -127h-8zM304 829q7 1 13 -6l84 -78q5 -6 2 -16.5t-8 -17.5q-5 -5 -13 -9t-13 1l-64 84
l-71 -86q-6 -5 -14 0.5t-13 11.5q-3 6 -5 17t3 16l89 78q1 1 2 1t1 1z" />
    <glyph glyph-name="Edieresis" unicode="&#xcb;" 
d="M100 3q-54 0 -92 41q-36 38 -33 85q1 29 16 57t37 53.5t47 47.5t46 40q6 5 12.5 10.5t12.5 10.5q-45 64 -36 140q11 77 68 134q20 22 45 36.5t50 19.5q30 7 58 0.5t50 -24.5q21 -17 33 -39t12 -48q2 -52 -42 -108q-15 -22 -27 -35t-13 -13q-9 -8 -21.5 -7t-20.5 9
q-8 9 -7 21.5t9 20.5q7 6 17.5 18t21 27t17.5 32t7 33q0 25 -22 45q-15 11 -31.5 13t-33 -3t-33 -15.5t-29.5 -23.5q-19 -20 -32.5 -45.5t-17 -54t4.5 -58t31 -57.5l7 -8v-10q0 -16 -12 -29t-41 -36q-17 -15 -38.5 -33.5t-40 -39.5t-32 -42.5t-14.5 -41.5q-1 -24 17 -42
q23 -25 54 -23q35 2 79 30.5t96 79.5q21 20 38 39t29.5 34.5t19.5 25l7 9.5q8 10 20 12t21 -6q10 -8 12 -19.5t-6 -21.5q0 -1 -8 -11t-21 -25.5t-31.5 -36t-39.5 -41.5q-121 -121 -212 -127h-8zM406 785q0 -22 -13.5 -33t-29 -11t-29 11t-13.5 33v4q0 22 13.5 33t29 11
t29 -11t13.5 -33v-4zM286 788q0 -22 -13.5 -33t-29 -11t-29 11t-13.5 33v4q0 22 13.5 33t29 11t29 -11t13.5 -33v-4z" />
    <glyph glyph-name="Igrave" unicode="&#xcc;" horiz-adv-x="337" 
d="M88 -5q-7 0 -11 3q-11 5 -15 17t1 23l10.5 30t26.5 75.5t34 101t35 108.5q23 71 33.5 122.5t12 85.5t-4 52t-14.5 22q-3 1 -6.5 1t-10.5 -2q-5 -2 -13 -8t-18.5 -18t-23.5 -31t-28 -47q-17 -35 -28 -62t-12 -27q-5 -12 -16 -18t-22 -1q-11 4 -16 15t0 24q0 2 11.5 30.5
t31.5 66.5q57 106 112 132q35 15 66 2q11 -6 24 -19.5t21 -41.5q5 -17 6 -39t-1 -48q-5 -40 -16.5 -92.5t-31.5 -116.5q-17 -54 -35.5 -110t-34.5 -102t-26.5 -76t-11.5 -32q-9 -20 -29 -20zM222 724q-3 0 -7 1.5t-6 4.5l-75 72q-4 5 0 12.5t9 12.5q5 4 14 6t14 -3l60 -81
q5 -5 5 -11.5t-5 -10.5q-3 -3 -9 -3z" />
    <glyph glyph-name="Iacute" unicode="&#xcd;" horiz-adv-x="337" 
d="M88 -5q-7 0 -11 3q-11 5 -15 17t1 23l10.5 30t26.5 75.5t34 101t35 108.5q23 71 33.5 122.5t12 85.5t-4 52t-14.5 22q-3 1 -6.5 1t-10.5 -2q-5 -2 -13 -8t-18.5 -18t-23.5 -31t-28 -47q-17 -35 -28 -62t-12 -27q-5 -12 -16 -18t-22 -1q-11 4 -16 15t0 24q0 2 11.5 30.5
t31.5 66.5q57 106 112 132q35 15 66 2q11 -6 24 -19.5t21 -41.5q5 -17 6 -39t-1 -48q-5 -40 -16.5 -92.5t-31.5 -116.5q-17 -54 -35.5 -110t-34.5 -102t-26.5 -76t-11.5 -32q-9 -20 -29 -20zM164 737q-5 0 -8 3q-5 3 -5 9t5 11l55 75q5 5 13 3t13 -6t8.5 -11t-0.5 -12
l-69 -66q-5 -6 -12 -6z" />
    <glyph glyph-name="Icircumflex" unicode="&#xce;" horiz-adv-x="337" 
d="M204 838q7 1 13 -6l84 -78q5 -6 2 -16.5t-8 -17.5q-5 -5 -13 -9t-13 1l-64 84l-71 -86q-6 -5 -14 0.5t-13 11.5q-3 6 -5 17t3 16l89 78q1 1 2 1t1 1zM88 -5q-7 0 -11 3q-11 5 -15 17t1 23l10.5 30t26.5 75.5t34 101t35 108.5q23 71 33.5 122.5t12 85.5t-4 52t-14.5 22
q-3 1 -6.5 1t-10.5 -2q-5 -2 -13.5 -8t-19.5 -18t-25 -31t-29 -47q-17 -35 -30 -62t-14 -27q-5 -12 -12 -18t-18 -1q-11 4 -16 15t0 24q0 2 11.5 30.5t31.5 66.5q57 106 112 132q35 15 66 2q11 -6 24 -19.5t21 -41.5q5 -17 6 -39t-1 -48q-5 -40 -16.5 -92.5t-31.5 -116.5
q-17 -54 -35.5 -110t-34.5 -102t-26.5 -76t-11.5 -32q-9 -20 -29 -20z" />
    <glyph glyph-name="Idieresis" unicode="&#xcf;" horiz-adv-x="337" 
d="M225 777q-8 18 -2 32.5t18 21t26 3t22 -21.5v-1q8 -18 2.5 -32.5t-17.5 -21t-26 -3t-22 21.5zM88 -5q-7 0 -11 3q-11 5 -15 17t1 23l10.5 30t26.5 75.5t34 101t35 108.5q23 71 33.5 122.5t12 85.5t-4 52t-14.5 22q-3 1 -6.5 1t-10.5 -2q-5 -2 -13 -8t-18.5 -18t-23.5 -31
t-28 -47q-17 -35 -28 -62t-12 -27q-5 -12 -16 -18t-22 -1q-11 4 -16 15t0 24q0 2 11.5 30.5t31.5 66.5q57 106 112 132q35 15 66 2q11 -6 24 -19.5t21 -41.5q5 -17 6 -39t-1 -48q-5 -40 -16.5 -92.5t-31.5 -116.5q-17 -54 -35.5 -110t-34.5 -102t-26.5 -76t-11.5 -32
q-9 -20 -29 -20zM125 777q-8 18 -2 32.5t18 21t26 3t22 -21.5v-1q8 -18 2.5 -32.5t-17.5 -21t-26 -3t-22 21.5z" />
    <glyph glyph-name="Eth" unicode="&#xd0;" horiz-adv-x="445" 
d="M478 609q19 -39 23.5 -87t-4.5 -100t-30.5 -105.5t-55.5 -101.5q-36 -51 -81.5 -92t-99.5 -68q-48 -25 -100.5 -37t-109.5 -12q-29 0 -59 3q-12 2 -19.5 11t-5.5 21t11 19.5t21 5.5q82 -9 147 7.5t113.5 46t82.5 64.5t54 64q28 42 47 88t27.5 90t5 84.5t-18.5 70.5
q-30 62 -99 65q-23 1 -51.5 -5.5t-62 -26.5t-72.5 -56.5t-82 -95.5l-4.5 -7.5t-3.5 -4.5q-8 -8 -20.5 -8t-20.5 8t-8.5 20t7.5 20l5 7q11 15 38 49.5t67 70.5q108 91 211 87q26 -2 48 -8t41 -20q37 -24 59 -67zM335 332h-135l-58 -205q-6 -23 -27 -23q-5 0 -8 1
q-12 3 -17.5 14.5t-1.5 22.5l52 190h-90q-13 0 -21.5 9t-8.5 21q0 13 8.5 21.5t21.5 8.5h107l49 176q4 11 14 18t22 2q11 -4 16.5 -14t3.5 -23l-45 -159h118q12 0 21 -8.5t9 -21.5q0 -12 -9 -21t-21 -9z" />
    <glyph glyph-name="Ntilde" unicode="&#xd1;" horiz-adv-x="481" 
d="M474 -71q-2 0 -3.5 0.5t-3.5 0.5q-67 15 -94 66q-16 31 -18 77q0 42 7 84t18.5 83t25.5 81t29 78q6 17 17 44.5t20.5 57t14 56.5t-2.5 43q-1 1 -3 2.5t-9 3.5q-3 1 -12 -1t-26.5 -16t-44.5 -43.5t-65 -84.5q-24 -36 -49 -75.5t-48 -79.5t-45 -78.5t-40 -71.5l-56 -98
l-10.5 -17.5t-9.5 -12.5q-3 -5 -11.5 -13t-21.5 -8q-5 0 -7 1q-14 3 -21 15q-6 11 -4 24.5t11 41.5q5 19 13 42.5t18 51.5q20 60 43.5 131t40.5 138q13 51 18 84t5.5 52.5t-2 28.5t-4.5 12q-1 2 -1.5 2t-1.5 1h-3q-19 5 -50 -16t-67 -63q-16 -18 -30 -35.5t-24 -32
t-16 -23.5l-6 -9q-6 -11 -18 -13.5t-23 4.5q-11 6 -13.5 18t3.5 23q1 1 7.5 10.5t17 24.5t25 34t31.5 39q21 23 41 41t38 31q53 35 96 26q30 -5 45 -30q17 -28 15 -81.5t-25 -142.5q-11 -42 -24 -86t-27 -86q32 57 68 116.5t73 113.5q67 97 116.5 137.5t91.5 32.5
q23 -5 35 -15.5t18 -20.5q13 -25 11 -59t-11.5 -69t-22.5 -68t-22 -55q-12 -32 -29.5 -80t-31 -99t-17.5 -98t13 -77q15 -28 54 -35q12 -3 19 -13.5t4 -22.5q-2 -11 -10 -17.5t-19 -6.5zM183 777q13 15 27 26q12 10 27.5 18.5t32.5 8.5t32 -7.5t29 -17t26.5 -18t24.5 -9.5
q12 -2 26.5 6t26.5 18q14 11 29 26l3 -3l2 -4t1 -5t-1 -5l-2 -4q-2 -2 -3 -4q-13 -15 -27 -26q-12 -10 -27 -17.5t-29 -7.5t-28 8.5t-28 18t-28 17.5t-27 8q-11 -1 -25.5 -9t-28.5 -18q-16 -11 -33 -26q-4 4 -5 8q-3 8 5 18z" />
    <glyph glyph-name="Ograve" unicode="&#xd2;" horiz-adv-x="366" 
d="M410 284h1q-1 0 -11 -11t-30 -23q-31 -19 -64 -25q26 64 42 134.5t18 133.5q3 80 -20 132q-14 31 -34 48q-23 19 -56 22h-8q-60 0 -116.5 -46t-104.5 -133q-2 -3 -3 -5.5t-2 -5.5l-2 -2q-36 -72 -58 -153t-24 -153q-3 -82 23 -134q34 -64 100 -67h8q65 0 124 54
q46 42 84 113h3q41 0 73.5 12.5t55 28t35 28.5t13.5 14q3 5 3 10t-2.5 10.5t-10.5 13.5q-8 7 -14.5 8.5t-11.5 0.5q-6 -1 -11 -5zM248 635h5q8 -1 18.5 -6.5t19.5 -27.5q17 -38 15 -107q-2 -63 -18.5 -132.5t-45.5 -132.5q-26 11 -51 38q-16 17 -31 40.5t-30 52.5
q-20 40 -32.5 75t-17.5 52q38 71 82 109.5t86 38.5zM153 95q-42 -39 -84 -39h-5q-23 1 -36.5 16t-20.5 36t-8.5 44.5t-1.5 42.5q2 50 14 104.5t33 108.5q6 -17 14 -35.5t18 -38.5q63 -125 139 -159q-14 -25 -30 -45t-32 -35zM266 727q-10 0 -14 6l-76 74q-5 5 -0.5 13
t9.5 12t14 6.5t14 -2.5l62 -83q5 -6 5 -12.5t-5 -10.5q-5 -3 -9 -3z" />
    <glyph glyph-name="Oacute" unicode="&#xd3;" horiz-adv-x="366" 
d="M410 284h1q-1 0 -11 -11t-30 -23q-31 -19 -64 -25q26 64 42 134.5t18 133.5q3 80 -20 132q-14 31 -34 48q-23 19 -56 22h-8q-60 0 -116.5 -46t-104.5 -133q-2 -3 -3 -5.5t-2 -5.5l-2 -2q-36 -72 -58 -153t-24 -153q-3 -82 23 -134q34 -64 100 -67h8q65 0 124 54
q46 42 84 113h3q41 0 73.5 12.5t55 28t35 28.5t13.5 14q3 5 3 10t-2.5 10.5t-10.5 13.5q-8 7 -14.5 8.5t-11.5 0.5q-6 -1 -11 -5zM248 635h5q8 -1 18.5 -6.5t19.5 -27.5q17 -38 15 -107q-2 -63 -18.5 -132.5t-45.5 -132.5q-26 11 -51 38q-16 17 -31 40.5t-30 52.5
q-20 40 -32.5 75t-17.5 52q38 71 82 109.5t86 38.5zM153 95q-42 -39 -84 -39h-5q-23 1 -36.5 16t-20.5 36t-8.5 44.5t-1.5 42.5q2 50 14 104.5t33 108.5q6 -17 14 -35.5t18 -38.5q63 -125 139 -159q-14 -25 -30 -45t-32 -35zM201 719q-6 0 -9 3q-5 5 -5.5 12t5.5 13l66 89
q6 5 16 2.5t15 -6.5q5 -5 9.5 -13.5t-0.5 -13.5l-82 -79q-5 -7 -15 -7z" />
    <glyph glyph-name="Ocircumflex" unicode="&#xd4;" horiz-adv-x="366" 
d="M410 284h1q-1 0 -11 -11t-30 -23q-31 -19 -64 -25q26 64 42 134.5t18 133.5q3 80 -20 132q-14 31 -34 48q-23 19 -56 22h-8q-60 0 -116.5 -46t-104.5 -133q-2 -3 -3 -5.5t-2 -5.5l-2 -2q-36 -72 -58 -153t-24 -153q-3 -82 23 -134q34 -64 100 -67h8q65 0 124 54
q46 42 84 113h3q41 0 73.5 12.5t55 28t35 28.5t13.5 14q3 5 3 10t-2.5 10.5t-10.5 13.5q-8 7 -14.5 8.5t-11.5 0.5q-6 -1 -11 -5zM248 635h5q8 -1 18.5 -6.5t19.5 -27.5q17 -38 15 -107q-2 -63 -18.5 -132.5t-45.5 -132.5q-26 11 -51 38q-16 17 -31 40.5t-30 52.5
q-20 40 -32.5 75t-17.5 52q38 71 82 109.5t86 38.5zM153 95q-42 -39 -84 -39h-5q-23 1 -36.5 16t-20.5 36t-8.5 44.5t-1.5 42.5q2 50 14 104.5t33 108.5q6 -17 14 -35.5t18 -38.5q63 -125 139 -159q-14 -25 -30 -45t-32 -35zM234 829q7 1 13 -6l84 -78q5 -6 2 -16.5
t-8 -17.5q-5 -5 -13 -9t-13 1l-64 84l-71 -86q-6 -5 -14 0.5t-13 11.5q-3 6 -5 17t3 16l89 78q1 1 2 1t1 1z" />
    <glyph glyph-name="Otilde" unicode="&#xd5;" horiz-adv-x="366" 
d="M410 284h1q-1 0 -11 -11t-30 -23q-31 -19 -64 -25q26 64 42 134.5t18 133.5q3 80 -20 132q-14 31 -34 48q-23 19 -56 22h-8q-60 0 -116.5 -46t-104.5 -133q-2 -3 -3 -5.5t-2 -5.5l-2 -2q-36 -72 -58 -153t-24 -153q-3 -82 23 -134q34 -64 100 -67h8q65 0 124 54
q46 42 84 113h3q41 0 73.5 12.5t55 28t35 28.5t13.5 14q3 5 3 10t-2.5 10.5t-10.5 13.5q-8 7 -14.5 8.5t-11.5 0.5q-6 -1 -11 -5zM248 635h5q8 -1 18.5 -6.5t19.5 -27.5q17 -38 15 -107q-2 -63 -18.5 -132.5t-45.5 -132.5q-26 11 -51 38q-16 17 -31 40.5t-30 52.5
q-20 40 -32.5 75t-17.5 52q38 71 82 109.5t86 38.5zM153 95q-42 -39 -84 -39h-5q-23 1 -36.5 16t-20.5 36t-8.5 44.5t-1.5 42.5q2 50 14 104.5t33 108.5q6 -17 14 -35.5t18 -38.5q63 -125 139 -159q-14 -25 -30 -45t-32 -35zM123 780q13 15 27 26q12 10 27.5 18.5t32.5 8.5
t32 -7.5t29 -17t26.5 -18t24.5 -9.5q12 -2 26.5 6t26.5 18q14 11 29 26l3 -3l2 -4t1 -5t-1 -5l-2 -4q-2 -2 -3 -4q-13 -15 -27 -26q-12 -10 -27 -17.5t-29 -7.5t-28 8.5t-28 18t-28 17.5t-27 8q-11 -1 -25.5 -9t-28.5 -18q-16 -11 -33 -26q-4 4 -5 8q-3 8 5 18z" />
    <glyph glyph-name="Odieresis" unicode="&#xd6;" horiz-adv-x="366" 
d="M410 284q5 4 11 5q5 1 11.5 -0.5t14.5 -8.5q8 -8 10.5 -13.5t2.5 -10.5t-3 -10q-1 -1 -13.5 -14t-35 -28.5t-55 -28t-73.5 -12.5h-3q-38 -71 -84 -113q-59 -54 -124 -54h-8q-66 3 -100 67q-26 52 -23 134q2 72 24 153t58 153l2 2q1 3 2 5.5t3 5.5q48 87 104.5 133
t116.5 46h8q33 -3 56 -22q20 -17 34 -48q23 -52 20 -132q-2 -63 -18 -133.5t-42 -134.5q33 6 64 25q20 12 30 23t11 11h-1zM248 635q-42 0 -86 -38.5t-82 -109.5q5 -17 17.5 -52t32.5 -75q15 -29 30 -52.5t31 -40.5q25 -27 51 -38q29 63 45.5 132.5t18.5 132.5q2 69 -15 107
q-9 22 -19.5 27.5t-18.5 6.5h-5zM153 95q16 15 32 35t30 45q-76 34 -139 159q-10 20 -18 38.5t-14 35.5q-21 -54 -33 -108.5t-14 -104.5q0 -19 1.5 -42.5t8.5 -44.5t20.5 -36t36.5 -16h5q42 0 84 39zM376 784q0 -22 -13.5 -33t-29 -11t-29 11t-13.5 33v4q0 22 13.5 33t29 11
t29 -11t13.5 -33v-4zM256 787q0 -22 -13.5 -33t-29 -11t-29 11t-13.5 33v4q0 22 13.5 33t29 11t29 -11t13.5 -33v-4z" />
    <glyph glyph-name="multiply" unicode="&#xd7;" horiz-adv-x="680" 
d="M500 460q11 10 23.5 9.5t21 -8t10 -19t-9.5 -21.5l-114 -108l130 -119q11 -11 10 -23t-9 -19.5t-20.5 -9t-23.5 9.5l-129 119l-128 -128q-11 -11 -23.5 -10.5t-21 8t-9.5 19t10 22.5l129 129l-112 103q-11 10 -10 22t9 20t20.5 9.5t23.5 -9.5l111 -102l112 106v0z" />
    <glyph glyph-name="Ugrave" unicode="&#xd9;" horiz-adv-x="487" 
d="M417 404q13 46 28 88t27.5 74t20.5 51l8 19q5 11 0.5 23t-15.5 17t-22.5 0.5t-16.5 -15.5q-1 -2 -9.5 -21.5t-21 -52t-27.5 -75t-29 -90.5l-24 -93q-3 -3 -4 -6q-11 -20 -24 -43q-11 -20 -27 -44.5t-33 -49.5q-41 -59 -75 -90q-23 -21 -35.5 -26t-17.5 -4q-10 2 -14 5.5
t-6 8.5q-6 9 -8.5 33.5t7.5 74.5q8 40 21 85t27 91q16 51 29.5 97t19.5 85q7 43 1 73q-5 26 -18 38.5t-25 17.5q-41 15 -83 -4q-68 -30 -136 -150q-24 -43 -37.5 -75.5t-14.5 -34.5q-5 -12 0.5 -23t16.5 -16q12 -5 23 0.5t16 16.5q0 1 13 31.5t35 71.5q28 50 56 82t52 43
q20 8 37 2q1 -1 3 -2.5t4 -9.5q2 -9 1.5 -22t-3.5 -30q-5 -35 -18.5 -80t-28.5 -93q-14 -47 -28 -93.5t-22 -88.5q-11 -54 -8.5 -90t16.5 -61q20 -34 61 -42l1 -1h11q43 0 93 46q20 17 40.5 42t42.5 57q5 8 10 14.5t10 14.5q-2 -83 28 -130q17 -29 44.5 -45.5t63.5 -19.5h2
q12 0 20.5 8t9.5 19q1 13 -7 22t-20 11q-43 3 -62 36q-26 43 -17 136q3 40 13 86.5t25 100.5zM293 696q-11 0 -17 8l-95 91q-5 7 0 17t11 15t17 8t18 -4l77 -103q7 -7 6.5 -15t-6.5 -13q-4 -4 -11 -4z" />
    <glyph glyph-name="Uacute" unicode="&#xda;" horiz-adv-x="487" 
d="M417 404q13 46 28 88t27.5 74t20.5 51l8 19q5 11 0.5 23t-15.5 17t-22.5 0.5t-16.5 -15.5q-1 -2 -9.5 -21.5t-21 -52t-27.5 -75t-29 -90.5l-24 -93q-3 -3 -4 -6q-11 -20 -24 -43q-11 -20 -27 -44.5t-33 -49.5q-41 -59 -75 -90q-23 -21 -35.5 -26t-17.5 -4q-10 2 -14 5.5
t-6 8.5q-6 9 -8.5 33.5t7.5 74.5q8 40 21 85t27 91q16 51 29.5 97t19.5 85q7 43 1 73q-5 26 -18 38.5t-25 17.5q-41 15 -83 -4q-68 -30 -136 -150q-24 -43 -37.5 -75.5t-14.5 -34.5q-5 -12 0.5 -23t16.5 -16q12 -5 23 0.5t16 16.5q0 1 13 31.5t35 71.5q28 50 56 82t52 43
q20 8 37 2q1 -1 3 -2.5t4 -9.5q2 -9 1.5 -22t-3.5 -30q-5 -35 -18.5 -80t-28.5 -93q-14 -47 -28 -93.5t-22 -88.5q-11 -54 -8.5 -90t16.5 -61q20 -34 61 -42l1 -1h11q43 0 93 46q20 17 40.5 42t42.5 57q5 8 10 14.5t10 14.5q-2 -83 28 -130q17 -29 44.5 -45.5t63.5 -19.5h2
q12 0 20.5 8t9.5 19q1 13 -7 22t-20 11q-43 3 -62 36q-26 43 -17 136q3 40 13 86.5t25 100.5zM284 697q-7 0 -11 4q-6 5 -6.5 13t6.5 15l77 103q7 7 18 4t17 -8t11 -15t0 -17l-95 -91q-6 -8 -17 -8z" />
    <glyph glyph-name="Ucircumflex" unicode="&#xdb;" horiz-adv-x="487" 
d="M417 404q13 46 28 88t27.5 74t20.5 51l8 19q5 11 0.5 23t-15.5 17t-22.5 0.5t-16.5 -15.5q-1 -2 -9.5 -21.5t-21 -52t-27.5 -75t-29 -90.5l-24 -93q-3 -3 -4 -6q-11 -20 -24 -43q-11 -20 -27 -44.5t-33 -49.5q-41 -59 -75 -90q-23 -21 -35.5 -26t-17.5 -4q-10 2 -14 5.5
t-6 8.5q-6 9 -8.5 33.5t7.5 74.5q8 40 21 85t27 91q16 51 29.5 97t19.5 85q7 43 1 73q-5 26 -18 38.5t-25 17.5q-41 15 -83 -4q-68 -30 -136 -150q-24 -43 -37.5 -75.5t-14.5 -34.5q-5 -12 0.5 -23t16.5 -16q12 -5 23 0.5t16 16.5q0 1 13 31.5t35 71.5q28 50 56 82t52 43
q20 8 37 2q1 -1 3 -2.5t4 -9.5q2 -9 1.5 -22t-3.5 -30q-5 -35 -18.5 -80t-28.5 -93q-14 -47 -28 -93.5t-22 -88.5q-11 -54 -8.5 -90t16.5 -61q20 -34 61 -42l1 -1h11q43 0 93 46q20 17 40.5 42t42.5 57q5 8 10 14.5t10 14.5q-2 -83 28 -130q17 -29 44.5 -45.5t63.5 -19.5h2
q12 0 20.5 8t9.5 19q1 13 -7 22t-20 11q-43 3 -62 36q-26 43 -17 136q3 40 13 86.5t25 100.5zM310 837q7 1 13 -6l84 -78q5 -6 2 -16.5t-8 -17.5q-5 -5 -13 -9t-13 1l-64 84l-71 -86q-6 -5 -14 0.5t-13 11.5q-3 6 -5 17t3 16l89 78q1 1 2 1t1 1z" />
    <glyph glyph-name="Udieresis" unicode="&#xdc;" horiz-adv-x="487" 
d="M417 404q-15 -54 -25 -100.5t-13 -86.5q-9 -93 17 -136q19 -33 62 -36q12 -2 20 -11t7 -22q-1 -11 -9.5 -19t-20.5 -8h-2q-36 3 -63.5 19.5t-44.5 45.5q-30 47 -28 130q-5 -8 -10 -14.5t-10 -14.5q-22 -32 -42.5 -57t-40.5 -42q-50 -46 -93 -46h-11l-1 1q-41 8 -61 42
q-14 25 -16.5 61t8.5 90q8 42 22 88.5t28 93.5q15 48 28.5 93t18.5 80q3 17 3.5 30t-1.5 22q-2 8 -4 9.5t-3 2.5q-17 6 -37 -2q-24 -11 -52 -43t-56 -82q-22 -41 -35 -71.5t-13 -31.5q-5 -11 -16 -16.5t-23 -0.5q-11 5 -16.5 16t-0.5 23q1 2 14.5 34.5t37.5 75.5
q68 120 136 150q42 19 83 4q12 -5 25 -17.5t18 -38.5q6 -30 -1 -73q-6 -39 -19.5 -85t-29.5 -97q-14 -46 -27 -91t-21 -85q-10 -50 -7.5 -74.5t8.5 -33.5q2 -5 6 -8.5t14 -5.5q5 -1 17.5 4t35.5 26q34 31 75 90q17 25 33 49.5t27 44.5q13 23 24 43q1 3 4 6l24 93
q14 48 29 90.5t27.5 75t21 52t9.5 21.5q5 11 16.5 15.5t22.5 -0.5t15.5 -17t-0.5 -23l-8 -19t-20.5 -51t-27.5 -74t-28 -88zM406 738q0 -22 -13.5 -33t-29 -11t-29 11t-13.5 33v4q0 22 13.5 33t29 11t29 -11t13.5 -33v-4zM286 741q0 -22 -13.5 -33t-29 -11t-29 11t-13.5 33
v4q0 22 13.5 33t29 11t29 -11t13.5 -33v-4z" />
    <glyph glyph-name="Yacute" unicode="&#xdd;" horiz-adv-x="346" 
d="M422 689q-13 3 -23.5 -3.5t-13.5 -18.5q0 -1 -6.5 -28t-17.5 -72.5t-27 -105.5t-34 -127q-10 -17 -34.5 -53t-56.5 -76q-23 -29 -44.5 -51.5t-40.5 -38.5q-26 -21 -39.5 -26t-18.5 -5q-9 2 -13 5.5t-6 7.5q-5 9 -6.5 33t10.5 74q10 41 25 86t32 90q18 51 34 97.5t24 85.5
q9 43 4 74q-5 26 -18 38.5t-25 17.5q-41 17 -83 -3q-68 -29 -136 -151q-12 -21 -19 -34t-10.5 -20.5t-4.5 -11t-1 -4.5q-5 -11 0.5 -22t16.5 -16q12 -5 23 0.5t16 16.5l1 2.5t4 9t9.5 18.5t17.5 32q28 51 55.5 82.5t51.5 42.5q21 9 37 2q1 0 2.5 -1.5t3.5 -8.5q2 -9 0.5 -22
t-4.5 -30q-8 -36 -23 -80.5t-32 -94.5q-18 -51 -35 -99.5t-26.5 -92t-10 -79.5t14.5 -62q20 -35 60 -42h2q4 -1 10 -1q42 0 96 45q20 17 42.5 40.5t46.5 53.5q-30 -102 -57 -180q-24 1 -46 -3t-42 -14q-40 -20 -65 -57t-29 -81.5t14 -78.5q11 -22 29 -34t41 -12h2
q23 0 39 17t27 36q12 20 24.5 47t26.5 63q23 58 49.5 138.5t55.5 182.5q8 27 20 73t26 98.5t27.5 106t24.5 96t18 68.5t7 24q3 13 -3.5 23.5t-18.5 12.5zM170 -86q-13 -35 -24.5 -62t-21.5 -47q-12 -22 -19 -31t-10 -11q-3 0 -7 2.5t-8 10.5q-9 17 -7 45.5t19 54.5
q11 15 30 29.5t52 17.5q-2 -6 -4 -9zM253 697q-7 0 -11 4q-6 5 -6.5 13t6.5 15l77 103q7 7 18 4t17 -8t11 -15t0 -17l-95 -91q-6 -8 -17 -8z" />
    <glyph glyph-name="germandbls" unicode="&#xdf;" horiz-adv-x="396" 
d="M113 543q-1 1 12 13.5t34.5 26t49.5 24t57 7.5t58 -24.5t52 -71.5q-21 -35 -42 -67t-38 -57q-20 -29 -39 -55q43 -43 72 -87q12 -19 22.5 -39.5t16 -41.5t5 -41.5t-10.5 -39.5q-19 -37 -45 -56t-53 -25.5t-53.5 -2t-46.5 14.5t-31 23.5t-7 26.5q3 13 14 14t26 -2.5
t33 -7.5t36 -2t34.5 14.5t29.5 41.5q7 20 5 38t-10 34t-20.5 30t-26.5 26q-33 27 -79 48l135 197q1 10 -3 19q-4 8 -12.5 14t-26.5 8q-18 1 -33 -6t-26 -15q-12 -10 -22 -23l-141 -454q-6 -12 -14 -21q-7 -8 -16.5 -14.5t-23.5 -6.5t-20.5 5.5t-9.5 13.5q-4 8 -3 19l80 252
q15 47 29.5 92t26 80.5t18.5 56.5z" />
    <glyph glyph-name="agrave" unicode="&#xe0;" horiz-adv-x="327" 
d="M404 297q-11 5 -20.5 -0.5t-14.5 -16.5l-15 -35q-7 -16 -16 -35t-20 -37q-15 -25 -31.5 -48t-30.5 -39t-24.5 -22.5t-12.5 1.5q-1 4 -1.5 15t2.5 30.5t10 50t21 74.5q9 29 18.5 56t17 48t13 33.5l5.5 12.5q5 12 0 23.5t-17 16.5q-11 5 -22.5 -0.5t-16.5 -16.5
q0 -1 -6 -15t-14 -37q0 1 -2 5q-14 47 -56 58q-5 1 -9.5 1.5t-9.5 0.5q-34 0 -64 -26t-54 -66t-39.5 -86.5t-20.5 -87.5q-6 -55 7 -90q17 -49 63 -60q4 -1 7 -1.5t8 -0.5q30 0 55 23t44 52q1 -20 4.5 -31.5t8.5 -18.5q15 -23 44 -23q43 0 87 48q30 33 63 90q27 47 40.5 80
t15.5 35q5 11 -0.5 22.5t-16.5 16.5zM121 132q-21 -38 -38 -53.5t-24 -15.5h-1q-12 3 -17 14t-6.5 24.5t-0.5 26.5t2 20q5 35 18 75t33 72q22 37 38.5 51.5t26.5 14.5q3 0 4 -1q13 -3 16 -27t0 -49q-5 -35 -18 -76t-33 -76zM266 499q-9 0 -19 5l-110 71q-7 7 -4 17.5t8 17.5
q6 5 16.5 10t18.5 0l94 -86q8 -5 9.5 -13.5t-3.5 -14.5q-2 -3 -4.5 -4t-5.5 -3z" />
    <glyph glyph-name="aacute" unicode="&#xe1;" horiz-adv-x="333" 
d="M410 297q-11 5 -20.5 -0.5t-14.5 -16.5l-15 -35q-7 -16 -16 -35t-20 -37q-15 -25 -31.5 -48t-30.5 -39t-24.5 -22.5t-12.5 1.5q-1 4 -1.5 15t2.5 30.5t10 50t21 74.5q9 29 18.5 56t17 48t13 33.5l5.5 12.5q5 12 0 23.5t-17 16.5q-11 5 -22.5 -0.5t-16.5 -16.5
q0 -1 -6 -15t-14 -37q0 1 -2 5q-14 47 -56 58q-5 1 -9.5 1.5t-9.5 0.5q-34 0 -64 -26t-54 -66t-39.5 -86.5t-20.5 -87.5q-6 -55 7 -90q17 -49 63 -60q4 -1 7 -1.5t8 -0.5q30 0 55 23t44 52q1 -20 4.5 -31.5t8.5 -18.5q15 -23 44 -23q43 0 87 48q30 33 63 90q27 47 40.5 80
t15.5 35q5 11 -0.5 22.5t-16.5 16.5zM127 132q-21 -38 -38 -53.5t-24 -15.5h-1q-12 3 -17 14t-6.5 24.5t-0.5 26.5t2 20q5 35 18 75t33 72q22 37 38.5 51.5t26.5 14.5q3 0 4 -1q13 -3 16 -27t0 -49q-5 -35 -18 -76t-33 -76zM154 500q-6 2 -9 7q-5 5 -3 13.5t10 13.5l101 80
q8 5 17.5 -1t14.5 -12q5 -7 7.5 -18t-4.5 -16l-115 -64q-8 -7 -19 -3z" />
    <glyph glyph-name="acircumflex" unicode="&#xe2;" horiz-adv-x="342" 
d="M413 297q11 -5 16.5 -16.5t0.5 -22.5q-2 -2 -15.5 -35t-40.5 -80q-33 -57 -63 -90q-44 -48 -87 -48q-29 0 -44 23q-5 7 -8.5 18.5t-4.5 31.5q-19 -29 -44 -52t-55 -23q-5 0 -8 0.5t-7 1.5q-46 11 -63 60q-13 35 -7 90q5 41 20.5 87.5t39.5 86.5t54 66t64 26q5 0 9.5 -0.5
t9.5 -1.5q42 -11 56 -58q2 -4 2 -5q8 23 14 37t6 15q5 11 16.5 16.5t22.5 0.5q12 -5 17 -16.5t0 -23.5l-5.5 -12.5t-13 -33.5t-17 -48t-18.5 -56q-14 -44 -21 -74.5t-10 -50t-2.5 -30.5t1.5 -15q2 -8 12.5 -1.5t24.5 22.5t30.5 39t31.5 48q11 18 20 37t16 35l15 35
q5 11 14.5 16.5t20.5 0.5zM130 132q20 35 33 76t18 76q3 25 0 49t-16 27q-1 1 -4 1q-10 0 -26.5 -14.5t-38.5 -51.5q-20 -32 -33 -72t-18 -75q-1 -7 -2 -20t0.5 -26.5t6.5 -24.5t17 -14h1q7 0 24 15.5t38 53.5zM213 629q7 1 13 -6l84 -78q5 -6 2 -16.5t-8 -17.5
q-5 -5 -13 -9t-13 1l-64 84l-71 -86q-6 -5 -14 0.5t-13 11.5q-3 6 -5 17t3 16l89 78q1 1 2 1t1 1z" />
    <glyph glyph-name="atilde" unicode="&#xe3;" horiz-adv-x="343" 
d="M414 297q-11 5 -20.5 -0.5t-14.5 -16.5l-15 -35q-7 -16 -16 -35t-20 -37q-15 -25 -31.5 -48t-30.5 -39t-24.5 -22.5t-12.5 1.5q-1 4 -1.5 15t2.5 30.5t10 50t21 74.5q9 29 18.5 56t17 48t13 33.5l5.5 12.5q5 12 0 23.5t-17 16.5q-11 5 -22.5 -0.5t-16.5 -16.5
q0 -1 -6 -15t-14 -37q0 1 -2 5q-14 47 -56 58q-5 1 -9.5 1.5t-9.5 0.5q-34 0 -64 -26t-54 -66t-39.5 -86.5t-20.5 -87.5q-6 -55 7 -90q17 -49 63 -60q4 -1 7 -1.5t8 -0.5q30 0 55 23t44 52q1 -20 4.5 -31.5t8.5 -18.5q15 -23 44 -23q43 0 87 48q30 33 63 90q27 47 40.5 80
t15.5 35q5 11 -0.5 22.5t-16.5 16.5zM131 132q-21 -38 -38 -53.5t-24 -15.5h-1q-12 3 -17 14t-6.5 24.5t-0.5 26.5t2 20q5 35 18 75t33 72q22 37 38.5 51.5t26.5 14.5q3 0 4 -1q13 -3 16 -27t0 -49q-5 -35 -18 -76t-33 -76zM73 521q3 5 10 15.5t17 21t24 18.5t31 7
q13 -1 22 -8.5t16 -16.5t14.5 -16.5t17.5 -7.5q13 0 25 6t21.5 13t15.5 11.5t8 3.5q3 -3 -2 -15t-15 -24.5t-24 -22.5t-27 -10q-14 0 -22.5 7.5t-17 17t-17.5 17t-24 7.5t-28 -7t-23 -15q-11 -10 -20 -21q-6 -3 -9 -2q-2 1 -1.5 5.5t8.5 15.5z" />
    <glyph glyph-name="adieresis" unicode="&#xe4;" horiz-adv-x="338" 
d="M415 297q11 -5 16.5 -16.5t0.5 -22.5q-2 -2 -15.5 -35t-40.5 -80q-33 -57 -63 -90q-44 -48 -87 -48q-29 0 -44 23q-5 7 -8.5 18.5t-4.5 31.5q-19 -29 -44 -52t-55 -23q-5 0 -8 0.5t-7 1.5q-46 11 -63 60q-13 35 -7 90q5 41 20.5 87.5t39.5 86.5t54 66t64 26q5 0 9.5 -0.5
t9.5 -1.5q42 -11 56 -58q2 -4 2 -5q8 23 14 37t6 15q5 11 16.5 16.5t22.5 0.5q12 -5 17 -16.5t0 -23.5l-5.5 -12.5t-13 -33.5t-17 -48t-18.5 -56q-14 -44 -21 -74.5t-10 -50t-2.5 -30.5t1.5 -15q2 -8 12.5 -1.5t24.5 22.5t30.5 39t31.5 48q11 18 20 37t16 35l15 35
q5 11 14.5 16.5t20.5 0.5zM132 132q20 35 33 76t18 76q3 25 0 49t-16 27q-1 1 -4 1q-10 0 -26.5 -14.5t-38.5 -51.5q-20 -32 -33 -72t-18 -75q-1 -7 -2 -20t0.5 -26.5t6.5 -24.5t17 -14h1q7 0 24 15.5t38 53.5zM322 541q0 -22 -13.5 -33t-29 -11t-29 11t-13.5 33v4
q0 22 13.5 33t29 11t29 -11t13.5 -33v-4zM202 544q0 -22 -13.5 -33t-29 -11t-29 11t-13.5 33v4q0 22 13.5 33t29 11t29 -11t13.5 -33v-4z" />
    <glyph glyph-name="aring" unicode="&#xe5;" horiz-adv-x="332" 
d="M159 551q0 18 13 31.5t32 13.5t32.5 -13.5t13.5 -31.5q0 -20 -13.5 -33t-32.5 -13t-32 13t-13 33zM182 552q0 -8 4.5 -15.5t18.5 -6.5q10 0 16 7t6 15q0 10 -4.5 16.5t-17.5 6.5q-12 0 -17.5 -7.5t-5.5 -15.5zM409 297q11 -5 16.5 -16.5t0.5 -22.5q-2 -2 -15.5 -35
t-40.5 -80q-33 -57 -63 -90q-44 -48 -87 -48q-29 0 -44 23q-5 7 -8.5 18.5t-4.5 31.5q-19 -29 -44 -52t-55 -23q-5 0 -8 0.5t-7 1.5q-46 11 -63 60q-13 35 -7 90q5 41 20.5 87.5t39.5 86.5t54 66t64 26q5 0 9.5 -0.5t9.5 -1.5q42 -11 56 -58q2 -4 2 -5q8 23 14 37t6 15
q5 11 16.5 16.5t22.5 0.5q12 -5 17 -16.5t0 -23.5l-5.5 -12.5t-13 -33.5t-17 -48t-18.5 -56q-14 -44 -21 -74.5t-10 -50t-2.5 -30.5t1.5 -15q2 -8 12.5 -1.5t24.5 22.5t30.5 39t31.5 48q11 18 20 37t16 35l15 35q5 11 14.5 16.5t20.5 0.5zM126 132q20 35 33 76t18 76
q3 25 0 49t-16 27q-1 1 -4 1q-10 0 -26.5 -14.5t-38.5 -51.5q-20 -32 -33 -72t-18 -75q-1 -7 -2 -20t0.5 -26.5t6.5 -24.5t17 -14h1q7 0 24 15.5t38 53.5z" />
    <glyph glyph-name="ae" unicode="&#xe6;" horiz-adv-x="526" 
d="M378 422q36 20 67 14.5t48 -27.5t15 -55.5t-32 -69.5q-26 -33 -54.5 -57t-55 -40.5t-49 -26.5t-36.5 -15q-1 -11 -2 -24t0 -25.5t5.5 -22t14.5 -12.5q2 0 10 1t24.5 10t42.5 29t64 57q22 21 42 42t35 38t24.5 27.5l9.5 10.5q8 10 20.5 12t20.5 -6q10 -8 11 -19.5
t-7 -22.5q-2 -1 -11.5 -12t-25 -28t-36 -39t-44.5 -44q-44 -42 -80.5 -67.5t-66 -36t-52 -8.5t-38.5 14q-5 -7 -12 -11.5t-18 -4.5q-24 0 -38 20q-5 8 -9 20.5t-4 35.5q-19 -29 -44 -52t-56 -23q-5 0 -15 2q-46 11 -63 60q-13 35 -7 90q5 41 21 87.5t40 86.5t54 66t64 26
q9 0 18 -3q37 -9 54 -48l13 44q4 12 15 16t21.5 1.5t17.5 -10t4 -19.5l-2.5 -8.5t-5.5 -19.5t-6.5 -24t-6.5 -22l-5 -14q20 31 47 58t59 49zM175 285q1 12 1.5 25t-1.5 23.5t-6 18t-11 9.5q-1 1 -3 1q-11 0 -29 -14.5t-39 -51.5q-20 -33 -33.5 -72.5t-17.5 -74.5
q-1 -7 -1.5 -20t1 -26.5t7 -24.5t17.5 -14h1q7 0 24.5 15.5t37.5 53.5q20 35 33.5 76t18.5 76zM426 380q-21 -3 -41.5 -22.5t-38.5 -46t-31 -53.5t-19 -44q39 16 74 44.5t61 60.5q6 7 11 17.5t6 20t-3.5 16.5t-18.5 7z" />
    <glyph glyph-name="ccedilla" unicode="&#xe7;" horiz-adv-x="291" 
d="M90 1q-11 0 -21 3h-1q-27 9 -46 37q-14 23 -18 55q-5 29 -3 63t11 69q4 20 12 42t18 43t20.5 39.5t21.5 31.5q28 35 54 50t48 15t39.5 -12.5t28 -33.5t12.5 -48.5t-6 -56.5q-3 -11 -14.5 -17.5t-23.5 -2.5q-11 4 -17.5 14.5t-2.5 22.5q9 31 5.5 47.5t-14.5 20t-28 -5.5
t-35 -30q-8 -11 -17 -26.5t-17 -33.5t-15 -37t-11 -36q-7 -29 -8.5 -55.5t0.5 -47t8 -33.5t15 -16q17 -4 45 13.5t61 52.5q15 16 36.5 42t42 51.5t35 44.5l14.5 19q7 11 18.5 13t22.5 -5t13.5 -19t-5.5 -23q0 -1 -15 -20.5t-36 -45.5t-43.5 -53.5t-38.5 -44.5
q-39 -41 -75 -63l-2 -2q15 -16 12 -47t-27.5 -42t-53.5 -13q-33 -2 -74 6q-4 14 -4 24q0 8 4 13.5t17 1.5q21 -7 40 -10t33.5 -0.5t23 12t8.5 27.5q0 9 -10 14q-18 -7 -37 -7z" />
    <glyph glyph-name="egrave" unicode="&#xe8;" horiz-adv-x="282" 
d="M80 0q-20 1 -34.5 10.5t-25 23t-17 30t-9.5 33.5q-6 39 -0.5 88t21.5 96.5t42.5 86.5t62.5 58q34 20 65.5 13.5t51 -29t21 -56.5t-24.5 -70q-23 -33 -49.5 -57t-51.5 -40.5t-46.5 -26.5t-34.5 -15q0 -11 0.5 -24t3 -25.5t8 -22t15.5 -12.5q2 0 9.5 1t23 10t39.5 29t59 57
q20 21 38 42t31.5 38t21.5 27.5l8 10.5q7 10 19 12t22 -6q11 -8 13 -19.5t-6 -22.5q-1 -1 -9 -12t-22 -28t-32.5 -39t-39.5 -44q-110 -117 -173 -117zM173 380q-21 -3 -41 -22.5t-36 -46t-26 -53.5t-10 -44q38 16 69.5 44.5t54.5 60.5q5 7 9.5 17.5t4.5 20t-5.5 16.5
t-19.5 7zM242 498q-11 -2 -18 4l-111 72q-7 5 -3.5 16t8.5 17t15 11t18 0l96 -87q8 -5 9 -13.5t-4 -13.5q-2 -4 -10 -6z" />
    <glyph glyph-name="eacute" unicode="&#xe9;" horiz-adv-x="286" 
d="M81 0q-20 1 -34.5 10.5t-25 23t-17 30t-9.5 33.5q-6 39 -0.5 88t21.5 96.5t42.5 86.5t62.5 58q34 20 65.5 13.5t51 -29t21 -56.5t-24.5 -70q-23 -33 -49.5 -57t-51.5 -40.5t-46.5 -26.5t-34.5 -15q0 -11 0.5 -24t3 -25.5t8 -22t15.5 -12.5q2 0 9.5 1t23 10t39.5 29t59 57
q20 21 38 42t31.5 38t21.5 27.5l8 10.5q7 10 19 12t22 -6q11 -8 13 -19.5t-6 -22.5q-1 -1 -9 -12t-22 -28t-32.5 -39t-39.5 -44q-110 -117 -173 -117zM174 380q-21 -3 -41 -22.5t-36 -46t-26 -53.5t-10 -44q38 16 69.5 44.5t54.5 60.5q5 7 9.5 17.5t4.5 20t-5.5 16.5
t-19.5 7zM110 497q-5 1 -9 7q-5 7 -2 14.5t11 12.5l107 72q8 5 17.5 -2t13.5 -13q5 -8 6.5 -18.5t-6.5 -15.5l-119 -55q-10 -5 -19 -2z" />
    <glyph glyph-name="ecircumflex" unicode="&#xea;" horiz-adv-x="279" 
d="M80 0q-20 1 -34.5 10.5t-25 23t-17 30t-9.5 33.5q-6 39 -0.5 88t21.5 96.5t42.5 86.5t62.5 58q34 20 65.5 13.5t51 -29t21 -56.5t-24.5 -70q-23 -33 -49.5 -57t-51.5 -40.5t-46.5 -26.5t-34.5 -15q0 -11 0.5 -24t3 -25.5t8 -22t15.5 -12.5q2 0 9.5 1t23 10t39.5 29t59 57
q20 21 38 42t31.5 38t21.5 27.5l8 10.5q7 10 19 12t22 -6q11 -8 13 -19.5t-6 -22.5q-1 -1 -9 -12t-22 -28t-32.5 -39t-39.5 -44q-110 -117 -173 -117zM173 380q-21 -3 -41 -22.5t-36 -46t-26 -53.5t-10 -44q38 16 69.5 44.5t54.5 60.5q5 7 9.5 17.5t4.5 20t-5.5 16.5
t-19.5 7zM160 629q7 1 13 -6l84 -78q5 -6 2 -16.5t-8 -17.5q-5 -5 -13 -9t-13 1l-64 84l-71 -86q-6 -5 -14 0.5t-13 11.5q-3 6 -5 17t3 16l89 78q1 1 2 1t1 1z" />
    <glyph glyph-name="edieresis" unicode="&#xeb;" horiz-adv-x="265" 
d="M290 548q0 -22 -13.5 -33t-29 -11t-29 11t-13.5 33v4q0 22 13.5 33t29 11t29 -11t13.5 -33v-4zM170 551q0 -22 -13.5 -33t-29 -11t-29 11t-13.5 33v4q0 22 13.5 33t29 11t29 -11t13.5 -33v-4zM78 0q-20 1 -34.5 10.5t-25 23t-17 30t-9.5 33.5q-6 39 -0.5 88t21.5 96.5
t42.5 86.5t62.5 58q34 20 65.5 13.5t51 -29t21 -56.5t-24.5 -70q-23 -33 -49.5 -57t-51.5 -40.5t-46.5 -26.5t-34.5 -15q0 -11 0.5 -24t3 -25.5t8 -22t15.5 -12.5q2 0 9.5 1t23 10t39.5 29t59 57q20 21 38 42t31.5 38t21.5 27.5l8 10.5q7 10 19 12t22 -6q11 -8 13 -19.5
t-6 -22.5q-1 -1 -9 -12t-22 -28t-32.5 -39t-39.5 -44q-110 -117 -173 -117zM171 380q-21 -3 -41 -22.5t-36 -46t-26 -53.5t-10 -44q38 16 69.5 44.5t54.5 60.5q5 7 9.5 17.5t4.5 20t-5.5 16.5t-19.5 7z" />
    <glyph glyph-name="igrave" unicode="&#xec;" horiz-adv-x="137" 
d="M225 307q-11 5 -23 0.5t-17 -15.5q-8 -18 -18 -37q-8 -17 -19.5 -38.5t-25.5 -43.5q-20 -33 -35.5 -53.5t-26.5 -32.5t-18.5 -17.5t-11.5 -6.5q-1 5 -1.5 16t1.5 32q3 20 8.5 45t14.5 54q7 25 15.5 52t15.5 49t12 36.5l5 14.5q5 11 0 22.5t-17 15.5q-11 5 -22.5 0
t-16.5 -17q0 -1 -5.5 -15.5t-13 -37t-16 -50.5t-16.5 -55q-19 -65 -23 -109q-9 -64 12 -92q16 -22 43 -22h4q36 1 79 50q15 17 31 39t34 50q14 23 26 45.5t20.5 40t13.5 28.5t5 12q5 11 1 23t-15 17zM159 429q-9 0 -13 5l-79 69q-4 6 -0.5 13.5t8.5 12.5q5 4 14 6.5t14 -2.5
l64 -79q6 -5 6 -11.5t-5 -10.5q-5 -3 -9 -3z" />
    <glyph glyph-name="iacute" unicode="&#xed;" horiz-adv-x="163" 
d="M228 307q-11 5 -23 0.5t-17 -15.5q-8 -18 -18 -37q-8 -17 -19.5 -38.5t-25.5 -43.5q-20 -33 -35.5 -53.5t-26.5 -32.5t-18.5 -17.5t-11.5 -6.5q-1 5 -1.5 16t1.5 32q3 20 8.5 45t14.5 54q7 25 15.5 52t15.5 49t12 36.5l5 14.5q5 11 0 22.5t-17 15.5q-11 5 -22.5 0
t-16.5 -17q0 -1 -5.5 -15.5t-13 -37t-16 -50.5t-16.5 -55q-19 -65 -23 -109q-9 -64 12 -92q16 -22 43 -22h4q36 1 79 50q15 17 31 39t34 50q14 23 26 45.5t20.5 40t13.5 28.5t5 12q5 11 1 23t-15 17zM38 435q-7 2 -10 7q-4 6 -1.5 14t10.5 13l104 75q8 5 17.5 -1.5
t14.5 -12.5q5 -7 7 -18t-6 -16l-118 -59q-9 -6 -18 -2z" />
    <glyph glyph-name="icircumflex" unicode="&#xee;" horiz-adv-x="150" 
d="M229 307q-11 5 -23 0.5t-17 -15.5q-8 -18 -18 -37q-8 -17 -19.5 -38.5t-25.5 -43.5q-20 -33 -35.5 -53.5t-26.5 -32.5t-18.5 -17.5t-11.5 -6.5q-1 5 -1.5 16t1.5 32q3 20 8.5 45t14.5 54q7 25 15.5 52t15.5 49t12 36.5l5 14.5q5 11 0 22.5t-17 15.5q-11 5 -22.5 0
t-16.5 -17q0 -1 -5.5 -15.5t-13 -37t-16 -50.5t-16.5 -55q-19 -65 -23 -109q-9 -64 12 -92q16 -22 43 -22h4q36 1 79 50q15 17 31 39t34 50q14 23 26 45.5t20.5 40t13.5 28.5t5 12q5 11 1 23t-15 17zM89 528q5 1 10 -5l67 -66q4 -5 1.5 -14t-6.5 -15q-4 -4 -10 -7.5t-11 1.5
l-51 71l-56 -73q-5 -5 -11.5 0t-10.5 10q-2 5 -4 14t3 14l71 66q0 1 1 1l1 1z" />
    <glyph glyph-name="idieresis" unicode="&#xef;" horiz-adv-x="144" 
d="M229 307q11 -5 15 -17t-1 -23q0 -1 -5 -12t-13.5 -28.5t-20.5 -40t-26 -45.5q-18 -28 -34 -50t-31 -39q-43 -49 -79 -50h-4q-27 0 -43 22q-21 28 -12 92q4 44 23 109q8 27 16.5 55t16 50.5t13 37t5.5 15.5q5 12 16.5 17t22.5 0q12 -4 17 -15.5t0 -22.5l-5 -14.5
t-12 -36.5t-15.5 -49t-15.5 -52q-9 -29 -14.5 -54t-8.5 -45q-2 -21 -1.5 -32t1.5 -16q4 1 11.5 6.5t18.5 17.5t26.5 32.5t35.5 53.5q14 22 25.5 43.5t19.5 38.5q10 19 18 37q5 11 17 15.5t23 -0.5zM177 468q0 -15 -9 -22t-19.5 -7t-19 7t-8.5 22v3q0 15 8.5 22t19 7t19.5 -7
t9 -22v-3zM98 470q0 -15 -9 -22t-19.5 -7t-19 7t-8.5 22v2q0 15 8.5 22t19 7t19.5 -7t9 -22v-2z" />
    <glyph glyph-name="ntilde" unicode="&#xf1;" horiz-adv-x="372" 
d="M109 521q3 5 10 15.5t17 21t24 18.5t31 7q13 -1 22 -8.5t16 -16.5t14.5 -16.5t17.5 -7.5q13 0 24 7t19.5 14t15 11.5t11.5 1.5q6 -3 1 -14.5t-16 -24.5t-25.5 -23t-27.5 -10q-14 0 -22.5 7.5t-17 17t-17.5 17t-24 7.5t-25.5 -7.5t-17.5 -15.5q-8 -10 -13 -22
q-10 -3 -16 -1q-5 1 -7 6t6 16zM-38 44q2 13 8 40t13 61t15 70.5t15 68t12.5 54t6.5 27.5q4 13 15 19t22 3t18 -13.5t4 -22.5q-11 -42 -22 -92t-24 -93q10 12 25 37.5t33.5 55t39.5 59.5t43.5 51t45.5 28t45 -9q13 -9 14 -31.5t-5 -52.5t-16 -64.5t-20.5 -68t-18 -63
t-7.5 -49.5q8 -12 24.5 -0.5t35.5 36t38.5 56t36 60t26.5 48l10 19.5q5 11 16 17t23 1q11 -5 15 -16t-2 -23q-11 -20 -26 -48t-33.5 -58t-39.5 -59.5t-43 -52t-45 -34.5t-45 -7q-27 6 -33 30.5t-1 59.5t17 74.5t23 75.5t16 63t-4 37q-12 -5 -28.5 -23.5t-35 -45t-38.5 -58.5
t-39 -65t-36 -64t-29 -55q-6 -12 -18.5 -17.5t-23.5 -4t-18.5 11t-4.5 27.5z" />
    <glyph glyph-name="ograve" unicode="&#xf2;" horiz-adv-x="298" 
d="M380 303q-11 7 -23 3.5t-19 -14.5q-1 -1 -11.5 -21t-27 -44t-36.5 -44.5t-38 -23.5q10 29 19.5 71.5t10 84t-13.5 75t-52 44.5q-31 4 -57 -8t-48 -34.5t-39 -52.5t-29.5 -62t-20 -62.5t-10.5 -53.5q-3 -24 -0.5 -51.5t12.5 -51.5t28 -39.5t47 -15.5q19 0 37.5 8.5t35 22
t30.5 30.5t24 34q24 -3 52 13.5t54.5 42t48 55t33.5 52.5q7 11 5.5 22.5t-12.5 19.5zM169 373q12 -4 17 -17.5t5.5 -32.5t-2.5 -40.5t-7 -41t-9 -35t-7 -21.5q-12 10 -24 24t-22 30t-17 31.5t-9 27.5q4 9 12 21.5t18.5 24.5t22 20.5t22.5 8.5zM190 497q-11 0 -17 8l-95 91
q-5 7 0 17t11 15t17 8t18 -4l77 -103q7 -7 6.5 -15t-6.5 -13q-4 -4 -11 -4zM72 65q-17 4 -22 22t-4 39.5t5.5 43t7.5 32.5q11 -27 27.5 -46t40.5 -36q-19 -29 -33.5 -42t-21.5 -13z" />
    <glyph glyph-name="oacute" unicode="&#xf3;" horiz-adv-x="295" 
d="M377 303q-11 7 -23 3.5t-19 -14.5q-1 -1 -11.5 -21t-27 -44t-36.5 -44.5t-38 -23.5q10 29 19.5 71.5t10 84t-13.5 75t-52 44.5q-31 4 -57 -8t-48 -34.5t-39 -52.5t-29.5 -62t-20 -62.5t-10.5 -53.5q-3 -24 -0.5 -51.5t12.5 -51.5t28 -39.5t47 -15.5q19 0 37.5 8.5t35 22
t30.5 30.5t24 34q24 -3 52 13.5t54.5 42t48 55t33.5 52.5q7 11 5.5 22.5t-12.5 19.5zM166 373q12 -4 17 -17.5t5.5 -32.5t-2.5 -40.5t-7 -41t-9 -35t-7 -21.5q-12 10 -24 24t-22 30t-17 31.5t-9 27.5q4 9 12 21.5t18.5 24.5t22 20.5t22.5 8.5zM99 496q-7 2 -9 7
q-5 7 -2.5 14.5t10.5 12.5l106 73q8 5 17.5 -1.5t14.5 -12.5q4 -8 6 -18.5t-6 -15.5l-119 -57q-9 -6 -18 -2zM69 65q-17 4 -22 22t-4 39.5t5.5 43t7.5 32.5q11 -27 27.5 -46t40.5 -36q-19 -29 -33.5 -42t-21.5 -13z" />
    <glyph glyph-name="ocircumflex" unicode="&#xf4;" horiz-adv-x="294" 
d="M376 303q-11 7 -23 3.5t-19 -14.5q-1 -1 -11.5 -21t-27 -44t-36.5 -44.5t-38 -23.5q10 29 19.5 71.5t10 84t-13.5 75t-52 44.5q-31 4 -57 -8t-48 -34.5t-39 -52.5t-29.5 -62t-20 -62.5t-10.5 -53.5q-3 -24 -0.5 -51.5t12.5 -51.5t28 -39.5t47 -15.5q19 0 37.5 8.5t35 22
t30.5 30.5t24 34q24 -3 52 13.5t54.5 42t48 55t33.5 52.5q7 11 5.5 22.5t-12.5 19.5zM165 373q12 -4 17 -17.5t5.5 -32.5t-2.5 -40.5t-7 -41t-9 -35t-7 -21.5q-12 10 -24 24t-22 30t-17 31.5t-9 27.5q4 9 12 21.5t18.5 24.5t22 20.5t22.5 8.5zM68 65q-17 4 -22 22t-4 39.5
t5.5 43t7.5 32.5q11 -27 27.5 -46t40.5 -36q-19 -29 -33.5 -42t-21.5 -13zM164 629q7 1 13 -6l84 -78q5 -6 2 -16.5t-8 -17.5q-5 -5 -13 -9t-13 1l-64 84l-71 -86q-6 -5 -14 0.5t-13 11.5q-3 6 -5 17t3 16l89 78q1 1 2 1t1 1z" />
    <glyph glyph-name="otilde" unicode="&#xf5;" horiz-adv-x="290" 
d="M59 521q3 5 10 15.5t17 21t24 18.5t31 7q13 -1 22 -8.5t16 -16.5t14.5 -16.5t17.5 -7.5q13 0 24 7t19.5 14t15 11.5t11.5 1.5q6 -3 1 -14.5t-16 -24.5t-25.5 -23t-27.5 -10q-14 0 -22.5 7.5t-17 17t-17.5 17t-24 7.5t-25.5 -7.5t-17.5 -15.5q-8 -10 -13 -22
q-10 -3 -16 -1q-5 1 -7 6t6 16zM372 283q-11 7 -23 3.5t-19 -14.5q-1 -1 -11.5 -17.5t-27 -37t-36.5 -38t-38 -20.5q10 29 19.5 71.5t10 84t-13.5 75t-52 44.5q-31 4 -57 -8t-48 -34.5t-39 -52.5t-29.5 -62t-20 -62.5t-10.5 -53.5q-3 -24 -0.5 -51.5t12.5 -51.5t28 -39.5
t47 -15.5q19 0 37.5 8.5t35 22t30.5 30.5t24 34q24 -3 52 10.5t54.5 35.5t48 48t33.5 49q7 11 5.5 22.5t-12.5 19.5zM161 373q12 -4 17 -17.5t5.5 -32.5t-2.5 -40.5t-7 -41t-9 -35t-7 -21.5q-12 10 -24 24t-22 30t-17 31.5t-9 27.5q4 9 12 21.5t18.5 24.5t22 20.5t22.5 8.5z
M64 65q-17 4 -22 22t-4 39.5t5.5 43t7.5 32.5q11 -27 27.5 -46t40.5 -36q-19 -29 -33.5 -42t-21.5 -13z" />
    <glyph glyph-name="odieresis" unicode="&#xf6;" horiz-adv-x="276" 
d="M358 303q11 -8 12.5 -19.5t-5.5 -22.5q-12 -23 -33.5 -52.5t-48 -55t-54.5 -42t-52 -13.5q-10 -17 -24 -34t-30.5 -30.5t-35 -22t-37.5 -8.5q-29 0 -47 15.5t-28 39.5t-12.5 51.5t0.5 51.5q3 23 10.5 53.5t20 62.5t29.5 62t39 52.5t48 34.5t57 8q38 -11 52 -44.5
t13.5 -75t-10 -84t-19.5 -71.5q18 3 38 23.5t36.5 44.5t27 44t11.5 21q7 11 19 14.5t23 -3.5zM147 373q-11 0 -22.5 -8.5t-22 -20.5t-18.5 -24.5t-12 -21.5q2 -12 9 -27.5t17 -31.5t22 -30t24 -24q2 6 7 21.5t9 35t7 41t2.5 40.5t-5.5 32.5t-17 17.5zM268 538
q0 -22 -13.5 -33t-29 -11t-29 11t-13.5 33v4q0 22 13.5 33t29 11t29 -11t13.5 -33v-4zM148 541q0 -22 -13.5 -33t-29 -11t-29 11t-13.5 33v4q0 22 13.5 33t29 11t29 -11t13.5 -33v-4zM50 65q7 0 21.5 13t33.5 42q-24 17 -40.5 36t-27.5 46q-3 -11 -7.5 -32.5t-5.5 -43
t4 -39.5t22 -22z" />
    <glyph glyph-name="divide" unicode="&#xf7;" horiz-adv-x="739" 
d="M201 257h367q10 0 15.5 6t5.5 13.5t-5.5 14t-15.5 6.5h-367q-11 0 -16 -6.5t-5 -14t5 -13.5t16 -6zM388 371q-14 0 -22 9t-8 21t8 22.5t22 10.5t21.5 -10.5t7.5 -22.5q0 -13 -8.5 -21.5t-20.5 -8.5zM388 131q-14 0 -22 9t-8 21t8 22.5t22 10.5t21.5 -10.5t7.5 -22.5
q0 -13 -8.5 -21.5t-20.5 -8.5z" />
    <glyph glyph-name="oslash" unicode="&#xf8;" horiz-adv-x="300" 
d="M3 -1q-7 0 -10 1q-13 3 -17.5 14t2.5 24l17 31q-7 22 -8.5 46.5t0.5 45.5q3 23 10.5 53t19.5 62t29 62t38.5 52.5t47.5 35t57 8.5l10 18q7 13 19.5 19t26.5 4q11 -4 16 -14.5t-1 -24.5l-21 -39q13 -23 16 -55t-1 -65t-12 -64.5t-15 -53.5q-40 -80 -77.5 -118t-75.5 -38
q-23 0 -42 11q-12 -15 -29 -15zM168 185l6.5 19.5t8.5 31.5t7.5 38.5t3.5 38.5l-54 -100q7 -8 13.5 -15.5t14.5 -12.5zM51 66q9 -6 22.5 0t27.5 17.5t26 25t18 22.5q-8 5 -15 19t-13 20zM96 298q1 -10 8 -25l50 95q-9 -5 -18 -14t-17 -19t-14 -20t-9 -17zM18 97l64 94
l-3.5 5t-7.5 10.5t-7.5 10t-3.5 3.5z" />
    <glyph glyph-name="ugrave" unicode="&#xf9;" horiz-adv-x="343" 
d="M425 285q-11 5 -23 1t-17 -15q0 -1 -17 -29t-45 -73q-20 -33 -35.5 -53.5t-27 -32.5t-18.5 -17t-11 -6q-2 4 -2 15t2 32q3 20 8.5 45t13.5 54q7 25 15 52.5t14.5 50t10.5 37l4 14.5q5 11 -0.5 22.5t-16.5 16.5q-12 5 -23 -0.5t-16 -16.5q0 -1 -3.5 -13.5t-8.5 -31.5
t-11.5 -42t-13.5 -45l-5.5 -9t-15 -23t-21.5 -32.5t-26 -36.5q-23 -32 -40 -49.5t-28 -26t-16.5 -11t-6.5 -2.5q-3 1 -3 4q-2 3 -4 12.5t-1.5 28.5t5 48.5t15.5 73.5q6 25 13 49t13 43t9.5 31l3.5 12q5 11 -0.5 22t-17.5 16q-11 5 -22.5 -0.5t-15.5 -17.5q0 -1 -4 -13
t-10 -31.5t-13 -44t-14 -50.5q-39 -149 -11 -205q12 -26 38 -35q9 -3 19 -3q29 0 67 32q14 11 28 26.5t30 35.5q-4 -50 14 -74q16 -22 43 -22h3q38 3 80 51q15 16 31 38t33 50q29 48 46.5 77t18.5 31q5 11 1 22.5t-15 17.5zM220 505q-11 0 -17 8l-95 91q-5 7 0 17t11 15
t17 8t18 -4l77 -103q7 -7 6.5 -15t-6.5 -13q-4 -4 -11 -4z" />
    <glyph glyph-name="uacute" unicode="&#xfa;" horiz-adv-x="345" 
d="M427 285q-11 5 -23 1t-17 -15q0 -1 -17 -29t-45 -73q-20 -33 -35.5 -53.5t-27 -32.5t-18.5 -17t-11 -6q-2 4 -2 15t2 32q3 20 8.5 45t13.5 54q7 25 15 52.5t14.5 50t10.5 37l4 14.5q5 11 -0.5 22.5t-16.5 16.5q-12 5 -23 -0.5t-16 -16.5q0 -1 -3.5 -13.5t-8.5 -31.5
t-11.5 -42t-13.5 -45l-5.5 -9t-15 -23t-21.5 -32.5t-26 -36.5q-23 -32 -40 -49.5t-28 -26t-16.5 -11t-6.5 -2.5q-3 1 -3 4q-2 3 -4 12.5t-1.5 28.5t5 48.5t15.5 73.5q6 25 13 49t13 43t9.5 31l3.5 12q5 11 -0.5 22t-17.5 16q-11 5 -22.5 -0.5t-15.5 -17.5q0 -1 -4 -13
t-10 -31.5t-13 -44t-14 -50.5q-39 -149 -11 -205q12 -26 38 -35q9 -3 19 -3q29 0 67 32q14 11 28 26.5t30 35.5q-4 -50 14 -74q16 -22 43 -22h3q38 3 80 51q15 16 31 38t33 50q29 48 46.5 77t18.5 31q5 11 1 22.5t-15 17.5zM174 506q-7 0 -11 4q-6 5 -6.5 13t6.5 15l77 103
q7 7 18 4t17 -8t11 -15t0 -17l-95 -91q-6 -8 -17 -8z" />
    <glyph glyph-name="ucircumflex" unicode="&#xfb;" horiz-adv-x="356" 
d="M196 629q7 1 13 -6l84 -78q5 -6 2 -16.5t-8 -17.5q-5 -5 -13 -9t-13 1l-64 84l-71 -86q-6 -5 -14 0.5t-13 11.5q-3 6 -5 17t3 16l89 78q1 1 2 1t1 1zM358 252l-9 -17t-22.5 -42t-30 -52.5t-30 -47.5t-23.5 -27.5t-10 7.5q0 27 11.5 67.5t22.5 84.5q7 24 14 47.5t13 41.5
t9.5 29.5l3.5 11.5q5 11 -0.5 22.5t-16.5 16.5q-12 5 -23 -0.5t-16 -16.5q0 -1 -7.5 -25.5t-17.5 -57.5t-20.5 -68t-17.5 -57q-16 -18 -36.5 -39.5t-40 -38t-36 -23t-24.5 6.5t-5.5 50t21.5 107q7 25 14 49t12.5 42.5t9 30l3.5 11.5q5 11 -0.5 22t-17.5 16q-11 5 -22.5 -0.5
t-15.5 -17.5q0 -1 -4 -12.5t-10 -30.5t-13 -43.5t-14 -50.5q-39 -149 -11 -205q12 -26 38 -35q9 -3 19 -3q29 0 67 32q12 10 24.5 23.5t26.5 30.5q-4 -37 3.5 -63t34.5 -31q28 -5 55 19t51.5 61.5t46 80t39.5 73.5q7 12 3.5 22.5t-12 15.5t-19 2t-17.5 -19z" />
    <glyph glyph-name="udieresis" unicode="&#xfc;" horiz-adv-x="343" 
d="M425 285q11 -6 15 -17.5t-1 -22.5q-1 -2 -18.5 -31t-46.5 -77q-17 -28 -33 -50t-31 -38q-42 -48 -80 -51h-3q-27 0 -43 22q-18 24 -14 74q-16 -20 -30 -35.5t-28 -26.5q-38 -32 -67 -32q-10 0 -19 3q-26 9 -38 35q-28 56 11 205q7 26 14 50.5t13 44t10 31.5t4 13
q4 12 15.5 17.5t22.5 0.5q12 -5 17.5 -16t0.5 -22l-3.5 -12t-9.5 -31t-13 -43t-13 -49q-11 -44 -15.5 -73.5t-5 -48.5t1.5 -28.5t4 -12.5q0 -3 3 -4q1 0 6.5 2.5t16.5 11t28 26t40 49.5q14 18 26 36.5t21.5 32.5t15 23l5.5 9q7 22 13.5 45t11.5 42t8.5 31.5t3.5 13.5
q5 11 16 16.5t23 0.5q11 -5 16.5 -16.5t0.5 -22.5l-4 -14.5t-10.5 -37t-14.5 -50t-15 -52.5q-8 -29 -13.5 -54t-8.5 -45q-2 -21 -2 -32t2 -15q4 1 11 6t18.5 17t27 32.5t35.5 53.5q28 45 45 73t17 29q5 11 17 15t23 -1zM165 548q0 -22 -13.5 -33t-29 -11t-29 11t-13.5 33v4
q0 22 13.5 33t29 11t29 -11t13.5 -33v-4zM285 545q0 -22 -13.5 -33t-29 -11t-29 11t-13.5 33v4q0 22 13.5 33t29 11t29 -11t13.5 -33v-4z" />
    <glyph glyph-name="yacute" unicode="&#xfd;" horiz-adv-x="276" 
d="M302 360q-3 17 -21 22q-12 3 -23 -3.5t-14 -18.5q-9 -28 -18 -53.5t-17 -54.5q0 -1 -1 -1q-9 -15 -20 -32q-9 -14 -21 -32.5t-26 -36.5q-23 -31 -40 -48.5t-28 -26.5t-17 -11.5t-7 -2.5q-9 12 -9 35t3.5 48.5t9.5 48.5t9 35q6 25 14.5 49.5t16 44t13 31.5l5.5 12
q4 11 -1 22t-17 16q-11 5 -22.5 -0.5t-15.5 -17.5q-1 -1 -6.5 -13.5t-13 -32t-16 -44.5t-15.5 -51q-39 -149 -12 -205q9 -17 24 -27.5t33 -10.5q30 0 68 32q13 11 27.5 26.5t30.5 35.5v-1l-71 -272q-3 -11 -7.5 -21t-12.5 -18q-1 0 -7 3t-16.5 16t-26.5 38.5t-36 70.5
q-5 11 -17 15.5t-23 -0.5t-15.5 -16.5t0.5 -23.5q39 -85 73 -125q17 -20 35 -28.5t39 -8.5q16 1 28 9.5t21 21t14.5 27t8.5 26.5q35 132 58.5 223.5t39 152t23.5 94t12 51t5 23t2 8.5zM140 507q-7 0 -11 4q-6 5 -6.5 13t6.5 15l77 103q7 7 18 4t17 -8t11 -15t0 -17l-95 -91
q-6 -8 -17 -8z" />
    <glyph glyph-name="ydieresis" unicode="&#xff;" horiz-adv-x="275" 
d="M301 360q-1 -3 -2 -8.5t-5 -23t-12 -51t-23.5 -94t-39 -152t-58.5 -223.5q-3 -12 -8.5 -26.5t-14.5 -27t-21 -21t-28 -9.5q-21 0 -39 8.5t-35 28.5q-34 40 -73 125q-5 12 -0.5 23.5t15.5 16.5t23 0.5t17 -15.5q20 -45 36 -70.5t26.5 -38.5t16.5 -16t7 -3q4 4 8 12.5
t13 39t25.5 91t44.5 168.5v1q-16 -20 -30.5 -35.5t-27.5 -26.5q-38 -32 -68 -32q-18 0 -33 10.5t-24 27.5q-27 56 12 205q7 26 15.5 51t16 44.5t13 32t6.5 13.5q4 12 15.5 17.5t22.5 0.5q12 -5 17 -16t1 -22l-5.5 -12t-13 -31.5t-16 -44t-14.5 -49.5q-3 -12 -9 -35
t-9.5 -48.5t-3.5 -48.5t9 -35q1 0 7 2.5t17 11.5t28 26.5t40 48.5q14 18 26 36.5t21 32.5q11 17 20 32q1 0 1 1q8 29 17 54.5t18 53.5q3 12 14 18.5t23 3.5q18 -5 21 -22zM167 547q0 -22 -13.5 -33t-29 -11t-29 11t-13.5 33v4q0 22 13.5 33t29 11t29 -11t13.5 -33v-4z
M287 544q0 -22 -13.5 -33t-29 -11t-29 11t-13.5 33v4q0 22 13.5 33t29 11t29 -11t13.5 -33v-4z" />
    <glyph glyph-name="Lslash" unicode="&#x141;" horiz-adv-x="398" 
d="M-11 262q-11 0 -16 6t-5 13.5t5 14t16 6.5h145q5 17 10 33t10 33q19 69 27.5 119t9 83t-5.5 50.5t-16 21.5q-3 1 -7 1.5t-11 -2.5q-5 -2 -12.5 -8t-17.5 -17t-22 -29.5t-26 -46.5q-9 -17 -16 -32.5t-12 -27.5q-6 -14 -10 -26t-15 -17.5t-23 -1.5t-17.5 15t-0.5 23
q0 2 10.5 30t29.5 64q52 103 107 129q35 14 67 1q12 -5 26.5 -18.5t22.5 -40.5q10 -33 9 -83q-5 -81 -39 -204l-15 -49h213q10 0 15.5 -6.5t5.5 -14t-5.5 -13.5t-15.5 -6h-226q-10 -32 -20.5 -62t-20 -56t-17.5 -46t-12 -31q20 -2 41.5 -4t43.5 -3q40 -2 71.5 0t55.5 7
q17 4 34 11.5t22 20.5q4 12 15 18t23 1q11 -4 17 -15t2 -23q-18 -52 -100 -72q-44 -9 -104 -9h-19.5t-19.5 1q-36 1 -69.5 5t-60 7.5t-43 6.5t-17.5 3q-12 2 -19 12.5t-5 22.5q3 13 13 19.5t23 4.5q4 -1 9 -2t11.5 -2t14.5 -2q2 6 9 23.5t16 42.5t20.5 56t22.5 65h-132v0z
" />
    <glyph glyph-name="lslash" unicode="&#x142;" horiz-adv-x="232" 
d="M159 593q4 12 16 17t23 0q12 -5 21 -15.5t4 -23.5q0 1 -7.5 -22.5t-20 -61.5t-28 -87t-31.5 -98h191q10 0 15.5 -6.5t5 -14t-6 -13.5t-17.5 -6q-15 -16 -36 -41.5t-45 -54t-50.5 -57.5t-52 -52.5t-49 -39t-41.5 -15.5q-29 2 -42 27q-5 9 -3 31t8.5 53.5t16.5 69.5t22 79
h-146q-11 0 -16 6t-5 13.5t5 14t16 6.5h158q15 51 31.5 101t30 90.5t22.5 67t11 32.5zM124 262q-12 -38 -22.5 -72.5t-17.5 -60.5t-10 -41.5t-1 -15.5q7 -1 29 20.5t49.5 52t54.5 63t45 54.5h-127z" />
    <glyph glyph-name="OE" unicode="&#x152;" horiz-adv-x="743" 
d="M440 3q-54 0 -92 41q-36 38 -33 85q0 10 2.5 19.5t5.5 18.5q-10 -2 -21 -3t-22 -1h-3q-38 -71 -84 -113q-59 -54 -124 -54h-8q-66 3 -100 67q-26 52 -23 134q2 72 24 153t58 153l2 2q1 3 2 5.5t3 5.5q48 87 104.5 133t116.5 46h8q33 -3 56 -22q20 -17 34 -48
q23 -52 20 -132q-2 -63 -18 -133.5t-42 -134.5q24 5 44.5 16.5t39 25.5t36 30t35.5 30q12 11 11 30t-6.5 41.5t-11.5 46t-4 43.5q11 77 68 134q20 22 45 36.5t50 19.5q30 7 58 0.5t50 -24.5q21 -17 33 -39t12 -48q2 -52 -42 -108q-15 -22 -27 -35t-13 -13q-9 -8 -21.5 -7
t-20.5 9q-8 9 -7 21.5t9 20.5q7 6 17.5 18t21 27t17.5 32t7 33q0 25 -22 45q-15 11 -31.5 13t-33 -3t-33 -15.5t-29.5 -23.5q-22 -23 -28.5 -48.5t-5.5 -52.5t6 -54.5t5.5 -53t-7 -48.5t-30.5 -41q-16 -14 -37 -32t-40.5 -39t-33 -43t-14.5 -43q-1 -24 17 -42q23 -25 54 -23
q35 2 79 30.5t96 79.5q21 20 38 39t29.5 34.5t19.5 25l7 9.5q8 10 20 12t21 -6q10 -8 12 -19.5t-6 -21.5q0 -1 -8 -11t-21 -25.5t-31.5 -36t-39.5 -41.5q-121 -121 -212 -127h-8zM248 635q-42 0 -86 -38.5t-82 -109.5q5 -17 17.5 -52t32.5 -75q15 -29 30 -52.5t31 -40.5
q25 -27 51 -38q29 63 45.5 132.5t18.5 132.5q2 69 -15 107q-9 22 -19.5 27.5t-18.5 6.5h-5zM153 95q16 15 32 35t30 45q-76 34 -139 159q-10 20 -18 38.5t-14 35.5q-21 -54 -33 -108.5t-14 -104.5q0 -19 1.5 -42.5t8.5 -44.5t20.5 -36t36.5 -16h5q42 0 84 39z" />
    <glyph glyph-name="oe" unicode="&#x153;" horiz-adv-x="615" 
d="M480 422q36 20 67 14.5t48 -27.5t15 -55.5t-32 -69.5q-26 -33 -54.5 -57t-55 -40.5t-49 -26.5t-36.5 -15q-1 -11 -2 -24t0 -25.5t5.5 -22t14.5 -12.5q2 0 10 1t24.5 10t42.5 29t64 57q22 21 42 42t35 38t24.5 27.5l9.5 10.5q8 10 20.5 12t20.5 -6q10 -8 11 -19.5
t-7 -22.5q-2 -1 -11.5 -12t-25 -28t-36 -39t-44.5 -44q-75 -72 -128.5 -95.5t-87 -13t-47 47.5t-8.5 88q-24 -22 -48.5 -35t-46.5 -11q-10 -17 -24 -34t-30.5 -30.5t-35 -22t-37.5 -8.5q-29 0 -47 15.5t-28 39.5t-12.5 51.5t0.5 51.5q3 23 10.5 53.5t20 62.5t29.5 62
t39 52.5t48 34.5t57 8q38 -11 52 -44.5t13.5 -75t-10 -84t-19.5 -71.5q18 3 38 23.5t36.5 44.5t27 44t11.5 21q19 38 49.5 73t76.5 57zM185 373q-11 0 -22.5 -8.5t-22 -20.5t-18.5 -24.5t-12 -21.5q2 -12 9 -27.5t17 -31.5t22 -30t24 -24q2 6 7 21.5t9 35t7 41t2.5 40.5
t-5.5 33t-17 17zM528 380q-21 -3 -41.5 -22.5t-38.5 -46t-31 -53.5t-19 -44q39 16 74 44.5t61 60.5q6 7 11 17.5t6 20t-3.5 16.5t-18.5 7zM88 65q7 0 21.5 13t33.5 42q-24 17 -40.5 36t-27.5 46q-3 -11 -7.5 -32.5t-5.5 -43t4 -39.5t22 -22z" />
    <glyph glyph-name="Scaron" unicode="&#x160;" horiz-adv-x="326" 
d="M239 829q-7 7 -6 15.5t6.5 13.5t14 5.5t15.5 -6.5l62 -67l62 69q6 8 14.5 8t14.5 -5t7.5 -13t-4.5 -16l-75 -84q-2 -4 -4 -6q-3 -3 -10 -5q-10 -2 -19 7zM-26 227q-2 12 4.5 23t18.5 14q12 4 23 -2t13 -18q3 -19 15 -52.5t30 -64t41 -49.5t49 -10q21 9 27 39t4 66.5
t-8 73.5t-9 61q-6 38 -13 79t-9 82.5t3.5 81t23.5 73.5q22 46 56.5 64.5t70.5 15t69.5 -28t53.5 -64.5q12 -23 17.5 -40.5t6.5 -18.5q4 -11 -2.5 -22.5t-19.5 -16.5q-11 -5 -21.5 0.5t-14.5 17.5q-3 9 -9 25t-15.5 33t-22.5 31.5t-28 21.5q-37 14 -58.5 0t-32 -44t-12 -71
t1 -81t7.5 -74t7 -49q3 -23 8 -52t8.5 -60t3 -62.5t-8 -58.5t-24 -47.5t-45.5 -30.5q-38 -14 -75.5 6t-67 56t-48 78.5t-18.5 74.5z" />
    <glyph glyph-name="scaron" unicode="&#x161;" horiz-adv-x="339" 
d="M225 646q7 7 15.5 6.5t13.5 -5.5t5.5 -13.5t-6.5 -15.5l-87 -87q-3 -5 -8 -8q-12 -11 -24 -3.5t-10 20.5l-54 84q-6 9 -3.5 16.5t9 11.5t14.5 3.5t14 -9.5l47 -74zM-54 47q-9 22 3.5 38.5t35 28.5t50 19.5t47.5 12.5q-26 67 -34 116t-6 83.5t12 56t20 33.5q17 21 42 29
t51 2q33 -8 58 -34.5t36 -64.5q3 -12 -3 -22.5t-19 -13.5q-12 -3 -22.5 3t-13.5 18q-8 26 -22 39.5t-27 16.5q-7 2 -16.5 0.5t-17.5 -12.5q-10 -11 -14.5 -29.5t-4.5 -42.5q2 -68 40 -161l2 -7q21 4 41.5 8.5t40.5 11.5q38 14 70.5 40.5t46.5 55.5q5 11 17 15t23 -1t15 -17
t-1 -23q-20 -40 -60 -74t-91 -52q-21 -8 -43.5 -13.5t-45.5 -9.5q0 -19 -5 -37q-14 -42 -57 -59q-17 -6 -39 -7t-44 4.5t-39.5 17.5t-25.5 31zM12 64q9 -8 23 -10.5t27 0.5t22.5 11t10.5 22q-23 -2 -42.5 -8.5t-40.5 -14.5z" />
    <glyph glyph-name="Ydieresis" unicode="&#x178;" horiz-adv-x="368" 
d="M324 798q-7 7 -1.5 18.5t17 20.5t24.5 12.5t20 -3.5l26 -28q7 -8 1 -19t-17 -20t-24 -13t-20 4zM174 798q-7 7 -1.5 18.5t17 20.5t24.5 12.5t20 -3.5l26 -28q7 -8 1 -19t-17 -20t-24 -13t-20 4zM444 689q12 -2 18.5 -12.5t3.5 -23.5q0 2 -7 -24t-18 -68.5t-24.5 -96
t-27.5 -106t-26 -98.5t-20 -73q-29 -102 -55.5 -182.5t-49.5 -138.5q-14 -36 -26.5 -63t-24.5 -47q-11 -19 -27 -36t-39 -17h-2q-23 0 -41 12t-29 34q-18 34 -14 78.5t29 81.5t65 57q20 10 42 14t46 3q27 78 57 180q-24 -30 -46.5 -53.5t-42.5 -40.5q-54 -45 -96 -45
q-6 0 -10 1h-1h-1q-40 7 -60 42q-15 26 -14.5 62t10 79.5t26.5 92t35 99.5q17 50 32 94.5t23 80.5q3 17 4.5 30t-0.5 22q-2 7 -3.5 8.5t-2.5 1.5q-16 7 -37 -2q-24 -11 -51.5 -42.5t-55.5 -82.5q-23 -40 -36 -70.5t-13 -31.5q-5 -11 -16 -16.5t-23 -0.5q-11 5 -16.5 16
t-0.5 22q0 1 4 10.5t10.5 24.5t16 34.5t21.5 40.5q68 122 136 151q42 20 83 3q12 -5 25 -17.5t18 -38.5q5 -31 -4 -74q-8 -39 -24 -85.5t-34 -97.5q-17 -45 -32 -90t-25 -86q-12 -50 -10.5 -74t6.5 -33q2 -4 6 -7.5t13 -5.5q5 0 18.5 5t39.5 26q19 16 40.5 38.5t44.5 51.5
q32 40 56.5 76t34.5 53q18 67 34 127t27 105.5t17.5 72.5t6.5 28q3 12 13.5 18.5t23.5 3.5zM192 -86q2 3 4 9q-33 -3 -52 -17.5t-30 -29.5q-17 -26 -19 -54.5t7 -45.5q4 -8 8 -10.5t7 -2.5q3 2 10 11t19 31q10 20 21.5 47t24.5 62z" />
    <glyph glyph-name="Zcaron" unicode="&#x17d;" horiz-adv-x="384" 
d="M116 740q-8 -6 -18 -1t-17 14.5t-8.5 20.5t6.5 17l149 82q8 6 16 4t12.5 -8t4 -14t-8.5 -14zM-88 -211q11 77 34.5 127t61.5 79q35 26 74 35t77 14q12 2 23.5 3t22.5 3q20 29 34.5 66t14.5 72q-1 21 -9.5 32t-20.5 17t-26.5 8t-27.5 4.5t-23 6.5t-14 14q-8 17 1.5 32.5
t18.5 26.5q40 47 83 88t80 89q24 31 36.5 61.5t10.5 50.5t-20 25t-55 -14q-46 -23 -106 -80q-26 -26 -49.5 -51t-40.5 -46q-20 -25 -38 -47q-8 -11 -20 -12.5t-22 6.5t-12 20t6 22q1 1 12 15t29 35.5t42.5 48t51.5 52.5q22 21 53 46.5t65 43t68 21.5t62 -18
q30 -22 35.5 -50.5t-2.5 -58.5t-25 -57.5t-33 -48.5q-35 -47 -75 -85t-76 -80q45 -10 66 -32.5t28 -44.5q16 -49 -8 -119q-6 -17 -13 -32q27 15 52 41.5t47 71.5q5 11 17 15t23 -1t15 -17t-1 -23q-51 -103 -131 -144q-16 -8 -32 -13.5t-33 -9.5q-2 -4 -4.5 -7t-4.5 -7
q-19 -29 -42 -58.5t-47 -57.5t-49 -52.5t-49 -43.5q-15 -13 -29 -22t-25 -15q-18 -9 -34.5 -8.5t-27.5 8.5t-16.5 22t-2.5 33zM162 -16q-35 -5 -65 -11.5t-54 -26t-41.5 -55.5t-28.5 -99q14 7 47 34q26 22 53 50.5t53 60.5q9 11 18.5 23t17.5 24z" />
    <glyph glyph-name="zcaron" unicode="&#x17e;" horiz-adv-x="319" 
d="M-90 -283q-36 10 -44.5 40t-0.5 65.5t27 69.5t40 52q40 35 88 54.5t94 41.5q-34 35 -37.5 66.5t35.5 67.5q11 10 34 31t44.5 45t35 46.5t5.5 34.5q-13 20 -35 18.5t-45.5 -15.5t-44.5 -37t-30 -45q-5 -12 -18.5 -12.5t-20.5 3.5q-8 4 -14 12t-1 22q6 19 29.5 46t56 49
t69 32.5t68.5 -2.5q49 -21 51 -66.5t-43 -99.5q-23 -29 -51.5 -56t-51.5 -48q-5 -3 -3 -11.5t6.5 -19t10.5 -20t8 -13.5q26 7 52 32.5t50 58t43.5 66t33.5 57.5q6 13 18 17.5t23 2t17 -10.5t0 -20q-18 -33 -43.5 -76t-56.5 -82.5t-67.5 -70.5t-76.5 -41q-10 -37 -35 -80.5
t-60 -86.5q-16 -19 -34.5 -39.5t-39 -38t-42.5 -28.5t-44 -11zM91 -32q-37 -16 -69.5 -32t-55.5 -36q-11 -9 -22 -25.5t-18.5 -34.5t-10 -35t3.5 -28q32 11 58.5 38t46.5 52q23 26 39.5 52t27.5 49zM111 534q36 26 57 43.5t34.5 25.5t23 7t20.5 -10t27.5 -26.5t45.5 -42.5
q6 -6 1.5 -15.5t-13 -17t-18.5 -10.5t-16 3l-54 85l-75 -85q-7 -5 -16 -1t-15 12t-8 17t6 15z" />
    <glyph glyph-name="florin" unicode="&#x192;" horiz-adv-x="202" 
d="M266 276q12 0 21 -9t9 -22q0 -12 -9 -20.5t-21 -8.5h-158q2 -28 9.5 -73.5t5.5 -114.5q-1 -54 -5 -99t-11 -82q-19 -99 -61 -136q-27 -24 -61 -24q-10 0 -20 3q-9 2 -20.5 8.5t-19.5 22.5q-7 13 -10.5 39.5t4 77.5t30 133.5t67.5 209.5q3 7 4 11t2 6.5t2 6t4 11.5
q-2 0 -9 8.5t-7 20.5q0 13 9.5 22t29.5 9q18 49 39 103l38.5 99t29 75l11.5 30q5 11 17 16t23 0t16 -17t0 -23l-11 -28l-27.5 -70t-35.5 -91.5t-36 -93.5h151zM63 29q2 56 0 104q-27 -76 -45.5 -139t-29.5 -112q-9 -39 -11.5 -64t-2.5 -40t1.5 -22t2.5 -8q16 -3 28 8
q9 8 20.5 30.5t21.5 72.5q13 67 15 170z" />
    <glyph glyph-name="circumflex" unicode="&#x2c6;" horiz-adv-x="506" 
d="M250 629q7 1 13 -6l84 -78q5 -6 2 -16.5t-8 -17.5q-5 -5 -13 -9t-13 1l-64 84l-71 -86q-6 -5 -14 0.5t-13 11.5q-3 6 -5 17t3 16l89 78q1 1 2 1t1 1z" />
    <glyph glyph-name="tilde" unicode="&#x2dc;" horiz-adv-x="450" 
d="M95 761q2 9 6.5 22t14 25.5t25.5 21.5t41 9q21 0 35 -13t24.5 -28t19.5 -28t20 -13q22 0 35.5 11.5t21.5 25.5q9 17 13 38q11 3 20 3q7 0 12 -3.5t3 -12.5t-8 -24.5t-17.5 -30t-29.5 -25t-43 -10.5q-26 0 -40 12.5t-24 27.5t-19 28t-25 13q-21 0 -31 -9.5t-14 -20.5
q-4 -13 -4 -30q-11 -3 -20 -3q-8 0 -13 2.5t-3 11.5z" />
    <glyph glyph-name="endash" unicode="&#x2013;" horiz-adv-x="547" 
d="M56 262q-11 0 -16 6t-5 13.5t5 14t16 6.5h421q10 0 15.5 -6.5t5.5 -14t-5.5 -13.5t-15.5 -6h-421v0z" />
    <glyph glyph-name="emdash" unicode="&#x2014;" horiz-adv-x="729" 
d="M160 263q-11 0 -16 6t-5 13.5t5 14t16 6.5h480q10 0 15.5 -6.5t5.5 -14t-5.5 -13.5t-15.5 -6h-480v0z" />
    <glyph glyph-name="quoteleft" unicode="&#x2018;" horiz-adv-x="321" 
d="M270 644q8 0 6 -8q-4 -11 -14 -12q-14 -2 -30.5 -9t-27 -17.5t-10.5 -23t18 -24.5q5 -7 -2 -19.5t-21 -19.5q-9 -5 -15.5 -5.5t-11 1.5t-6.5 5t-2 5q0 24 9.5 45.5t25.5 38.5t36.5 28t43.5 15h1z" />
    <glyph glyph-name="quoteright" unicode="&#x2019;" horiz-adv-x="289" 
d="M156 450q-10 0 -8 11q2 5 6.5 9.5t11.5 5.5q18 3 39 12.5t34 23t13.5 29.5t-22.5 32q-7 9 2.5 26t26.5 26q12 7 20.5 7.5t13.5 -2.5t8 -7t3 -6q0 -32 -12 -60.5t-32.5 -50.5t-47 -36.5t-55.5 -19.5h-1z" />
    <glyph glyph-name="quotesinglbase" unicode="&#x201a;" horiz-adv-x="131" 
d="M-49 -75q-8 0 -6 8q3 10 14 12q14 2 30.5 9t27 17.5t10.5 23t-18 24.5q-5 7 2 19.5t21 19.5q19 10 26.5 4t8.5 -10q0 -24 -9.5 -45.5t-25.5 -38.5t-37 -28t-43 -15h-1z" />
    <glyph glyph-name="quotedblleft" unicode="&#x201c;" horiz-adv-x="490" 
d="M340 631q8 0 6 -8q-4 -11 -14 -12q-14 -2 -30.5 -9t-27 -17.5t-10.5 -23t18 -24.5q5 -7 -2 -19.5t-21 -19.5q-9 -5 -15.5 -5.5t-11 1.5t-6.5 5t-2 5q0 24 9.5 45.5t25.5 38.5t36.5 28t43.5 15h1zM250 631q8 0 6 -8q-4 -11 -14 -12q-14 -2 -30.5 -9t-27 -17.5t-10.5 -23
t18 -24.5q5 -7 -2 -19.5t-21 -19.5q-9 -5 -15.5 -5.5t-11 1.5t-6.5 5t-2 5q0 24 9.5 45.5t25.5 38.5t36.5 28t43.5 15h1z" />
    <glyph glyph-name="quotedblright" unicode="&#x201d;" horiz-adv-x="484" 
d="M151 488q-8 0 -6 8q3 10 14 12q14 2 30.5 9t27 17.5t10.5 23t-18 24.5q-5 7 2 19.5t21 19.5q19 10 26.5 4t8.5 -10q0 -24 -9.5 -45.5t-25.5 -38.5t-37 -28t-43 -15h-1zM251 488q-8 0 -6 8q3 10 14 12q14 2 30.5 9t27 17.5t10.5 23t-18 24.5q-5 7 2 19.5t21 19.5
q19 10 26.5 4t8.5 -10q0 -24 -9.5 -45.5t-25.5 -38.5t-37 -28t-43 -15h-1z" />
    <glyph glyph-name="quotedblbase" unicode="&#x201e;" horiz-adv-x="253" 
d="M61 -75q-8 0 -6 8q3 10 14 12q14 2 30.5 9t27 17.5t10.5 23t-18 24.5q-5 7 2 19.5t21 19.5q19 10 26.5 4t8.5 -10q0 -24 -9.5 -45.5t-25.5 -38.5t-37 -28t-43 -15h-1zM-29 -75q-8 0 -6 8q3 10 14 12q14 2 30.5 9t27 17.5t10.5 23t-18 24.5q-5 7 2 19.5t21 19.5
q19 10 26.5 4t8.5 -10q0 -24 -9.5 -45.5t-25.5 -38.5t-37 -28t-43 -15h-1z" />
    <glyph glyph-name="bullet" unicode="&#x2022;" horiz-adv-x="575" 
d="M205 315q0 37 17.5 62.5t43.5 37.5t56.5 12t56.5 -12t43.5 -37.5t17.5 -62.5v-22q0 -37 -17.5 -62.5t-43.5 -38t-56.5 -12.5t-56.5 13t-43.5 37.5t-17.5 62.5v22v0z" />
    <glyph glyph-name="ellipsis" unicode="&#x2026;" horiz-adv-x="237" 
d="M42 1q-13 0 -23 10q-7 9 -7 20q0 12 8 22.5t22 10.5t21.5 -10.5t7.5 -22.5q0 -13 -7 -20q-8 -10 -22 -10zM121 1q-13 0 -23 10q-7 9 -7 20q0 12 8 22.5t22 10.5t21.5 -10.5t7.5 -22.5q0 -13 -7 -20q-8 -10 -22 -10zM200 1q-13 0 -23 10q-7 9 -7 20q0 12 8 22.5t22 10.5
t21.5 -10.5t7.5 -22.5q0 -13 -7 -20q-8 -10 -22 -10z" />
    <glyph glyph-name="perthousand" unicode="&#x2030;" horiz-adv-x="722" 
d="M175 60q-7 0 -10 1q-13 3 -17.5 14t2.5 24l271 564q7 13 19.5 19t26.5 4q11 -4 16 -14.5t-1 -24.5l-273 -564q-12 -23 -34 -23zM375 50q-20 0 -38 7.5t-31.5 21t-21.5 31.5t-8 38q0 21 8 39t21.5 31.5t31.5 21t38 7.5q42 0 70.5 -28.5t28.5 -70.5q0 -41 -28.5 -69.5
t-70.5 -28.5zM375 197q-20 0 -34.5 -14.5t-14.5 -34.5t14.5 -34t34.5 -14t34.5 14t14.5 34t-14.5 34.5t-34.5 14.5zM583 49q-20 0 -38 7.5t-31.5 21t-21.5 31.5t-8 38q0 21 8 39t21.5 31.5t31.5 21t38 7.5q42 0 70.5 -28.5t28.5 -70.5q0 -41 -28.5 -69.5t-70.5 -28.5z
M583 196q-20 0 -34.5 -14.5t-14.5 -34.5t14.5 -34t34.5 -14t34.5 14t14.5 34t-14.5 34.5t-34.5 14.5zM254 501q-20 0 -38 7.5t-31.5 21t-21.5 31.5t-8 38q0 21 8 39t21.5 31.5t31.5 21t38 7.5q42 0 70.5 -28.5t28.5 -70.5q0 -41 -28.5 -69.5t-70.5 -28.5zM254 648
q-20 0 -34.5 -14.5t-14.5 -34.5t14.5 -34t34.5 -14t34.5 14t14.5 34t-14.5 34.5t-34.5 14.5z" />
    <glyph glyph-name="guilsinglleft" unicode="&#x2039;" horiz-adv-x="630" 
d="M398 25q-7 0 -14 5q-18 11 -37 23q-17 11 -37.5 23.5t-42.5 26.5q-26 17 -46.5 30.5t-35.5 24.5q-29 20 -38.5 31t-10.5 22q-1 12 5 20.5t14 15.5q6 5 13.5 11t18.5 13q16 12 37.5 27.5t50.5 34.5q24 16 47 30.5t41 26t29 18.5l11 7q10 7 21 4t17 -13t3.5 -20.5
t-12.5 -16.5q-17 -11 -36 -23q-17 -11 -37.5 -24.5t-42.5 -27.5q-50 -32 -76 -51t-38 -29q11 -9 35 -25.5t69 -45.5q21 -13 40 -25t34 -21t24 -14.5l9 -5.5q10 -7 12.5 -17.5t-3.5 -20.5q-9 -14 -24 -14z" />
    <glyph glyph-name="guilsinglright" unicode="&#x203a;" horiz-adv-x="341" 
d="M101 393q8 0 12 -6q15 -11 33 -23q15 -11 34 -24.5t39 -27.5q23 -17 41 -31.5t32 -25.5q25 -21 33.5 -32t6.5 -22q-2 -12 -9 -20.5t-16 -15.5q-7 -5 -15.5 -10.5t-20.5 -12.5q-17 -12 -41.5 -27t-56.5 -33q-26 -15 -51 -29.5t-44.5 -25.5t-32 -17.5l-12.5 -6.5
q-11 -7 -21 -3.5t-14 13.5q-5 10 -0.5 20.5t15.5 16.5q19 11 39 22q17 10 39.5 23t47.5 27q54 31 83.5 49.5t42.5 27.5q-10 10 -31 27t-60 47q-19 13 -36 25.5t-30.5 22t-22 15l-8.5 5.5q-8 7 -9.5 17.5t6.5 20.5q10 14 27 14z" />
    <glyph glyph-name="fraction" unicode="&#x2044;" horiz-adv-x="461" 
d="M85 50q-7 0 -10 1q-13 3 -17.5 14t2.5 24l271 564q7 13 19.5 19t26.5 4q11 -4 16 -14.5t-1 -24.5l-273 -564q-12 -23 -34 -23z" />
    <glyph glyph-name="Euro" unicode="&#x20ac;" horiz-adv-x="334" 
d="M126 0q-31 1 -50.5 17.5t-30.5 40.5t-15.5 52t-5.5 53h-20q-12 0 -21 8.5t-9 21.5t9 21.5t21 8.5h22q2 14 4.5 29t6.5 31q-9 2 -15 10.5t-6 18.5q0 13 8.5 21.5t21.5 8.5h9q14 40 35 77t48 64.5t60 41.5t72 9q33 -5 52.5 -26t28.5 -51.5t10 -65.5t-2 -68q1 -3 1.5 -5.5
t0.5 -5.5q0 -10 -6 -17q-2 -12 -4 -23t-4 -20q-11 -41 -28.5 -85t-44.5 -81t-63.5 -61t-84.5 -25zM257 480q-24 0 -43 -9t-35 -23t-27.5 -31.5t-20.5 -33.5q-10 -19 -18 -41h187q1 8 1.5 16t0.5 16q0 19 -2.5 38t-7.5 34t-14 24.5t-21 9.5zM250 160q0 1 0.5 1.5t0.5 1.5
h-167q2 -57 20.5 -79t44 -18t53 30t48.5 64zM86 223h190q5 14 9 29t7 30h-197q-6 -31 -9 -59z" />
    <glyph glyph-name="trademark" unicode="&#x2122;" horiz-adv-x="1224" 
d="M1054 519q-8 -28 -18 -59.5t-20.5 -64.5t-20.5 -65.5t-17 -61.5q-3 -15 -5 -31.5t1 -31t12.5 -25.5t29.5 -15q7 -2 11.5 -8.5t2.5 -14.5q-5 -16 -19 -16q-18 0 -37 12.5t-29 29.5q-13 24 -12 52t7 57q7 30 17 62.5t20.5 65.5t20.5 64.5t17 59.5q6 23 5 32.5t-3 12.5
q-1 1 -1.5 2t-5.5 3q-1 0 -7 -1.5t-18 -10.5t-30 -29t-43 -56q-32 -46 -63.5 -100.5t-55.5 -99.5q-11 -20 -21 -36.5t-18 -28.5q-3 -8 -6.5 -12t-5.5 -9q-3 -3 -9.5 -9t-17.5 -3q-16 4 -14 20q0 4 1 7l5 15t12.5 39t17 55.5t19.5 64.5q11 40 20 72t14 58q5 24 7 38.5t3 20.5
q-5 -2 -12 -8t-18 -16q-26 -29 -62 -80q-32 -48 -63.5 -102.5t-57.5 -100.5q-12 -23 -22.5 -41.5t-18.5 -30.5l-14 -22q-3 -5 -9 -10t-14 -5h-6q-8 4 -11 10q-5 7 -4 16t8 28q3 12 7.5 28t11.5 34q13 41 29 87t28 91q8 33 11.5 54.5t3.5 35t-2 20t-3 8.5h-3q-13 3 -34 -10.5
t-44 -40.5q-22 -24 -35 -45t-14 -21q-12 -17 -30 -7q-6 5 -7.5 12.5t3.5 14.5q1 1 15.5 23t37.5 48h-113l-106 -363q-2 -6 -7 -10.5t-13 -4.5q-1 0 -2 0.5t-2 0.5q-20 7 -15 25l104 352h-60q-17 0 -30 -9t-22.5 -19.5t-15 -19l-5.5 -8.5q-2 -6 -6.5 -9.5t-9.5 -3.5
q-6 0 -9 3q-8 3 -11 10.5t2 15.5q0 1 7 13.5t20.5 27.5t33.5 27t46 12h248q4 0 6 -1q2 2 5 4l6 4q36 24 64 18q19 -3 29 -20q23 -34 -6 -147q-7 -29 -16 -59t-19 -60q23 42 49.5 85.5t52.5 82.5q43 64 74 95t57 33q7 0 13 -2t10 -8q7 -8 8.5 -27t-7.5 -64
q-5 -27 -13.5 -60.5t-20.5 -75.5q-2 -5 -3.5 -11t-3.5 -11q20 35 43.5 73t46.5 73q44 63 77 90t60 21q16 -2 23.5 -10t12.5 -13q12 -25 1 -75z" />
    <glyph glyph-name="minus" unicode="&#x2212;" horiz-adv-x="833" 
d="M212 345h464l-34 -34h-464z" />
    <glyph glyph-name="fi" unicode="&#xfb01;" horiz-adv-x="438" 
d="M503 307q11 -5 15 -17t-1 -23q0 -1 -5 -12t-13.5 -28.5t-20.5 -40t-26 -45.5q-18 -28 -34 -50t-31 -39q-43 -49 -79 -50h-4q-27 0 -43 22q-21 28 -12 92q4 44 23 109l10 35h-122q1 -14 1 -39t-1 -56.5t-2 -67t-2 -69.5q-1 -54 -5 -99t-11 -82q-19 -99 -61 -136
q-27 -24 -61 -24q-10 0 -20 3q-9 2 -20.5 8.5t-19.5 22.5q-7 13 -10.5 39.5t4 77.5t30 133.5t67.5 209.5q5 15 15.5 39.5t15.5 39.5q-2 0 -9 8.5t-7 20.5q0 13 9.5 22t29.5 9q18 49 36 96t32 84t22.5 60l8.5 23q5 11 17 16t23 0t16 -17t0 -23l-8 -21t-21 -54.5t-29 -76.5
t-33 -87h134q9 26 15 44t7 19q5 12 16.5 17t22.5 0q12 -4 17 -15.5t0 -22.5l-5 -14.5t-12 -36.5t-15.5 -49t-15.5 -52q-9 -29 -14.5 -54t-8.5 -45q-2 -21 -1.5 -32t1.5 -16q4 1 11.5 6.5t18.5 17.5t26.5 32.5t35.5 53.5q14 22 25.5 43.5t19.5 38.5q10 19 18 37q5 11 17 15.5
t23 -0.5zM96 29q2 56 0 104q-27 -76 -45.5 -139t-29.5 -112q-9 -39 -11.5 -64t-2.5 -40t1.5 -22t2.5 -8q16 -3 28 8q9 8 20.5 30.5t21.5 72.5q13 67 15 170zM407 439l-56 21q3 10 7 18q2 7 4.5 13t2.5 7q5 11 16 16.5t23 0.5q11 -5 16.5 -16t0.5 -23z" />
    <glyph glyph-name="fl" unicode="&#xfb02;" horiz-adv-x="467" 
d="M285 2q-29 2 -42 27q-5 9 -3 30.5t8.5 52.5t16 69t21.5 79h-126q1 -14 1 -39t-1 -56.5t-2 -67t-2 -69.5q-1 -54 -5 -99t-11 -82q-19 -99 -61 -136q-27 -24 -61 -24q-10 0 -20 3q-9 2 -20.5 8.5t-19.5 22.5q-7 13 -10.5 39.5t4 77.5t30 133.5t67.5 209.5q5 15 15.5 39.5
t15.5 39.5q-2 0 -9 8.5t-7 20.5q0 13 9.5 22t29.5 9q18 49 36 96t32 84t22.5 60l8.5 23q5 11 17 16t23 0t16 -17t0 -23l-8 -21t-21 -54.5t-29 -76.5t-33 -87h137q15 49 30.5 96t28.5 84.5t21 62.5t10 30q4 12 16 17t23 0q12 -5 21 -15.5t4 -23.5q1 1 -6 -19.5t-18 -55
t-25.5 -79.5t-29.5 -92t-29 -92.5t-24 -81t-15.5 -57.5t-2.5 -22q6 -1 21 13t35.5 35.5t43 47.5t42.5 49.5t35 42t20 25.5q8 10 19.5 13.5t22.5 -2.5q10 -6 13.5 -19t-5.5 -22q-15 -15 -36 -40t-45 -53t-50 -56.5t-51 -51.5t-47.5 -37.5t-40.5 -14.5zM96 29q2 56 0 104
q-27 -76 -45.5 -139t-29.5 -112q-9 -39 -11.5 -64t-2.5 -40t1.5 -22t2.5 -8q16 -3 28 8q9 8 20.5 30.5t21.5 72.5q13 67 15 170z" />
    <glyph glyph-name="h.2" horiz-adv-x="373" 
d="M-4 40q1 10 5.5 39t12 70t17 90.5t19 100t19 98.5t17 86.5t12.5 63.5t6 29q3 13 13.5 19t21.5 3q12 -3 19 -13.5t5 -22.5q-3 -14 -9.5 -47t-15.5 -75.5t-19 -89.5t-19 -89.5t-16.5 -76t-10.5 -47.5q9 12 22.5 37.5t30 55t35.5 59.5t40 51t43 28t45 -9q13 -9 16.5 -30.5
t0.5 -49.5t-10 -60.5t-13.5 -64.5t-11 -60.5t-3.5 -48.5q1 -15 11.5 -7.5t25 27.5t31 47.5t30.5 52.5t23 42l9 17q5 11 15.5 17t23.5 1q11 -5 17 -16.5t-2 -22.5q-20 -29 -43 -73t-49 -84t-53.5 -66.5t-55.5 -21.5t-37 31.5t-7.5 63.5t10 79.5t17.5 80t14 64t-1 32.5
q-9 -3 -23 -21.5t-31 -47t-35.5 -63.5t-36 -70t-33.5 -68t-27 -57q-6 -12 -17.5 -17.5t-23 -4t-19 11t-5.5 27.5z" />
    <glyph glyph-name="h.4" horiz-adv-x="373" 
d="M-4 40q1 10 5.5 39t12 70t17 90.5t19 100t19 98.5t17 86.5t12.5 63.5t6 29q3 13 13.5 19t21.5 3q12 -3 19 -13.5t5 -22.5q-3 -14 -9.5 -47t-15.5 -75.5t-19 -89.5t-19 -89.5t-16.5 -76t-10.5 -47.5q9 12 22.5 37.5t30 55t35.5 59.5t40 51t43 28t45 -9q13 -9 16.5 -30.5
t0.5 -49.5t-10 -60.5t-13.5 -64.5t-11 -60.5t-3.5 -48.5q1 -15 11.5 -7.5t25 27.5t31 47.5t30.5 52.5t23 42l9 17q5 11 15.5 17t23.5 1q11 -5 17 -16.5t-2 -22.5q-20 -29 -43 -73t-49 -84t-53.5 -66.5t-55.5 -21.5t-37 31.5t-7.5 63.5t10 79.5t17.5 80t14 64t-1 32.5
q-9 -3 -23 -21.5t-31 -47t-35.5 -63.5t-36 -70t-33.5 -68t-27 -57q-6 -12 -17.5 -17.5t-23 -4t-19 11t-5.5 27.5z" />
    <glyph glyph-name="h.6" horiz-adv-x="373" 
d="M-4 40q1 10 5.5 39t12 70t17 90.5t19 100t19 98.5t17 86.5t12.5 63.5t6 29q3 13 13.5 19t21.5 3q12 -3 19 -13.5t5 -22.5q-3 -14 -9.5 -47t-15.5 -75.5t-19 -89.5t-19 -89.5t-16.5 -76t-10.5 -47.5q9 12 22.5 37.5t30 55t35.5 59.5t40 51t43 28t45 -9q13 -9 16.5 -30.5
t0.5 -49.5t-10 -60.5t-13.5 -64.5t-11 -60.5t-3.5 -48.5q1 -15 11.5 -7.5t25 27.5t31 47.5t30.5 52.5t23 42l9 17q5 11 15.5 17t23.5 1q11 -5 17 -16.5t-2 -22.5q-20 -29 -43 -73t-49 -84t-53.5 -66.5t-55.5 -21.5t-37 31.5t-7.5 63.5t10 79.5t17.5 80t14 64t-1 32.5
q-9 -3 -23 -21.5t-31 -47t-35.5 -63.5t-36 -70t-33.5 -68t-27 -57q-6 -12 -17.5 -17.5t-23 -4t-19 11t-5.5 27.5z" />
    <glyph glyph-name="c.4" horiz-adv-x="299" 
d="M89 1q-11 0 -21 3h-1q-27 9 -46 37q-14 23 -18 55q-5 29 -3 63t11 69q4 20 12 42t18 43t20.5 39.5t21.5 31.5q28 35 54 50t48 15t39.5 -12.5t28 -33.5t12.5 -48.5t-6 -56.5q-3 -11 -14.5 -17.5t-23.5 -2.5q-11 4 -17.5 14.5t-2.5 22.5q9 31 5.5 47.5t-14.5 20t-28 -5.5
t-35 -30q-8 -11 -17 -26.5t-17 -33.5t-15 -37t-11 -36q-7 -29 -8.5 -55.5t0.5 -47t8 -33.5t15 -16q17 -4 45 13.5t61 52.5q15 16 36.5 42t42 51.5t35 44.5l14.5 19q7 11 18.5 13t22.5 -5t13.5 -19t-5.5 -23q0 -1 -15 -20.5t-36 -45.5t-43.5 -53.5t-38.5 -44.5
q-39 -41 -75 -63q-38 -23 -70 -23z" />
    <glyph glyph-name="e.8" horiz-adv-x="283" 
d="M143 422q36 20 68 14.5t49.5 -27.5t16.5 -55.5t-31 -69.5q-26 -33 -54.5 -57t-55 -40.5t-49 -26.5t-36.5 -15q-1 -11 -2 -24t0 -25.5t5.5 -22t14.5 -12.5q2 0 10 1t24.5 10t42.5 29t64 57q22 21 42 42t35 38t24.5 27.5l9.5 10.5q8 10 20.5 12t20.5 -6q10 -8 11 -19.5
t-7 -22.5q-2 -1 -11.5 -11.5t-25.5 -28t-36.5 -39t-43.5 -44.5q-60 -58 -106.5 -83t-79.5 -25t-52 22t-25.5 57t0.5 79.5t27 90t52.5 89t77.5 75.5zM196 380q-21 -3 -41.5 -22.5t-38.5 -46t-31 -53.5t-19 -44q39 16 74 44.5t61 60.5q6 7 11 17.5t6 20t-3.5 16.5t-18.5 7z
" />
    <glyph glyph-name="e.2" horiz-adv-x="283" 
d="M143 422q36 20 68 14.5t49.5 -27.5t16.5 -55.5t-31 -69.5q-26 -33 -54.5 -57t-55 -40.5t-49 -26.5t-36.5 -15q-1 -11 -2 -24t0 -25.5t5.5 -22t14.5 -12.5q2 0 10 1t24.5 10t42.5 29t64 57q22 21 42 42t35 38t24.5 27.5l9.5 10.5q8 10 20.5 12t20.5 -6q10 -8 11 -19.5
t-7 -22.5q-2 -1 -11.5 -11.5t-25.5 -28t-36.5 -39t-43.5 -44.5q-60 -58 -106.5 -83t-79.5 -25t-52 22t-25.5 57t0.5 79.5t27 90t52.5 89t77.5 75.5zM196 380q-21 -3 -41.5 -22.5t-38.5 -46t-31 -53.5t-19 -44q39 16 74 44.5t61 60.5q6 7 11 17.5t6 20t-3.5 16.5t-18.5 7z
" />
    <glyph glyph-name="s.2" horiz-adv-x="252" 
d="M76 139q-29 64 -40 111.5t-11 81t8.5 54t18.5 31.5q17 20 42.5 28t52.5 2q35 -7 62 -32.5t38 -62.5q4 -12 -1.5 -22t-18.5 -13t-24.5 3t-14.5 17q-11 33 -28 45t-33 7t-26.5 -25.5t-8.5 -53.5q2 -32 13.5 -71t34.5 -90q33 0 52.5 5.5t32 16t21.5 27.5t21 40q5 11 17.5 15
t23.5 -1q12 -5 16.5 -16.5t-0.5 -22.5q-12 -26 -27 -47.5t-35.5 -38t-48 -26t-65.5 -9.5q-3 -42 -18.5 -66.5t-36.5 -35t-44 -7.5t-40 17q-16 13 -23.5 34t-1.5 42t28 39t64 24zM98 86q-24 1 -38 -4.5t-20 -14t-4.5 -17t7.5 -12.5q5 -4 13 -3.5t16 6t15 16.5t11 29z" />
    <glyph glyph-name="s.6" horiz-adv-x="252" 
d="M76 139q-29 64 -40 111.5t-11 81t8.5 54t18.5 31.5q17 20 42.5 28t52.5 2q35 -7 62 -32.5t38 -62.5q4 -12 -1.5 -22t-18.5 -13t-24.5 3t-14.5 17q-11 33 -28 45t-33 7t-26.5 -25.5t-8.5 -53.5q2 -32 13.5 -71t34.5 -90q33 0 52.5 5.5t32 16t21.5 27.5t21 40q5 11 17.5 15
t23.5 -1q12 -5 16.5 -16.5t-0.5 -22.5q-12 -26 -27 -47.5t-35.5 -38t-48 -26t-65.5 -9.5q-3 -42 -18.5 -66.5t-36.5 -35t-44 -7.5t-40 17q-16 13 -23.5 34t-1.5 42t28 39t64 24zM98 86q-24 1 -38 -4.5t-20 -14t-4.5 -17t7.5 -12.5q5 -4 13 -3.5t16 6t15 16.5t11 29z" />
    <glyph glyph-name="s.8" horiz-adv-x="252" 
d="M76 139q-29 64 -40 111.5t-11 81t8.5 54t18.5 31.5q17 20 42.5 28t52.5 2q35 -7 62 -32.5t38 -62.5q4 -12 -1.5 -22t-18.5 -13t-24.5 3t-14.5 17q-11 33 -28 45t-33 7t-26.5 -25.5t-8.5 -53.5q2 -32 13.5 -71t34.5 -90q33 0 52.5 5.5t32 16t21.5 27.5t21 40q5 11 17.5 15
t23.5 -1q12 -5 16.5 -16.5t-0.5 -22.5q-12 -26 -27 -47.5t-35.5 -38t-48 -26t-65.5 -9.5q-3 -42 -18.5 -66.5t-36.5 -35t-44 -7.5t-40 17q-16 13 -23.5 34t-1.5 42t28 39t64 24zM98 86q-24 1 -38 -4.5t-20 -14t-4.5 -17t7.5 -12.5q5 -4 13 -3.5t16 6t15 16.5t11 29z" />
    <glyph glyph-name="u.2" horiz-adv-x="363" 
d="M378 252q7 16 17.5 19t19 -2t12 -15.5t-3.5 -22.5q-18 -31 -39.5 -73.5t-46 -80t-51.5 -61.5t-55 -19q-27 5 -34.5 31t-3.5 63q-14 -17 -26.5 -30.5t-24.5 -23.5q-38 -32 -67 -32q-10 0 -19 3q-26 9 -38 35q-28 56 11 205q7 26 14 50.5t13 43.5t10 30.5t4 12.5
q4 12 15.5 17.5t22.5 0.5q12 -5 17.5 -16t0.5 -22l-3.5 -11.5t-9 -30t-12.5 -42.5t-14 -49q-19 -70 -21.5 -107t5.5 -50t24.5 -6.5t36 23t40 38t36.5 39.5q7 22 17.5 57t20.5 68t17.5 57.5t7.5 25.5q5 11 16 16.5t23 0.5q11 -5 16.5 -16.5t0.5 -22.5l-3.5 -11.5t-9.5 -29.5
t-13 -41.5t-14 -47.5q-11 -44 -22.5 -84.5t-11.5 -67.5q0 -15 10 -7.5t23.5 27.5t30 47.5t30 52.5t22.5 42z" />
    <glyph glyph-name="a.4" horiz-adv-x="375" 
d="M439 294q12 -5 16.5 -17t-0.5 -23l-69 -113q-35 -58 -67 -90q-47 -48 -88 -48q-24 0 -38 20q-5 8 -9 20.5t-4 35.5q-19 -29 -44 -52t-56 -23q-5 0 -15 2q-46 11 -63 60q-13 35 -7 90q5 41 21 87.5t40 86.5t54 66t64 26q9 0 18 -3q37 -9 54 -48q3 11 6.5 22t6.5 22
q4 12 15 16t21.5 1.5t17.5 -10t4 -19.5l-2.5 -8.5t-5.5 -19.5t-6.5 -24t-6.5 -22q-17 -54 -28 -97.5t-19 -78.5q-7 -39 -8.5 -59t0.5 -29q6 3 14.5 9t20 18t26.5 31.5t33 48.5q28 45 46.5 75.5t18.5 31.5q5 11 16.5 15.5t22.5 -0.5zM194 285q1 12 1.5 25t-1.5 23.5t-6 18
t-11 9.5q-1 1 -3 1q-11 0 -29 -14.5t-39 -51.5q-20 -33 -33.5 -72.5t-17.5 -74.5q-1 -7 -1.5 -20t1 -26.5t7 -24.5t17.5 -14h1q7 0 24.5 15.5t37.5 53.5q20 35 33.5 76t18.5 76z" />
    <glyph glyph-name="d.4" horiz-adv-x="372" 
d="M446 294q12 -5 16.5 -17t-0.5 -23q-1 -2 -20.5 -33.5t-48.5 -79.5q-35 -58 -67 -90q-47 -48 -88 -48q-24 0 -38 20q-5 8 -9 20.5t-4 35.5q-19 -29 -44 -52t-56 -23q-5 0 -15 2q-46 11 -63 60q-13 35 -7 90q5 41 21 87.5t40 86.5t54 66t64 26q9 0 18 -3q37 -9 54 -48
q13 42 25 80.5t21 68t14 47t5 18.5q5 11 16 16.5t23 0.5q12 -4 17.5 -15.5t0.5 -22.5l-6.5 -20t-16.5 -52.5t-23 -75t-26 -87.5q-17 -54 -28 -97.5t-19 -78.5q-7 -39 -8.5 -59t0.5 -29q6 3 14.5 9t20 18t26.5 31.5t33 48.5q28 45 46.5 75.5t18.5 31.5q5 11 16.5 15.5
t22.5 -0.5zM149 133q20 35 33.5 76t18.5 76q1 12 1.5 25t-1.5 23.5t-6 18t-11 9.5q-1 1 -3 1q-11 0 -29 -14.5t-39 -51.5q-20 -33 -33.5 -72.5t-17.5 -74.5q-1 -7 -1.5 -20t1 -26.5t7 -24.5t17.5 -14h1q7 0 24.5 15.5t37.5 53.5z" />
    </font>
</defs>
</svg>
